<svg width="56" height="57" viewBox="0 0 56 57" fill="none" xmlns="http://www.w3.org/2000/svg">
<rect x="4" y="4.5" width="48" height="48" rx="24" fill="#BAE8FF"/>
<rect x="4" y="4.5" width="48" height="48" rx="24" stroke="#EBF8FF" stroke-width="8"/>
<path fill-rule="evenodd" clip-rule="evenodd" d="M28 19.5C28.4142 19.5 28.75 19.8358 28.75 20.25V27.75H36.25C36.6642 27.75 37 28.0858 37 28.5C37 28.9142 36.6642 29.25 36.25 29.25H28.75V36.75C28.75 37.1642 28.4142 37.5 28 37.5C27.5858 37.5 27.25 37.1642 27.25 36.75V29.25H19.75C19.3358 29.25 19 28.9142 19 28.5C19 28.0858 19.3358 27.75 19.75 27.75H27.25V20.25C27.25 19.8358 27.5858 19.5 28 19.5Z" fill="#106B99"/>
</svg>
