<svg width="56" height="57" viewBox="0 0 56 57" fill="none" xmlns="http://www.w3.org/2000/svg">
<rect x="4" y="4.5" width="48" height="48" rx="24" fill="#BAE8FF"/>
<rect x="4" y="4.5" width="48" height="48" rx="24" stroke="#EBF8FF" stroke-width="8"/>
<path d="M28 39C22.201 39 17.5 34.299 17.5 28.5C17.5 22.701 22.201 18 28 18C33.799 18 38.5 22.701 38.5 28.5C38.5 34.299 33.799 39 28 39ZM28 40.5C34.6274 40.5 40 35.1274 40 28.5C40 21.8726 34.6274 16.5 28 16.5C21.3726 16.5 16 21.8726 16 28.5C16 35.1274 21.3726 40.5 28 40.5Z" fill="#106B99"/>
<path d="M29.3961 26.3818L25.9595 26.8125L25.8365 27.3838L26.5132 27.5068C26.9527 27.6123 27.0406 27.7705 26.9439 28.21L25.8365 33.4131C25.5464 34.7578 25.9947 35.3906 27.0494 35.3906C27.8668 35.3906 28.816 35.0127 29.2466 34.4941L29.3785 33.8701C29.0796 34.1338 28.6402 34.2393 28.3502 34.2393C27.9371 34.2393 27.7877 33.9492 27.8931 33.4395L29.3961 26.3818Z" fill="#106B99"/>
<path d="M29.5 23.25C29.5 24.0784 28.8284 24.75 28 24.75C27.1716 24.75 26.5 24.0784 26.5 23.25C26.5 22.4216 27.1716 21.75 28 21.75C28.8284 21.75 29.5 22.4216 29.5 23.25Z" fill="#106B99"/>
</svg>
