<svg width="24" height="24" viewBox="0 0 24 24" fill="none" xmlns="http://www.w3.org/2000/svg">
<g id="vuesax/bulk/archive">
<g id="archive">
<g id="Vector" opacity="0.4">
<path d="M19.5 9.97V19C19.5 21 19 22 16.5 22H7.5C5 22 4.5 21 4.5 19V9.97C4.66 9.99 4.83 10 5 10H19C19.17 10 19.34 9.99 19.5 9.97Z" fill="#292D32"/>
<path d="M19.5 9.97V19C19.5 21 19 22 16.5 22H7.5C5 22 4.5 21 4.5 19V9.97C4.66 9.99 4.83 10 5 10H19C19.17 10 19.34 9.99 19.5 9.97Z" fill="url(#paint0_linear_1055_20869)"/>
</g>
<g id="Vector_2">
<path d="M22 5V7C22 8.83 21.17 9.82 19.5 9.97C19.34 9.99 19.17 10 19 10H5C4.83 10 4.66 9.99 4.5 9.97C2.83 9.82 2 8.83 2 7V5C2 3 3 2 5 2H19C21 2 22 3 22 5Z" fill="#292D32"/>
<path d="M22 5V7C22 8.83 21.17 9.82 19.5 9.97C19.34 9.99 19.17 10 19 10H5C4.83 10 4.66 9.99 4.5 9.97C2.83 9.82 2 8.83 2 7V5C2 3 3 2 5 2H19C21 2 22 3 22 5Z" fill="url(#paint1_linear_1055_20869)"/>
</g>
<g id="Vector_3">
<path d="M13.8202 14.75H10.1802C9.77018 14.75 9.43018 14.41 9.43018 14C9.43018 13.59 9.77018 13.25 10.1802 13.25H13.8202C14.2302 13.25 14.5702 13.59 14.5702 14C14.5702 14.41 14.2302 14.75 13.8202 14.75Z" fill="#292D32"/>
<path d="M13.8202 14.75H10.1802C9.77018 14.75 9.43018 14.41 9.43018 14C9.43018 13.59 9.77018 13.25 10.1802 13.25H13.8202C14.2302 13.25 14.5702 13.59 14.5702 14C14.5702 14.41 14.2302 14.75 13.8202 14.75Z" fill="url(#paint2_linear_1055_20869)"/>
</g>
</g>
</g>
<defs>
<linearGradient id="paint0_linear_1055_20869" x1="4.49977" y1="21.9999" x2="16.2428" y2="7.35772" gradientUnits="userSpaceOnUse">
<stop stop-color="#8B8B8B"/>
<stop offset="1" stop-color="#EAEAEA"/>
</linearGradient>
<linearGradient id="paint1_linear_1055_20869" x1="1.99969" y1="9.99995" x2="7.51694" y2="-3.79321" gradientUnits="userSpaceOnUse">
<stop stop-color="#8B8B8B"/>
<stop offset="1" stop-color="#EAEAEA"/>
</linearGradient>
<linearGradient id="paint2_linear_1055_20869" x1="9.4301" y1="14.75" x2="10.2369" y2="11.9854" gradientUnits="userSpaceOnUse">
<stop stop-color="#8B8B8B"/>
<stop offset="1" stop-color="#EAEAEA"/>
</linearGradient>
</defs>
</svg>
