<svg width="24" height="24" viewBox="0 0 24 24" fill="none" xmlns="http://www.w3.org/2000/svg">
<g opacity="0.4">
<path d="M16.19 2H7.82001C4.18001 2 2.01001 4.17 2.01001 7.81V16.18C2.01001 19.82 4.18001 21.99 7.82001 21.99H16.19C19.83 21.99 22 19.82 22 16.18V7.81C22 4.17 19.83 2 16.19 2Z" fill="#292D32"/>
<path d="M16.19 2H7.82001C4.18001 2 2.01001 4.17 2.01001 7.81V16.18C2.01001 19.82 4.18001 21.99 7.82001 21.99H16.19C19.83 21.99 22 19.82 22 16.18V7.81C22 4.17 19.83 2 16.19 2Z" fill="url(#paint0_linear_6142_82697)"/>
<path d="M16.19 2H7.82001C4.18001 2 2.01001 4.17 2.01001 7.81V16.18C2.01001 19.82 4.18001 21.99 7.82001 21.99H16.19C19.83 21.99 22 19.82 22 16.18V7.81C22 4.17 19.83 2 16.19 2Z" fill="url(#paint1_linear_6142_82697)"/>
</g>
<path d="M11.5 8.09V17.25C11.5 17.61 11.14 17.85 10.81 17.71C9.6 17.19 8.01998 16.71 6.91998 16.57L6.72998 16.55C6.11998 16.47 5.62 15.9 5.62 15.28V7.57999C5.62 6.81999 6.24 6.25 7 6.31C8.25 6.41 10.1 7.01001 11.26 7.67001C11.41 7.74001 11.5 7.91 11.5 8.09Z" fill="#292D32"/>
<path d="M11.5 8.09V17.25C11.5 17.61 11.14 17.85 10.81 17.71C9.6 17.19 8.01998 16.71 6.91998 16.57L6.72998 16.55C6.11998 16.47 5.62 15.9 5.62 15.28V7.57999C5.62 6.81999 6.24 6.25 7 6.31C8.25 6.41 10.1 7.01001 11.26 7.67001C11.41 7.74001 11.5 7.91 11.5 8.09Z" fill="url(#paint2_linear_6142_82697)"/>
<path d="M11.5 8.09V17.25C11.5 17.61 11.14 17.85 10.81 17.71C9.6 17.19 8.01998 16.71 6.91998 16.57L6.72998 16.55C6.11998 16.47 5.62 15.9 5.62 15.28V7.57999C5.62 6.81999 6.24 6.25 7 6.31C8.25 6.41 10.1 7.01001 11.26 7.67001C11.41 7.74001 11.5 7.91 11.5 8.09Z" fill="url(#paint3_linear_6142_82697)"/>
<path d="M18.38 7.69983V15.2698C18.38 15.8898 17.88 16.4598 17.27 16.5398L17.06 16.5598C15.97 16.7098 14.4 17.1798 13.19 17.6898C12.86 17.8298 12.5 17.5898 12.5 17.2298V8.0798C12.5 7.8998 12.59 7.72983 12.75 7.63983C13.91 6.98983 15.72 6.4098 16.95 6.2998H16.99C17.76 6.3098 18.38 6.92983 18.38 7.69983Z" fill="#292D32"/>
<path d="M18.38 7.69983V15.2698C18.38 15.8898 17.88 16.4598 17.27 16.5398L17.06 16.5598C15.97 16.7098 14.4 17.1798 13.19 17.6898C12.86 17.8298 12.5 17.5898 12.5 17.2298V8.0798C12.5 7.8998 12.59 7.72983 12.75 7.63983C13.91 6.98983 15.72 6.4098 16.95 6.2998H16.99C17.76 6.3098 18.38 6.92983 18.38 7.69983Z" fill="url(#paint4_linear_6142_82697)"/>
<path d="M18.38 7.69983V15.2698C18.38 15.8898 17.88 16.4598 17.27 16.5398L17.06 16.5598C15.97 16.7098 14.4 17.1798 13.19 17.6898C12.86 17.8298 12.5 17.5898 12.5 17.2298V8.0798C12.5 7.8998 12.59 7.72983 12.75 7.63983C13.91 6.98983 15.72 6.4098 16.95 6.2998H16.99C17.76 6.3098 18.38 6.92983 18.38 7.69983Z" fill="url(#paint5_linear_6142_82697)"/>
<defs>
<linearGradient id="paint0_linear_6142_82697" x1="22" y1="21.99" x2="22" y2="2" gradientUnits="userSpaceOnUse">
<stop stop-color="#9890E3"/>
<stop offset="1" stop-color="#B1F4CF"/>
</linearGradient>
<linearGradient id="paint1_linear_6142_82697" x1="2.0097" y1="21.9899" x2="21.9998" y2="1.99976" gradientUnits="userSpaceOnUse">
<stop stop-color="#4B73FF"/>
<stop offset="1" stop-color="#7CF7FF"/>
</linearGradient>
<linearGradient id="paint2_linear_6142_82697" x1="11.5" y1="17.7505" x2="11.5" y2="6.30566" gradientUnits="userSpaceOnUse">
<stop stop-color="#9890E3"/>
<stop offset="1" stop-color="#B1F4CF"/>
</linearGradient>
<linearGradient id="paint3_linear_6142_82697" x1="5.6199" y1="17.7504" x2="14.9241" y2="12.9702" gradientUnits="userSpaceOnUse">
<stop stop-color="#4B73FF"/>
<stop offset="1" stop-color="#7CF7FF"/>
</linearGradient>
<linearGradient id="paint4_linear_6142_82697" x1="18.38" y1="17.7303" x2="18.38" y2="6.2998" gradientUnits="userSpaceOnUse">
<stop stop-color="#9890E3"/>
<stop offset="1" stop-color="#B1F4CF"/>
</linearGradient>
<linearGradient id="paint5_linear_6142_82697" x1="12.4999" y1="17.7302" x2="21.7992" y2="12.9465" gradientUnits="userSpaceOnUse">
<stop stop-color="#4B73FF"/>
<stop offset="1" stop-color="#7CF7FF"/>
</linearGradient>
</defs>
</svg>
