<svg width="24" height="24" viewBox="0 0 24 24" fill="none" xmlns="http://www.w3.org/2000/svg">
<g id="vuesax/bulk/briefcase">
<g id="briefcase">
<path id="Vector" d="M21.09 6.98002C20.24 6.04002 18.82 5.57002 16.76 5.57002H16.52V5.53002C16.52 3.85002 16.52 1.77002 12.76 1.77002H11.24C7.48001 1.77002 7.48001 3.86002 7.48001 5.53002V5.58002H7.24001C5.17001 5.58002 3.76001 6.05002 2.91001 6.99002C1.92001 8.09002 1.95001 9.57002 2.05001 10.58L2.06001 10.65L2.16001 11.7C2.17001 11.71 2.19001 11.73 2.21001 11.74C2.54001 11.96 2.88001 12.18 3.24001 12.38C3.38001 12.47 3.53001 12.55 3.68001 12.63C5.39001 13.57 7.27001 14.2 9.18001 14.51C9.27001 15.45 9.68001 16.55 11.87 16.55C14.06 16.55 14.49 15.46 14.56 14.49C16.6 14.16 18.57 13.45 20.35 12.41C20.41 12.38 20.45 12.35 20.5 12.32C20.96 12.06 21.39 11.78 21.81 11.47C21.83 11.46 21.85 11.44 21.86 11.42L21.9 11.06L21.95 10.59C21.96 10.53 21.96 10.48 21.97 10.41C22.05 9.40002 22.03 8.02002 21.09 6.98002ZM13.09 13.83C13.09 14.89 13.09 15.05 11.86 15.05C10.63 15.05 10.63 14.86 10.63 13.84V12.58H13.09V13.83ZM8.91001 5.57002V5.53002C8.91001 3.83002 8.91001 3.20002 11.24 3.20002H12.76C15.09 3.20002 15.09 3.84002 15.09 5.53002V5.58002H8.91001V5.57002Z" fill="url(#paint0_linear_6142_82668)"/>
<path id="Vector_2" opacity="0.4" d="M20.5 12.2999C20.45 12.3299 20.4 12.3599 20.35 12.3899C18.57 13.4299 16.6 14.1299 14.56 14.4699C14.48 15.4299 14.06 16.5299 11.87 16.5299C9.68 16.5299 9.26 15.4399 9.18 14.4899C7.27 14.1899 5.39 13.5599 3.68 12.6099C3.53 12.5299 3.38 12.4499 3.24 12.3599C2.88 12.1599 2.54 11.9399 2.21 11.7199C2.19 11.7099 2.17 11.6899 2.16 11.6799L2.77 18.1899C2.98 20.1799 3.8 22.2299 8.2 22.2299H15.82C20.22 22.2299 21.04 20.1799 21.25 18.1799L21.88 11.3999C21.87 11.4199 21.85 11.4399 21.83 11.4499C21.4 11.7599 20.96 12.0499 20.5 12.2999Z" fill="url(#paint1_linear_6142_82668)"/>
</g>
</g>
<defs>
<linearGradient id="paint0_linear_6142_82668" x1="2.00259" y1="16.5499" x2="16.1321" y2="-2.56675" gradientUnits="userSpaceOnUse">
<stop stop-color="#FFB800"/>
<stop offset="1" stop-color="#FFF500"/>
</linearGradient>
<linearGradient id="paint1_linear_6142_82668" x1="2.1597" y1="22.2298" x2="11.2987" y2="5.58881" gradientUnits="userSpaceOnUse">
<stop stop-color="#FFB800"/>
<stop offset="1" stop-color="#FFF500"/>
</linearGradient>
</defs>
</svg>
