<svg width="20" height="20" viewBox="0 0 20 20" fill="none" xmlns="http://www.w3.org/2000/svg">
<path d="M14.5 18C16.433 18 18 16.433 18 14.5C18 12.567 16.433 11 14.5 11C12.567 11 11 12.567 11 14.5C11 16.433 12.567 18 14.5 18ZM16.1787 13.5072L14.8435 15.7327C14.5924 16.1511 14.0151 16.2222 13.67 15.8771L12.8964 15.1036C12.7012 14.9083 12.7012 14.5917 12.8964 14.3964C13.0917 14.2012 13.4083 14.2012 13.6036 14.3964L14.1507 14.9436L15.3213 12.9928C15.4633 12.756 15.7705 12.6792 16.0072 12.8213C16.244 12.9633 16.3208 13.2705 16.1787 13.5072Z" fill="#667085"/>
<path d="M14.5 18C16.433 18 18 16.433 18 14.5C18 12.567 16.433 11 14.5 11C12.567 11 11 12.567 11 14.5C11 16.433 12.567 18 14.5 18ZM16.1787 13.5072L14.8435 15.7327C14.5924 16.1511 14.0151 16.2222 13.67 15.8771L12.8964 15.1036C12.7012 14.9083 12.7012 14.5917 12.8964 14.3964C13.0917 14.2012 13.4083 14.2012 13.6036 14.3964L14.1507 14.9436L15.3213 12.9928C15.4633 12.756 15.7705 12.6792 16.0072 12.8213C16.244 12.9633 16.3208 13.2705 16.1787 13.5072Z" fill="url(#paint0_linear_7771_40335)"/>
<path d="M4 3C4 2.44772 4.44772 2 5 2H15C15.5523 2 16 2.44772 16 3V9.5C16 9.77614 15.7761 10 15.5 10C15.2239 10 15 9.77614 15 9.5V3H5V17H8V14.5C8 14.2239 8.22386 14 8.5 14H10V18H5C4.44771 18 4 17.5523 4 17V3Z" fill="#667085"/>
<path d="M4 3C4 2.44772 4.44772 2 5 2H15C15.5523 2 16 2.44772 16 3V9.5C16 9.77614 15.7761 10 15.5 10C15.2239 10 15 9.77614 15 9.5V3H5V17H8V14.5C8 14.2239 8.22386 14 8.5 14H10V18H5C4.44771 18 4 17.5523 4 17V3Z" fill="url(#paint1_linear_7771_40335)"/>
<path d="M6.5 4C6.22386 4 6 4.22386 6 4.5V5.5C6 5.77614 6.22386 6 6.5 6H7.5C7.77614 6 8 5.77614 8 5.5V4.5C8 4.22386 7.77614 4 7.5 4H6.5Z" fill="#667085"/>
<path d="M6.5 4C6.22386 4 6 4.22386 6 4.5V5.5C6 5.77614 6.22386 6 6.5 6H7.5C7.77614 6 8 5.77614 8 5.5V4.5C8 4.22386 7.77614 4 7.5 4H6.5Z" fill="url(#paint2_linear_7771_40335)"/>
<path d="M9.5 4C9.22386 4 9 4.22386 9 4.5V5.5C9 5.77614 9.22386 6 9.5 6H10.5C10.7761 6 11 5.77614 11 5.5V4.5C11 4.22386 10.7761 4 10.5 4H9.5Z" fill="#667085"/>
<path d="M9.5 4C9.22386 4 9 4.22386 9 4.5V5.5C9 5.77614 9.22386 6 9.5 6H10.5C10.7761 6 11 5.77614 11 5.5V4.5C11 4.22386 10.7761 4 10.5 4H9.5Z" fill="url(#paint3_linear_7771_40335)"/>
<path d="M12.5 4C12.2239 4 12 4.22386 12 4.5V5.5C12 5.77614 12.2239 6 12.5 6H13.5C13.7761 6 14 5.77614 14 5.5V4.5C14 4.22386 13.7761 4 13.5 4H12.5Z" fill="#667085"/>
<path d="M12.5 4C12.2239 4 12 4.22386 12 4.5V5.5C12 5.77614 12.2239 6 12.5 6H13.5C13.7761 6 14 5.77614 14 5.5V4.5C14 4.22386 13.7761 4 13.5 4H12.5Z" fill="url(#paint4_linear_7771_40335)"/>
<path d="M6.5 7C6.22386 7 6 7.22386 6 7.5V8.5C6 8.77614 6.22386 9 6.5 9H7.5C7.77614 9 8 8.77614 8 8.5V7.5C8 7.22386 7.77614 7 7.5 7H6.5Z" fill="#667085"/>
<path d="M6.5 7C6.22386 7 6 7.22386 6 7.5V8.5C6 8.77614 6.22386 9 6.5 9H7.5C7.77614 9 8 8.77614 8 8.5V7.5C8 7.22386 7.77614 7 7.5 7H6.5Z" fill="url(#paint5_linear_7771_40335)"/>
<path d="M9.5 7C9.22386 7 9 7.22386 9 7.5V8.5C9 8.77614 9.22386 9 9.5 9H10.5C10.7761 9 11 8.77614 11 8.5V7.5C11 7.22386 10.7761 7 10.5 7H9.5Z" fill="#667085"/>
<path d="M9.5 7C9.22386 7 9 7.22386 9 7.5V8.5C9 8.77614 9.22386 9 9.5 9H10.5C10.7761 9 11 8.77614 11 8.5V7.5C11 7.22386 10.7761 7 10.5 7H9.5Z" fill="url(#paint6_linear_7771_40335)"/>
<path d="M12.5 7C12.2239 7 12 7.22386 12 7.5V8.5C12 8.77614 12.2239 9 12.5 9H13.5C13.7761 9 14 8.77614 14 8.5V7.5C14 7.22386 13.7761 7 13.5 7H12.5Z" fill="#667085"/>
<path d="M12.5 7C12.2239 7 12 7.22386 12 7.5V8.5C12 8.77614 12.2239 9 12.5 9H13.5C13.7761 9 14 8.77614 14 8.5V7.5C14 7.22386 13.7761 7 13.5 7H12.5Z" fill="url(#paint7_linear_7771_40335)"/>
<path d="M6.5 10C6.22386 10 6 10.2239 6 10.5V11.5C6 11.7761 6.22386 12 6.5 12H7.5C7.77614 12 8 11.7761 8 11.5V10.5C8 10.2239 7.77614 10 7.5 10H6.5Z" fill="#667085"/>
<path d="M6.5 10C6.22386 10 6 10.2239 6 10.5V11.5C6 11.7761 6.22386 12 6.5 12H7.5C7.77614 12 8 11.7761 8 11.5V10.5C8 10.2239 7.77614 10 7.5 10H6.5Z" fill="url(#paint8_linear_7771_40335)"/>
<path d="M9.5 10C9.22386 10 9 10.2239 9 10.5V11.5C9 11.7761 9.22386 12 9.5 12H10.5C10.7761 12 11 11.7761 11 11.5V10.5C11 10.2239 10.7761 10 10.5 10H9.5Z" fill="#667085"/>
<path d="M9.5 10C9.22386 10 9 10.2239 9 10.5V11.5C9 11.7761 9.22386 12 9.5 12H10.5C10.7761 12 11 11.7761 11 11.5V10.5C11 10.2239 10.7761 10 10.5 10H9.5Z" fill="url(#paint9_linear_7771_40335)"/>
<defs>
<linearGradient id="paint0_linear_7771_40335" x1="4" y1="2" x2="19.8584" y2="15.8761" gradientUnits="userSpaceOnUse">
<stop stop-color="#72EDF2"/>
<stop offset="1" stop-color="#5151E5"/>
</linearGradient>
<linearGradient id="paint1_linear_7771_40335" x1="4" y1="2" x2="19.8584" y2="15.8761" gradientUnits="userSpaceOnUse">
<stop stop-color="#72EDF2"/>
<stop offset="1" stop-color="#5151E5"/>
</linearGradient>
<linearGradient id="paint2_linear_7771_40335" x1="4" y1="2" x2="19.8584" y2="15.8761" gradientUnits="userSpaceOnUse">
<stop stop-color="#72EDF2"/>
<stop offset="1" stop-color="#5151E5"/>
</linearGradient>
<linearGradient id="paint3_linear_7771_40335" x1="4" y1="2" x2="19.8584" y2="15.8761" gradientUnits="userSpaceOnUse">
<stop stop-color="#72EDF2"/>
<stop offset="1" stop-color="#5151E5"/>
</linearGradient>
<linearGradient id="paint4_linear_7771_40335" x1="4" y1="2" x2="19.8584" y2="15.8761" gradientUnits="userSpaceOnUse">
<stop stop-color="#72EDF2"/>
<stop offset="1" stop-color="#5151E5"/>
</linearGradient>
<linearGradient id="paint5_linear_7771_40335" x1="4" y1="2" x2="19.8584" y2="15.8761" gradientUnits="userSpaceOnUse">
<stop stop-color="#72EDF2"/>
<stop offset="1" stop-color="#5151E5"/>
</linearGradient>
<linearGradient id="paint6_linear_7771_40335" x1="4" y1="2" x2="19.8584" y2="15.8761" gradientUnits="userSpaceOnUse">
<stop stop-color="#72EDF2"/>
<stop offset="1" stop-color="#5151E5"/>
</linearGradient>
<linearGradient id="paint7_linear_7771_40335" x1="4" y1="2" x2="19.8584" y2="15.8761" gradientUnits="userSpaceOnUse">
<stop stop-color="#72EDF2"/>
<stop offset="1" stop-color="#5151E5"/>
</linearGradient>
<linearGradient id="paint8_linear_7771_40335" x1="4" y1="2" x2="19.8584" y2="15.8761" gradientUnits="userSpaceOnUse">
<stop stop-color="#72EDF2"/>
<stop offset="1" stop-color="#5151E5"/>
</linearGradient>
<linearGradient id="paint9_linear_7771_40335" x1="4" y1="2" x2="19.8584" y2="15.8761" gradientUnits="userSpaceOnUse">
<stop stop-color="#72EDF2"/>
<stop offset="1" stop-color="#5151E5"/>
</linearGradient>
</defs>
</svg>
