<svg width="25" height="24" viewBox="0 0 25 24" fill="none" xmlns="http://www.w3.org/2000/svg">
<g id="vuesax/bulk/clipboard-tick">
<g id="clipboard-tick">
<g id="Vector" opacity="0.4">
<path d="M16.74 3.6499H8.25998C5.78998 3.6499 3.78998 5.6599 3.78998 8.1199V17.5299C3.78998 19.9899 5.79998 21.9999 8.25998 21.9999H16.73C19.2 21.9999 21.2 19.9899 21.2 17.5299V8.1199C21.21 5.6499 19.2 3.6499 16.74 3.6499Z" fill="#292D32"/>
<path d="M16.74 3.6499H8.25998C5.78998 3.6499 3.78998 5.6599 3.78998 8.1199V17.5299C3.78998 19.9899 5.79998 21.9999 8.25998 21.9999H16.73C19.2 21.9999 21.2 19.9899 21.2 17.5299V8.1199C21.21 5.6499 19.2 3.6499 16.74 3.6499Z" fill="url(#paint0_linear_6142_82639)"/>
</g>
<g id="Vector_2">
<path d="M14.85 2H10.15C9.11001 2 8.26001 2.84 8.26001 3.88V4.82C8.26001 5.86 9.10001 6.7 10.14 6.7H14.85C15.89 6.7 16.73 5.86 16.73 4.82V3.88C16.74 2.84 15.89 2 14.85 2Z" fill="#292D32"/>
<path d="M14.85 2H10.15C9.11001 2 8.26001 2.84 8.26001 3.88V4.82C8.26001 5.86 9.10001 6.7 10.14 6.7H14.85C15.89 6.7 16.73 5.86 16.73 4.82V3.88C16.74 2.84 15.89 2 14.85 2Z" fill="url(#paint1_linear_6142_82639)"/>
</g>
<g id="Vector_3">
<path d="M11.31 16.9501C11.12 16.9501 10.93 16.8801 10.78 16.7301L9.28 15.2301C8.99 14.9401 8.99 14.4601 9.28 14.1701C9.57 13.8801 10.05 13.8801 10.34 14.1701L11.31 15.1401L14.78 11.6701C15.07 11.3801 15.55 11.3801 15.84 11.6701C16.13 11.9601 16.13 12.4401 15.84 12.7301L11.84 16.7301C11.7 16.8801 11.5 16.9501 11.31 16.9501Z" fill="#292D32"/>
<path d="M11.31 16.9501C11.12 16.9501 10.93 16.8801 10.78 16.7301L9.28 15.2301C8.99 14.9401 8.99 14.4601 9.28 14.1701C9.57 13.8801 10.05 13.8801 10.34 14.1701L11.31 15.1401L14.78 11.6701C15.07 11.3801 15.55 11.3801 15.84 11.6701C16.13 11.9601 16.13 12.4401 15.84 12.7301L11.84 16.7301C11.7 16.8801 11.5 16.9501 11.31 16.9501Z" fill="url(#paint2_linear_6142_82639)"/>
</g>
</g>
</g>
<defs>
<linearGradient id="paint0_linear_6142_82639" x1="21.2" y1="21.9999" x2="21.2" y2="3.6499" gradientUnits="userSpaceOnUse">
<stop stop-color="#9EC2A2"/>
<stop offset="1" stop-color="#C0E3BD"/>
</linearGradient>
<linearGradient id="paint1_linear_6142_82639" x1="16.7301" y1="6.7" x2="16.7301" y2="2" gradientUnits="userSpaceOnUse">
<stop stop-color="#9EC2A2"/>
<stop offset="1" stop-color="#C0E3BD"/>
</linearGradient>
<linearGradient id="paint2_linear_6142_82639" x1="16.0575" y1="16.9501" x2="16.0575" y2="11.4526" gradientUnits="userSpaceOnUse">
<stop stop-color="#9EC2A2"/>
<stop offset="1" stop-color="#C0E3BD"/>
</linearGradient>
</defs>
</svg>
