<svg width="24" height="24" viewBox="0 0 24 24" fill="none" xmlns="http://www.w3.org/2000/svg">
<g opacity="0.4">
<path d="M18.04 13.55C17.62 13.96 17.38 14.55 17.44 15.18C17.53 16.26 18.52 17.05 19.6 17.05H21.5V18.24C21.5 20.31 19.81 22 17.74 22H6.26C4.19 22 2.5 20.31 2.5 18.24V11.51C2.5 9.44001 4.19 7.75 6.26 7.75H17.74C19.81 7.75 21.5 9.44001 21.5 11.51V12.95H19.48C18.92 12.95 18.41 13.17 18.04 13.55Z" fill="#344054"/>
<path d="M18.04 13.55C17.62 13.96 17.38 14.55 17.44 15.18C17.53 16.26 18.52 17.05 19.6 17.05H21.5V18.24C21.5 20.31 19.81 22 17.74 22H6.26C4.19 22 2.5 20.31 2.5 18.24V11.51C2.5 9.44001 4.19 7.75 6.26 7.75H17.74C19.81 7.75 21.5 9.44001 21.5 11.51V12.95H19.48C18.92 12.95 18.41 13.17 18.04 13.55Z" fill="url(#paint0_linear_1254_88350)"/>
<path d="M18.04 13.55C17.62 13.96 17.38 14.55 17.44 15.18C17.53 16.26 18.52 17.05 19.6 17.05H21.5V18.24C21.5 20.31 19.81 22 17.74 22H6.26C4.19 22 2.5 20.31 2.5 18.24V11.51C2.5 9.44001 4.19 7.75 6.26 7.75H17.74C19.81 7.75 21.5 9.44001 21.5 11.51V12.95H19.48C18.92 12.95 18.41 13.17 18.04 13.55Z" fill="url(#paint1_linear_1254_88350)"/>
</g>
<path d="M14.85 3.95012V7.75011H6.26C4.19 7.75011 2.5 9.44012 2.5 11.5101V7.84014C2.5 6.65014 3.23 5.59009 4.34 5.17009L12.28 2.17009C13.52 1.71009 14.85 2.62012 14.85 3.95012Z" fill="#344054"/>
<path d="M14.85 3.95012V7.75011H6.26C4.19 7.75011 2.5 9.44012 2.5 11.5101V7.84014C2.5 6.65014 3.23 5.59009 4.34 5.17009L12.28 2.17009C13.52 1.71009 14.85 2.62012 14.85 3.95012Z" fill="url(#paint2_linear_1254_88350)"/>
<path d="M14.85 3.95012V7.75011H6.26C4.19 7.75011 2.5 9.44012 2.5 11.5101V7.84014C2.5 6.65014 3.23 5.59009 4.34 5.17009L12.28 2.17009C13.52 1.71009 14.85 2.62012 14.85 3.95012Z" fill="url(#paint3_linear_1254_88350)"/>
<path d="M22.56 13.9699V16.03C22.56 16.58 22.12 17.0299 21.56 17.0499H19.6C18.52 17.0499 17.53 16.2599 17.44 15.1799C17.38 14.5499 17.62 13.9599 18.04 13.5499C18.41 13.1699 18.92 12.95 19.48 12.95H21.56C22.12 12.97 22.56 13.4199 22.56 13.9699Z" fill="#344054"/>
<path d="M22.56 13.9699V16.03C22.56 16.58 22.12 17.0299 21.56 17.0499H19.6C18.52 17.0499 17.53 16.2599 17.44 15.1799C17.38 14.5499 17.62 13.9599 18.04 13.5499C18.41 13.1699 18.92 12.95 19.48 12.95H21.56C22.12 12.97 22.56 13.4199 22.56 13.9699Z" fill="url(#paint4_linear_1254_88350)"/>
<path d="M22.56 13.9699V16.03C22.56 16.58 22.12 17.0299 21.56 17.0499H19.6C18.52 17.0499 17.53 16.2599 17.44 15.1799C17.38 14.5499 17.62 13.9599 18.04 13.5499C18.41 13.1699 18.92 12.95 19.48 12.95H21.56C22.12 12.97 22.56 13.4199 22.56 13.9699Z" fill="url(#paint5_linear_1254_88350)"/>
<path d="M14 12.75H7C6.59 12.75 6.25 12.41 6.25 12C6.25 11.59 6.59 11.25 7 11.25H14C14.41 11.25 14.75 11.59 14.75 12C14.75 12.41 14.41 12.75 14 12.75Z" fill="#344054"/>
<path d="M14 12.75H7C6.59 12.75 6.25 12.41 6.25 12C6.25 11.59 6.59 11.25 7 11.25H14C14.41 11.25 14.75 11.59 14.75 12C14.75 12.41 14.41 12.75 14 12.75Z" fill="url(#paint6_linear_1254_88350)"/>
<path d="M14 12.75H7C6.59 12.75 6.25 12.41 6.25 12C6.25 11.59 6.59 11.25 7 11.25H14C14.41 11.25 14.75 11.59 14.75 12C14.75 12.41 14.41 12.75 14 12.75Z" fill="url(#paint7_linear_1254_88350)"/>
<defs>
<linearGradient id="paint0_linear_1254_88350" x1="2.5" y1="7.75" x2="16.18" y2="25.99" gradientUnits="userSpaceOnUse">
<stop stop-color="#72EDF2"/>
<stop offset="1" stop-color="#5151E5"/>
</linearGradient>
<linearGradient id="paint1_linear_1254_88350" x1="2.5" y1="7.75" x2="16.18" y2="25.99" gradientUnits="userSpaceOnUse">
<stop stop-color="#F74FAC"/>
<stop offset="1" stop-color="#FCB24F"/>
</linearGradient>
<linearGradient id="paint2_linear_1254_88350" x1="2.5" y1="2.04932" x2="11.6345" y2="13.9734" gradientUnits="userSpaceOnUse">
<stop stop-color="#72EDF2"/>
<stop offset="1" stop-color="#5151E5"/>
</linearGradient>
<linearGradient id="paint3_linear_1254_88350" x1="2.5" y1="2.04932" x2="11.6345" y2="13.9734" gradientUnits="userSpaceOnUse">
<stop stop-color="#F74FAC"/>
<stop offset="1" stop-color="#FCB24F"/>
</linearGradient>
<linearGradient id="paint4_linear_1254_88350" x1="17.4309" y1="12.95" x2="21.4302" y2="17.9531" gradientUnits="userSpaceOnUse">
<stop stop-color="#72EDF2"/>
<stop offset="1" stop-color="#5151E5"/>
</linearGradient>
<linearGradient id="paint5_linear_1254_88350" x1="17.4309" y1="12.95" x2="21.4302" y2="17.9531" gradientUnits="userSpaceOnUse">
<stop stop-color="#F74FAC"/>
<stop offset="1" stop-color="#FCB24F"/>
</linearGradient>
<linearGradient id="paint6_linear_1254_88350" x1="6.25" y1="11.25" x2="6.76342" y2="14.1594" gradientUnits="userSpaceOnUse">
<stop stop-color="#72EDF2"/>
<stop offset="1" stop-color="#5151E5"/>
</linearGradient>
<linearGradient id="paint7_linear_1254_88350" x1="6.25" y1="11.25" x2="6.76342" y2="14.1594" gradientUnits="userSpaceOnUse">
<stop stop-color="#F74FAC"/>
<stop offset="1" stop-color="#FCB24F"/>
</linearGradient>
</defs>
</svg>
