<svg width="16" height="17" viewBox="0 0 16 17" fill="none" xmlns="http://www.w3.org/2000/svg">
<g id="folder">
<path id="Union" d="M0.539556 4.37024L0.5 3.5C0.5 2.39543 1.39543 1.5 2.5 1.5H6.17157C6.70201 1.5 7.21071 1.71071 7.58579 2.08579L8.41421 2.91421C8.78929 3.28929 9.29799 3.5 9.82843 3.5H13.8099C14.986 3.5 15.9082 4.50984 15.8017 5.68107L15.1654 12.6811C15.0717 13.7112 14.208 14.5 13.1736 14.5H2.82644C1.79203 14.5 0.928302 13.7112 0.834651 12.6811L0.198287 5.68107C0.154232 5.19647 0.286283 4.73949 0.539556 4.37024ZM2.19007 4.5C1.60204 4.5 1.14094 5.00492 1.19418 5.59054L1.83054 12.5905C1.87737 13.1056 2.30923 13.5 2.82644 13.5H13.1736C13.6908 13.5 14.1226 13.1056 14.1695 12.5905L14.8058 5.59054C14.8591 5.00492 14.398 4.5 13.8099 4.5H2.19007ZM6.87868 2.79289C6.69114 2.60536 6.43679 2.5 6.17157 2.5H2.5C1.95402 2.5 1.51024 2.93755 1.50017 3.48112L1.50647 3.61964C1.71927 3.54231 1.94936 3.5 2.19007 3.5H7.58579L6.87868 2.79289Z" fill="#1D2939"/>
</g>
</svg>
