<svg width="20" height="20" viewBox="0 0 20 20" fill="none" xmlns="http://www.w3.org/2000/svg">
<g id="hdd-network">
<g id="Union">
<path d="M5.625 6.25C5.97018 6.25 6.25 5.97018 6.25 5.625C6.25 5.27982 5.97018 5 5.625 5C5.27982 5 5 5.27982 5 5.625C5 5.97018 5.27982 6.25 5.625 6.25Z" fill="black"/>
<path d="M5.625 6.25C5.97018 6.25 6.25 5.97018 6.25 5.625C6.25 5.27982 5.97018 5 5.625 5C5.27982 5 5 5.27982 5 5.625C5 5.97018 5.27982 6.25 5.625 6.25Z" fill="url(#paint0_linear_7783_45124)"/>
<path d="M3.75 5.625C3.75 5.97018 3.47018 6.25 3.125 6.25C2.77982 6.25 2.5 5.97018 2.5 5.625C2.5 5.27982 2.77982 5 3.125 5C3.47018 5 3.75 5.27982 3.75 5.625Z" fill="black"/>
<path d="M3.75 5.625C3.75 5.97018 3.47018 6.25 3.125 6.25C2.77982 6.25 2.5 5.97018 2.5 5.625C2.5 5.27982 2.77982 5 3.125 5C3.47018 5 3.75 5.27982 3.75 5.625Z" fill="url(#paint1_linear_7783_45124)"/>
<path d="M0 5C0 3.61929 1.11929 2.5 2.5 2.5H17.5C18.8807 2.5 20 3.61929 20 5V6.25C20 7.63071 18.8807 8.75 17.5 8.75H10.625V12.5C11.6605 12.5 12.5 13.3395 12.5 14.375H19.375C19.7202 14.375 20 14.6548 20 15C20 15.3452 19.7202 15.625 19.375 15.625H12.5C12.5 16.6605 11.6605 17.5 10.625 17.5H9.375C8.33947 17.5 7.5 16.6605 7.5 15.625H0.625C0.279822 15.625 0 15.3452 0 15C0 14.6548 0.279822 14.375 0.625 14.375H7.5C7.5 13.3395 8.33947 12.5 9.375 12.5V8.75H2.5C1.11929 8.75 0 7.63071 0 6.25V5ZM1.25 5V6.25C1.25 6.94036 1.80964 7.5 2.5 7.5H17.5C18.1904 7.5 18.75 6.94036 18.75 6.25V5C18.75 4.30964 18.1904 3.75 17.5 3.75H2.5C1.80964 3.75 1.25 4.30964 1.25 5ZM8.75 14.375V15.625C8.75 15.9702 9.02982 16.25 9.375 16.25H10.625C10.9702 16.25 11.25 15.9702 11.25 15.625V14.375C11.25 14.0298 10.9702 13.75 10.625 13.75H9.375C9.02982 13.75 8.75 14.0298 8.75 14.375Z" fill="black"/>
<path d="M0 5C0 3.61929 1.11929 2.5 2.5 2.5H17.5C18.8807 2.5 20 3.61929 20 5V6.25C20 7.63071 18.8807 8.75 17.5 8.75H10.625V12.5C11.6605 12.5 12.5 13.3395 12.5 14.375H19.375C19.7202 14.375 20 14.6548 20 15C20 15.3452 19.7202 15.625 19.375 15.625H12.5C12.5 16.6605 11.6605 17.5 10.625 17.5H9.375C8.33947 17.5 7.5 16.6605 7.5 15.625H0.625C0.279822 15.625 0 15.3452 0 15C0 14.6548 0.279822 14.375 0.625 14.375H7.5C7.5 13.3395 8.33947 12.5 9.375 12.5V8.75H2.5C1.11929 8.75 0 7.63071 0 6.25V5ZM1.25 5V6.25C1.25 6.94036 1.80964 7.5 2.5 7.5H17.5C18.1904 7.5 18.75 6.94036 18.75 6.25V5C18.75 4.30964 18.1904 3.75 17.5 3.75H2.5C1.80964 3.75 1.25 4.30964 1.25 5ZM8.75 14.375V15.625C8.75 15.9702 9.02982 16.25 9.375 16.25H10.625C10.9702 16.25 11.25 15.9702 11.25 15.625V14.375C11.25 14.0298 10.9702 13.75 10.625 13.75H9.375C9.02982 13.75 8.75 14.0298 8.75 14.375Z" fill="url(#paint2_linear_7783_45124)"/>
</g>
</g>
<defs>
<linearGradient id="paint0_linear_7783_45124" x1="10" y1="17.5" x2="10" y2="2.5" gradientUnits="userSpaceOnUse">
<stop stop-color="#84FAB0"/>
<stop offset="1" stop-color="#ACCBEE"/>
</linearGradient>
<linearGradient id="paint1_linear_7783_45124" x1="10" y1="17.5" x2="10" y2="2.5" gradientUnits="userSpaceOnUse">
<stop stop-color="#84FAB0"/>
<stop offset="1" stop-color="#ACCBEE"/>
</linearGradient>
<linearGradient id="paint2_linear_7783_45124" x1="10" y1="17.5" x2="10" y2="2.5" gradientUnits="userSpaceOnUse">
<stop stop-color="#84FAB0"/>
<stop offset="1" stop-color="#ACCBEE"/>
</linearGradient>
</defs>
</svg>
