<svg width="20" height="20" viewBox="0 0 20 20" fill="none" xmlns="http://www.w3.org/2000/svg">
<g id="icon-help-circle" clip-path="url(#clip0_1284_9174)">
<g id="Shape">
<path d="M10.2154 6.68687C9.82742 6.62033 9.42846 6.69323 9.08912 6.89266C8.74979 7.09209 8.49198 7.40518 8.36137 7.77647C8.20864 8.21063 7.73288 8.43878 7.29872 8.28605C6.86457 8.13332 6.63642 7.65756 6.78915 7.2234C7.05037 6.48081 7.56598 5.85463 8.24465 5.45577C8.92332 5.05691 9.72125 4.91111 10.4971 5.04419C11.273 5.17727 11.9767 5.58065 12.4837 6.18288C12.9905 6.78498 13.268 7.547 13.2669 8.33403C13.2666 9.60933 12.321 10.4515 11.6458 10.9016C11.2828 11.1437 10.9257 11.3216 10.6627 11.4385C10.53 11.4975 10.4182 11.5423 10.3377 11.5729C10.2973 11.5883 10.2646 11.6002 10.2408 11.6087L10.2119 11.6188L10.2027 11.622L10.1994 11.6231L10.1982 11.6235C10.1982 11.6235 10.1971 11.6238 9.93359 10.8333L10.1971 11.6238C9.7605 11.7694 9.28856 11.5334 9.14302 11.0968C8.99758 10.6605 9.23314 10.1889 9.6692 10.043L9.68249 10.0383C9.69531 10.0338 9.71632 10.0261 9.74435 10.0155C9.80054 9.99406 9.8841 9.96069 9.98577 9.91551C10.1915 9.82409 10.4594 9.68954 10.7213 9.51489C11.296 9.13178 11.6003 8.72421 11.6003 8.33327L11.6003 8.33203C11.6008 7.93843 11.4621 7.55732 11.2086 7.25621C10.9552 6.9551 10.6033 6.75341 10.2154 6.68687Z" fill="#667085"/>
<path d="M10.0002 13.3333C9.53992 13.3333 9.16683 13.7063 9.16683 14.1666C9.16683 14.6268 9.53992 14.9999 10.0002 14.9999H10.0085C10.4687 14.9999 10.8418 14.6268 10.8418 14.1666C10.8418 13.7063 10.4687 13.3333 10.0085 13.3333H10.0002Z" fill="#667085"/>
<path fill-rule="evenodd" clip-rule="evenodd" d="M0.833496 9.99992C0.833496 4.93731 4.93755 0.833252 10.0002 0.833252C15.0628 0.833252 19.1668 4.93731 19.1668 9.99992C19.1668 15.0625 15.0628 19.1666 10.0002 19.1666C4.93755 19.1666 0.833496 15.0625 0.833496 9.99992ZM10.0002 2.49992C5.85803 2.49992 2.50016 5.85778 2.50016 9.99992C2.50016 14.1421 5.85803 17.4999 10.0002 17.4999C14.1423 17.4999 17.5002 14.1421 17.5002 9.99992C17.5002 5.85778 14.1423 2.49992 10.0002 2.49992Z" fill="#667085"/>
</g>
</g>
<defs>
<clipPath id="clip0_1284_9174">
<rect width="20" height="20" fill="white"/>
</clipPath>
</defs>
</svg>
