<svg width="24" height="24" viewBox="0 0 24 24" fill="none" xmlns="http://www.w3.org/2000/svg">
<g opacity="0.4">
<path d="M21.6601 10.44L20.6801 14.62C19.8401 18.23 18.1801 19.69 15.0601 19.39C14.5601 19.35 14.0201 19.26 13.4401 19.12L11.7601 18.72C7.59006 17.73 6.30006 15.67 7.28006 11.49L8.26006 7.30001C8.46006 6.45001 8.70006 5.71001 9.00006 5.10001C10.1701 2.68001 12.1601 2.03001 15.5001 2.82001L17.1701 3.21001C21.3601 4.19001 22.6401 6.26001 21.6601 10.44Z" fill="#344054"/>
<path d="M21.6601 10.44L20.6801 14.62C19.8401 18.23 18.1801 19.69 15.0601 19.39C14.5601 19.35 14.0201 19.26 13.4401 19.12L11.7601 18.72C7.59006 17.73 6.30006 15.67 7.28006 11.49L8.26006 7.30001C8.46006 6.45001 8.70006 5.71001 9.00006 5.10001C10.1701 2.68001 12.1601 2.03001 15.5001 2.82001L17.1701 3.21001C21.3601 4.19001 22.6401 6.26001 21.6601 10.44Z" fill="url(#paint0_linear_1254_88365)"/>
<path d="M21.6601 10.44L20.6801 14.62C19.8401 18.23 18.1801 19.69 15.0601 19.39C14.5601 19.35 14.0201 19.26 13.4401 19.12L11.7601 18.72C7.59006 17.73 6.30006 15.67 7.28006 11.49L8.26006 7.30001C8.46006 6.45001 8.70006 5.71001 9.00006 5.10001C10.1701 2.68001 12.1601 2.03001 15.5001 2.82001L17.1701 3.21001C21.3601 4.19001 22.6401 6.26001 21.6601 10.44Z" fill="url(#paint1_linear_1254_88365)"/>
<path d="M21.6601 10.44L20.6801 14.62C19.8401 18.23 18.1801 19.69 15.0601 19.39C14.5601 19.35 14.0201 19.26 13.4401 19.12L11.7601 18.72C7.59006 17.73 6.30006 15.67 7.28006 11.49L8.26006 7.30001C8.46006 6.45001 8.70006 5.71001 9.00006 5.10001C10.1701 2.68001 12.1601 2.03001 15.5001 2.82001L17.1701 3.21001C21.3601 4.19001 22.6401 6.26001 21.6601 10.44Z" fill="url(#paint2_linear_1254_88365)"/>
<path d="M21.6601 10.44L20.6801 14.62C19.8401 18.23 18.1801 19.69 15.0601 19.39C14.5601 19.35 14.0201 19.26 13.4401 19.12L11.7601 18.72C7.59006 17.73 6.30006 15.67 7.28006 11.49L8.26006 7.30001C8.46006 6.45001 8.70006 5.71001 9.00006 5.10001C10.1701 2.68001 12.1601 2.03001 15.5001 2.82001L17.1701 3.21001C21.3601 4.19001 22.6401 6.26001 21.6601 10.44Z" fill="url(#paint3_linear_1254_88365)"/>
</g>
<path d="M15.06 19.3901C14.44 19.8101 13.66 20.1601 12.71 20.4701L11.13 20.9901C7.15998 22.2701 5.06997 21.2001 3.77997 17.2301L2.49997 13.2801C1.21997 9.3101 2.27997 7.2101 6.24997 5.9301L7.82997 5.4101C8.23997 5.2801 8.62997 5.1701 8.99997 5.1001C8.69997 5.7101 8.45997 6.4501 8.25997 7.3001L7.27997 11.4901C6.29997 15.6701 7.58998 17.7301 11.76 18.7201L13.44 19.1201C14.02 19.2601 14.56 19.3501 15.06 19.3901Z" fill="#344054"/>
<path d="M15.06 19.3901C14.44 19.8101 13.66 20.1601 12.71 20.4701L11.13 20.9901C7.15998 22.2701 5.06997 21.2001 3.77997 17.2301L2.49997 13.2801C1.21997 9.3101 2.27997 7.2101 6.24997 5.9301L7.82997 5.4101C8.23997 5.2801 8.62997 5.1701 8.99997 5.1001C8.69997 5.7101 8.45997 6.4501 8.25997 7.3001L7.27997 11.4901C6.29997 15.6701 7.58998 17.7301 11.76 18.7201L13.44 19.1201C14.02 19.2601 14.56 19.3501 15.06 19.3901Z" fill="url(#paint4_linear_1254_88365)"/>
<path d="M15.06 19.3901C14.44 19.8101 13.66 20.1601 12.71 20.4701L11.13 20.9901C7.15998 22.2701 5.06997 21.2001 3.77997 17.2301L2.49997 13.2801C1.21997 9.3101 2.27997 7.2101 6.24997 5.9301L7.82997 5.4101C8.23997 5.2801 8.62997 5.1701 8.99997 5.1001C8.69997 5.7101 8.45997 6.4501 8.25997 7.3001L7.27997 11.4901C6.29997 15.6701 7.58998 17.7301 11.76 18.7201L13.44 19.1201C14.02 19.2601 14.56 19.3501 15.06 19.3901Z" fill="url(#paint5_linear_1254_88365)"/>
<path d="M15.06 19.3901C14.44 19.8101 13.66 20.1601 12.71 20.4701L11.13 20.9901C7.15998 22.2701 5.06997 21.2001 3.77997 17.2301L2.49997 13.2801C1.21997 9.3101 2.27997 7.2101 6.24997 5.9301L7.82997 5.4101C8.23997 5.2801 8.62997 5.1701 8.99997 5.1001C8.69997 5.7101 8.45997 6.4501 8.25997 7.3001L7.27997 11.4901C6.29997 15.6701 7.58998 17.7301 11.76 18.7201L13.44 19.1201C14.02 19.2601 14.56 19.3501 15.06 19.3901Z" fill="url(#paint6_linear_1254_88365)"/>
<path d="M15.06 19.3901C14.44 19.8101 13.66 20.1601 12.71 20.4701L11.13 20.9901C7.15998 22.2701 5.06997 21.2001 3.77997 17.2301L2.49997 13.2801C1.21997 9.3101 2.27997 7.2101 6.24997 5.9301L7.82997 5.4101C8.23997 5.2801 8.62997 5.1701 8.99997 5.1001C8.69997 5.7101 8.45997 6.4501 8.25997 7.3001L7.27997 11.4901C6.29997 15.6701 7.58998 17.7301 11.76 18.7201L13.44 19.1201C14.02 19.2601 14.56 19.3501 15.06 19.3901Z" fill="url(#paint7_linear_1254_88365)"/>
<path d="M17.49 10.51C17.43 10.51 17.37 10.5 17.3 10.49L12.45 9.26002C12.05 9.16002 11.81 8.75002 11.91 8.35002C12.01 7.95002 12.42 7.71002 12.82 7.81002L17.67 9.04002C18.07 9.14002 18.31 9.55002 18.21 9.95002C18.13 10.28 17.82 10.51 17.49 10.51Z" fill="#344054"/>
<path d="M17.49 10.51C17.43 10.51 17.37 10.5 17.3 10.49L12.45 9.26002C12.05 9.16002 11.81 8.75002 11.91 8.35002C12.01 7.95002 12.42 7.71002 12.82 7.81002L17.67 9.04002C18.07 9.14002 18.31 9.55002 18.21 9.95002C18.13 10.28 17.82 10.51 17.49 10.51Z" fill="url(#paint8_linear_1254_88365)"/>
<path d="M17.49 10.51C17.43 10.51 17.37 10.5 17.3 10.49L12.45 9.26002C12.05 9.16002 11.81 8.75002 11.91 8.35002C12.01 7.95002 12.42 7.71002 12.82 7.81002L17.67 9.04002C18.07 9.14002 18.31 9.55002 18.21 9.95002C18.13 10.28 17.82 10.51 17.49 10.51Z" fill="url(#paint9_linear_1254_88365)"/>
<path d="M17.49 10.51C17.43 10.51 17.37 10.5 17.3 10.49L12.45 9.26002C12.05 9.16002 11.81 8.75002 11.91 8.35002C12.01 7.95002 12.42 7.71002 12.82 7.81002L17.67 9.04002C18.07 9.14002 18.31 9.55002 18.21 9.95002C18.13 10.28 17.82 10.51 17.49 10.51Z" fill="url(#paint10_linear_1254_88365)"/>
<path d="M17.49 10.51C17.43 10.51 17.37 10.5 17.3 10.49L12.45 9.26002C12.05 9.16002 11.81 8.75002 11.91 8.35002C12.01 7.95002 12.42 7.71002 12.82 7.81002L17.67 9.04002C18.07 9.14002 18.31 9.55002 18.21 9.95002C18.13 10.28 17.82 10.51 17.49 10.51Z" fill="url(#paint11_linear_1254_88365)"/>
<path d="M14.56 13.8899C14.5 13.8899 14.44 13.8799 14.37 13.8699L11.46 13.1299C11.06 13.0299 10.82 12.6199 10.92 12.2199C11.02 11.8199 11.43 11.5799 11.83 11.6799L14.74 12.4199C15.14 12.5199 15.38 12.9299 15.28 13.3299C15.2 13.6699 14.9 13.8899 14.56 13.8899Z" fill="#344054"/>
<path d="M14.56 13.8899C14.5 13.8899 14.44 13.8799 14.37 13.8699L11.46 13.1299C11.06 13.0299 10.82 12.6199 10.92 12.2199C11.02 11.8199 11.43 11.5799 11.83 11.6799L14.74 12.4199C15.14 12.5199 15.38 12.9299 15.28 13.3299C15.2 13.6699 14.9 13.8899 14.56 13.8899Z" fill="url(#paint12_linear_1254_88365)"/>
<path d="M14.56 13.8899C14.5 13.8899 14.44 13.8799 14.37 13.8699L11.46 13.1299C11.06 13.0299 10.82 12.6199 10.92 12.2199C11.02 11.8199 11.43 11.5799 11.83 11.6799L14.74 12.4199C15.14 12.5199 15.38 12.9299 15.28 13.3299C15.2 13.6699 14.9 13.8899 14.56 13.8899Z" fill="url(#paint13_linear_1254_88365)"/>
<path d="M14.56 13.8899C14.5 13.8899 14.44 13.8799 14.37 13.8699L11.46 13.1299C11.06 13.0299 10.82 12.6199 10.92 12.2199C11.02 11.8199 11.43 11.5799 11.83 11.6799L14.74 12.4199C15.14 12.5199 15.38 12.9299 15.28 13.3299C15.2 13.6699 14.9 13.8899 14.56 13.8899Z" fill="url(#paint14_linear_1254_88365)"/>
<defs>
<linearGradient id="paint0_linear_1254_88365" x1="14.4705" y1="19.4281" x2="14.4705" y2="2.50147" gradientUnits="userSpaceOnUse">
<stop stop-color="#84FAB0"/>
<stop offset="1" stop-color="#ACCBEE"/>
</linearGradient>
<linearGradient id="paint1_linear_1254_88365" x1="6.96839" y1="19.428" x2="23.7728" y2="4.53254" gradientUnits="userSpaceOnUse">
<stop stop-color="#4A879A"/>
<stop offset="1" stop-color="#C5EDF5"/>
</linearGradient>
<linearGradient id="paint2_linear_1254_88365" x1="21.9724" y1="19.4281" x2="21.9724" y2="2.50146" gradientUnits="userSpaceOnUse">
<stop stop-color="#6A85B6"/>
<stop offset="1" stop-color="#BAC8E0"/>
</linearGradient>
<linearGradient id="paint3_linear_1254_88365" x1="14.4705" y1="19.4281" x2="14.4705" y2="2.50147" gradientUnits="userSpaceOnUse">
<stop stop-color="#84FAB0"/>
<stop offset="1" stop-color="#ACCBEE"/>
</linearGradient>
<linearGradient id="paint4_linear_1254_88365" x1="8.52297" y1="21.5024" x2="8.52297" y2="5.1001" gradientUnits="userSpaceOnUse">
<stop stop-color="#84FAB0"/>
<stop offset="1" stop-color="#ACCBEE"/>
</linearGradient>
<linearGradient id="paint5_linear_1254_88365" x1="1.98576" y1="21.5023" x2="17.9751" y2="8.75736" gradientUnits="userSpaceOnUse">
<stop stop-color="#4A879A"/>
<stop offset="1" stop-color="#C5EDF5"/>
</linearGradient>
<linearGradient id="paint6_linear_1254_88365" x1="15.06" y1="21.5024" x2="15.06" y2="5.1001" gradientUnits="userSpaceOnUse">
<stop stop-color="#6A85B6"/>
<stop offset="1" stop-color="#BAC8E0"/>
</linearGradient>
<linearGradient id="paint7_linear_1254_88365" x1="8.52297" y1="21.5024" x2="8.52297" y2="5.1001" gradientUnits="userSpaceOnUse">
<stop stop-color="#84FAB0"/>
<stop offset="1" stop-color="#ACCBEE"/>
</linearGradient>
<linearGradient id="paint8_linear_1254_88365" x1="15.06" y1="10.51" x2="15.06" y2="7.78735" gradientUnits="userSpaceOnUse">
<stop stop-color="#84FAB0"/>
<stop offset="1" stop-color="#ACCBEE"/>
</linearGradient>
<linearGradient id="paint9_linear_1254_88365" x1="11.8872" y1="10.51" x2="13.8604" y2="5.91132" gradientUnits="userSpaceOnUse">
<stop stop-color="#4A879A"/>
<stop offset="1" stop-color="#C5EDF5"/>
</linearGradient>
<linearGradient id="paint10_linear_1254_88365" x1="18.2327" y1="10.51" x2="18.2327" y2="7.78735" gradientUnits="userSpaceOnUse">
<stop stop-color="#6A85B6"/>
<stop offset="1" stop-color="#BAC8E0"/>
</linearGradient>
<linearGradient id="paint11_linear_1254_88365" x1="15.06" y1="10.51" x2="15.06" y2="7.78735" gradientUnits="userSpaceOnUse">
<stop stop-color="#84FAB0"/>
<stop offset="1" stop-color="#ACCBEE"/>
</linearGradient>
<linearGradient id="paint12_linear_1254_88365" x1="10.8973" y1="13.8899" x2="12.6979" y2="10.3371" gradientUnits="userSpaceOnUse">
<stop stop-color="#4A879A"/>
<stop offset="1" stop-color="#C5EDF5"/>
</linearGradient>
<linearGradient id="paint13_linear_1254_88365" x1="15.3027" y1="13.8899" x2="15.3027" y2="11.6572" gradientUnits="userSpaceOnUse">
<stop stop-color="#6A85B6"/>
<stop offset="1" stop-color="#BAC8E0"/>
</linearGradient>
<linearGradient id="paint14_linear_1254_88365" x1="13.1" y1="13.8899" x2="13.1" y2="11.6572" gradientUnits="userSpaceOnUse">
<stop stop-color="#84FAB0"/>
<stop offset="1" stop-color="#ACCBEE"/>
</linearGradient>
</defs>
</svg>
