<svg width="20" height="20" viewBox="0 0 20 20" fill="none" xmlns="http://www.w3.org/2000/svg">
<g id="link-45deg">
<g id="Vector">
<path d="M5.89369 8.17805L4.17899 9.89275C2.71453 11.3572 2.71453 13.7316 4.17899 15.1961C5.64346 16.6605 8.01783 16.6605 9.48229 15.1961L11.7678 12.9105C13.2323 11.4461 13.2323 9.07169 11.7678 7.60722C11.4579 7.2973 11.1072 7.05297 10.7331 6.87422L10.0001 7.60722C9.92384 7.68344 9.85952 7.76706 9.8071 7.85576C10.2014 7.96874 10.5734 8.18052 10.8839 8.4911C11.8603 9.46741 11.8603 11.0503 10.8839 12.0266L8.59841 14.3122C7.6221 15.2885 6.03919 15.2885 5.06288 14.3122C4.08657 13.3359 4.08657 11.7529 5.06288 10.7766L6.05363 9.78588C5.91339 9.26073 5.86008 8.71719 5.89369 8.17805Z" fill="#3366CC"/>
<path d="M8.23229 5.83945C6.76783 7.30392 6.76783 9.67829 8.23229 11.1428C8.54222 11.4527 8.89289 11.697 9.26706 11.8758L10.2366 10.9063C9.82613 10.7967 9.43817 10.5809 9.11618 10.2589C8.13987 9.28256 8.13987 7.69965 9.11618 6.72334L11.4017 4.4378C12.378 3.46149 13.9609 3.46149 14.9372 4.4378C15.9136 5.41411 15.9136 6.99702 14.9372 7.97334L13.9465 8.96409C14.0867 9.48925 14.14 10.0328 14.1064 10.5719L15.8211 8.85722C17.2856 7.39275 17.2856 5.01838 15.8211 3.55392C14.3567 2.08945 11.9823 2.08945 10.5178 3.55392L8.23229 5.83945Z" fill="#3366CC"/>
</g>
</g>
</svg>
