<svg width="52" height="52" viewBox="0 0 52 52" fill="none" xmlns="http://www.w3.org/2000/svg">
<rect x="2" y="2" width="48" height="48" rx="4" fill="white"/>
<rect x="2" y="2" width="48" height="48" rx="4" fill="url(#paint0_radial_7761_28322)"/>
<rect x="1" y="1" width="50" height="50" rx="5" stroke="url(#paint1_radial_7761_28322)" stroke-opacity="0.25" stroke-width="2"/>
<path d="M16.5 21L24.6649 26.7154C25.3261 27.1783 25.6567 27.4097 26.0163 27.4993C26.3339 27.5785 26.6661 27.5785 26.9837 27.4993C27.3433 27.4097 27.6739 27.1783 28.3351 26.7154L36.5 21M21.3 34H31.7C33.3802 34 34.2202 34 34.862 33.673C35.4265 33.3854 35.8854 32.9265 36.173 32.362C36.5 31.7202 36.5 30.8802 36.5 29.2V22.8C36.5 21.1198 36.5 20.2798 36.173 19.638C35.8854 19.0735 35.4265 18.6146 34.862 18.327C34.2202 18 33.3802 18 31.7 18H21.3C19.6198 18 18.7798 18 18.138 18.327C17.5735 18.6146 17.1146 19.0735 16.827 19.638C16.5 20.2798 16.5 21.1198 16.5 22.8V29.2C16.5 30.8802 16.5 31.7202 16.827 32.362C17.1146 32.9265 17.5735 33.3854 18.138 33.673C18.7798 34 19.6198 34 21.3 34Z" stroke="white" stroke-width="2" stroke-linecap="round" stroke-linejoin="round"/>
<defs>
<radialGradient id="paint0_radial_7761_28322" cx="0" cy="0" r="1" gradientUnits="userSpaceOnUse" gradientTransform="translate(1.40676 3.32231) rotate(42.9555) scale(60.9904 863.324)">
<stop stop-color="#1AB3FF"/>
<stop offset="1" stop-color="#FFB258"/>
</radialGradient>
<radialGradient id="paint1_radial_7761_28322" cx="0" cy="0" r="1" gradientUnits="userSpaceOnUse" gradientTransform="translate(1.40676 3.32231) rotate(42.9555) scale(60.9904 863.324)">
<stop stop-color="#1AB3FF"/>
<stop offset="1" stop-color="#FFB258"/>
</radialGradient>
</defs>
</svg>
