<svg width="20" height="20" viewBox="0 0 20 20" fill="none" xmlns="http://www.w3.org/2000/svg">
<g opacity="0.4">
<path d="M14.19 0H5.81C2.17 0 0 2.17 0 5.81V14.19C0 17.83 2.17 20 5.81 20H14.19C17.83 20 20 17.83 20 14.19V5.81C20 2.17 17.83 0 14.19 0Z" fill="#344054"/>
<path d="M14.19 0H5.81C2.17 0 0 2.17 0 5.81V14.19C0 17.83 2.17 20 5.81 20H14.19C17.83 20 20 17.83 20 14.19V5.81C20 2.17 17.83 0 14.19 0Z" fill="url(#paint0_linear_1251_91988)"/>
</g>
<path d="M16.31 6.87012C16.31 7.28012 15.98 7.62012 15.56 7.62012H10.31C9.9 7.62012 9.56 7.28012 9.56 6.87012C9.56 6.46012 9.9 6.12012 10.31 6.12012H15.56C15.98 6.12012 16.31 6.46012 16.31 6.87012Z" fill="#344054"/>
<path d="M16.31 6.87012C16.31 7.28012 15.98 7.62012 15.56 7.62012H10.31C9.9 7.62012 9.56 7.28012 9.56 6.87012C9.56 6.46012 9.9 6.12012 10.31 6.12012H15.56C15.98 6.12012 16.31 6.46012 16.31 6.87012Z" fill="url(#paint1_linear_1251_91988)"/>
<path d="M7.97 5.90006L5.72 8.15006C5.57 8.30006 5.38 8.37006 5.19 8.37006C5 8.37006 4.8 8.30006 4.66 8.15006L3.91 7.40006C3.61 7.11006 3.61 6.63006 3.91 6.34006C4.2 6.05006 4.67 6.05006 4.97 6.34006L5.19 6.56006L6.91 4.84006C7.2 4.55006 7.67 4.55006 7.97 4.84006C8.26 5.13006 8.26 5.61006 7.97 5.90006Z" fill="#344054"/>
<path d="M7.97 5.90006L5.72 8.15006C5.57 8.30006 5.38 8.37006 5.19 8.37006C5 8.37006 4.8 8.30006 4.66 8.15006L3.91 7.40006C3.61 7.11006 3.61 6.63006 3.91 6.34006C4.2 6.05006 4.67 6.05006 4.97 6.34006L5.19 6.56006L6.91 4.84006C7.2 4.55006 7.67 4.55006 7.97 4.84006C8.26 5.13006 8.26 5.61006 7.97 5.90006Z" fill="url(#paint2_linear_1251_91988)"/>
<path d="M16.31 13.8701C16.31 14.2801 15.98 14.6201 15.56 14.6201H10.31C9.9 14.6201 9.56 14.2801 9.56 13.8701C9.56 13.4601 9.9 13.1201 10.31 13.1201H15.56C15.98 13.1201 16.31 13.4601 16.31 13.8701Z" fill="#344054"/>
<path d="M16.31 13.8701C16.31 14.2801 15.98 14.6201 15.56 14.6201H10.31C9.9 14.6201 9.56 14.2801 9.56 13.8701C9.56 13.4601 9.9 13.1201 10.31 13.1201H15.56C15.98 13.1201 16.31 13.4601 16.31 13.8701Z" fill="url(#paint3_linear_1251_91988)"/>
<path d="M7.97 12.9001L5.72 15.1501C5.57 15.3001 5.38 15.3701 5.19 15.3701C5 15.3701 4.8 15.3001 4.66 15.1501L3.91 14.4001C3.61 14.1101 3.61 13.6301 3.91 13.3401C4.2 13.0501 4.67 13.0501 4.97 13.3401L5.19 13.5601L6.91 11.8401C7.2 11.5501 7.67 11.5501 7.97 11.8401C8.26 12.1301 8.26 12.6101 7.97 12.9001Z" fill="#344054"/>
<path d="M7.97 12.9001L5.72 15.1501C5.57 15.3001 5.38 15.3701 5.19 15.3701C5 15.3701 4.8 15.3001 4.66 15.1501L3.91 14.4001C3.61 14.1101 3.61 13.6301 3.91 13.3401C4.2 13.0501 4.67 13.0501 4.97 13.3401L5.19 13.5601L6.91 11.8401C7.2 11.5501 7.67 11.5501 7.97 11.8401C8.26 12.1301 8.26 12.6101 7.97 12.9001Z" fill="url(#paint4_linear_1251_91988)"/>
<defs>
<linearGradient id="paint0_linear_1251_91988" x1="0" y1="0" x2="20" y2="20" gradientUnits="userSpaceOnUse">
<stop stop-color="#FFD3A5"/>
<stop offset="1" stop-color="#FD6585"/>
</linearGradient>
<linearGradient id="paint1_linear_1251_91988" x1="9.56" y1="6.12012" x2="10.1953" y2="8.97894" gradientUnits="userSpaceOnUse">
<stop stop-color="#FFD3A5"/>
<stop offset="1" stop-color="#FD6585"/>
</linearGradient>
<linearGradient id="paint2_linear_1251_91988" x1="3.685" y1="4.62256" x2="7.37025" y2="9.05027" gradientUnits="userSpaceOnUse">
<stop stop-color="#FFD3A5"/>
<stop offset="1" stop-color="#FD6585"/>
</linearGradient>
<linearGradient id="paint3_linear_1251_91988" x1="9.56" y1="13.1201" x2="10.1953" y2="15.9789" gradientUnits="userSpaceOnUse">
<stop stop-color="#FFD3A5"/>
<stop offset="1" stop-color="#FD6585"/>
</linearGradient>
<linearGradient id="paint4_linear_1251_91988" x1="3.685" y1="11.6226" x2="7.37025" y2="16.0503" gradientUnits="userSpaceOnUse">
<stop stop-color="#FFD3A5"/>
<stop offset="1" stop-color="#FD6585"/>
</linearGradient>
</defs>
</svg>
