<svg width="56" height="56" viewBox="0 0 56 56" fill="none" xmlns="http://www.w3.org/2000/svg">
<rect x="4" y="4" width="48" height="48" rx="24" fill="#BAE8FF"/>
<rect x="4" y="4" width="48" height="48" rx="24" stroke="#EBF8FF" stroke-width="8"/>
<path fill-rule="evenodd" clip-rule="evenodd" d="M28 19C28.4142 19 28.75 19.3358 28.75 19.75V27.25H36.25C36.6642 27.25 37 27.5858 37 28C37 28.4142 36.6642 28.75 36.25 28.75H28.75V36.25C28.75 36.6642 28.4142 37 28 37C27.5858 37 27.25 36.6642 27.25 36.25V28.75H19.75C19.3358 28.75 19 28.4142 19 28C19 27.5858 19.3358 27.25 19.75 27.25H27.25V19.75C27.25 19.3358 27.5858 19 28 19Z" fill="#106B99"/>
</svg>
