<svg width="18" height="19" viewBox="0 0 18 19" fill="none" xmlns="http://www.w3.org/2000/svg">
<g id="person">
<g id="Subtract">
<path d="M9 9.5C11.4853 9.5 13.5 7.48528 13.5 5C13.5 2.51472 11.4853 0.5 9 0.5C6.51472 0.5 4.5 2.51472 4.5 5C4.5 7.48528 6.51472 9.5 9 9.5ZM12 5C12 6.65685 10.6569 8 9 8C7.34315 8 6 6.65685 6 5C6 3.34315 7.34315 2 9 2C10.6569 2 12 3.34315 12 5Z" fill="#667085"/>
<path d="M18 17C18 18.5 16.5 18.5 16.5 18.5H1.5C1.5 18.5 0 18.5 0 17C0 15.5 1.5 11 9 11C16.5 11 18 15.5 18 17ZM16.5 16.9948C16.4978 16.6246 16.2693 15.5157 15.2518 14.4982C14.2734 13.5198 12.4336 12.5 8.99998 12.5C5.56632 12.5 3.72653 13.5198 2.74815 14.4982C1.73063 15.5157 1.50214 16.6246 1.5 16.9948H16.5Z" fill="#667085"/>
</g>
</g>
</svg>
