<svg width="52" height="52" viewBox="0 0 52 52" fill="none" xmlns="http://www.w3.org/2000/svg">
<rect x="2" y="2" width="48" height="48" rx="4" fill="white"/>
<rect x="2" y="2" width="48" height="48" rx="4" fill="url(#paint0_radial_7761_26273)"/>
<rect x="1" y="1" width="50" height="50" rx="5" stroke="url(#paint1_radial_7761_26273)" stroke-opacity="0.25" stroke-width="2"/>
<path d="M28.0497 20C29.0264 20.1906 29.924 20.6683 30.6277 21.3719C31.3314 22.0756 31.8091 22.9733 31.9997 23.95M28.0497 16C30.0789 16.2254 31.9713 17.1342 33.4159 18.577C34.8606 20.0198 35.7717 21.911 35.9997 23.94M24.2266 27.8631C23.0251 26.6615 22.0763 25.3028 21.3803 23.8532C21.3204 23.7285 21.2905 23.6662 21.2675 23.5873C21.1858 23.3069 21.2445 22.9627 21.4145 22.7253C21.4623 22.6584 21.5195 22.6013 21.6338 22.487C21.9834 22.1374 22.1582 21.9626 22.2725 21.7868C22.7035 21.1239 22.7035 20.2693 22.2725 19.6064C22.1582 19.4307 21.9834 19.2559 21.6338 18.9062L21.4389 18.7114C20.9075 18.1799 20.6417 17.9142 20.3564 17.7699C19.7888 17.4828 19.1185 17.4828 18.551 17.7699C18.2656 17.9142 17.9999 18.1799 17.4684 18.7114L17.3108 18.869C16.7812 19.3986 16.5164 19.6634 16.3141 20.0235C16.0897 20.423 15.9283 21.0435 15.9297 21.5017C15.9309 21.9146 16.011 22.1969 16.1712 22.7613C17.0322 25.7947 18.6567 28.6571 21.0447 31.045C23.4326 33.433 26.295 35.0575 29.3284 35.9185C29.8928 36.0787 30.1751 36.1588 30.588 36.16C31.0462 36.1614 31.6667 36 32.0662 35.7756C32.4263 35.5733 32.6911 35.3085 33.2207 34.7789L33.3783 34.6213C33.9098 34.0898 34.1755 33.8241 34.3198 33.5387C34.6069 32.9712 34.6069 32.3009 34.3198 31.7333C34.1755 31.448 33.9098 31.1822 33.3783 30.6508L33.1835 30.4559C32.8339 30.1063 32.6591 29.9315 32.4833 29.8172C31.8204 29.3862 30.9658 29.3862 30.3029 29.8172C30.1271 29.9315 29.9523 30.1063 29.6027 30.4559C29.4884 30.5702 29.4313 30.6274 29.3644 30.6752C29.127 30.8453 28.7828 30.904 28.5024 30.8222C28.4235 30.7992 28.3612 30.7693 28.2365 30.7094C26.7869 30.0134 25.4282 29.0646 24.2266 27.8631Z" stroke="white" stroke-width="2" stroke-linecap="round" stroke-linejoin="round"/>
<defs>
<radialGradient id="paint0_radial_7761_26273" cx="0" cy="0" r="1" gradientUnits="userSpaceOnUse" gradientTransform="translate(1.40676 3.32231) rotate(42.9555) scale(60.9904 863.324)">
<stop stop-color="#1AB3FF"/>
<stop offset="1" stop-color="#FFB258"/>
</radialGradient>
<radialGradient id="paint1_radial_7761_26273" cx="0" cy="0" r="1" gradientUnits="userSpaceOnUse" gradientTransform="translate(1.40676 3.32231) rotate(42.9555) scale(60.9904 863.324)">
<stop stop-color="#1AB3FF"/>
<stop offset="1" stop-color="#FFB258"/>
</radialGradient>
</defs>
</svg>
