<svg width="25" height="24" viewBox="0 0 25 24" fill="none" xmlns="http://www.w3.org/2000/svg">
<g id="sale-01">
<path id="Icon" d="M9.5 9H9.51M15.5 15H15.51M16.5 8L8.5 16M22.5 12C22.5 17.5228 18.0228 22 12.5 22C6.97715 22 2.5 17.5228 2.5 12C2.5 6.47715 6.97715 2 12.5 2C18.0228 2 22.5 6.47715 22.5 12ZM10 9C10 9.27614 9.77614 9.5 9.5 9.5C9.22386 9.5 9 9.27614 9 9C9 8.72386 9.22386 8.5 9.5 8.5C9.77614 8.5 10 8.72386 10 9ZM16 15C16 15.2761 15.7761 15.5 15.5 15.5C15.2239 15.5 15 15.2761 15 15C15 14.7239 15.2239 14.5 15.5 14.5C15.7761 14.5 16 14.7239 16 15Z" stroke="#079455" stroke-width="2" stroke-linecap="round" stroke-linejoin="round"/>
</g>
</svg>
