<svg width="24" height="24" viewBox="0 0 24 24" fill="none" xmlns="http://www.w3.org/2000/svg">
<g id="vuesax/bulk/tag-2">
<g id="tag-2">
<g id="Vector" opacity="0.4">
<path d="M4.17001 15.3L8.70001 19.83C10.56 21.6901 13.58 21.6901 15.45 19.83L19.84 15.44C21.7 13.58 21.7 10.56 19.84 8.69005L15.3 4.17005C14.35 3.22005 13.04 2.71005 11.7 2.78005L6.70001 3.02005C4.70001 3.11005 3.11001 4.70005 3.01001 6.69005L2.77001 11.69C2.71001 13.04 3.22001 14.35 4.17001 15.3Z" fill="#344054"/>
<path d="M4.17001 15.3L8.70001 19.83C10.56 21.6901 13.58 21.6901 15.45 19.83L19.84 15.44C21.7 13.58 21.7 10.56 19.84 8.69005L15.3 4.17005C14.35 3.22005 13.04 2.71005 11.7 2.78005L6.70001 3.02005C4.70001 3.11005 3.11001 4.70005 3.01001 6.69005L2.77001 11.69C2.71001 13.04 3.22001 14.35 4.17001 15.3Z" fill="url(#paint0_linear_1251_91973)"/>
<path d="M4.17001 15.3L8.70001 19.83C10.56 21.6901 13.58 21.6901 15.45 19.83L19.84 15.44C21.7 13.58 21.7 10.56 19.84 8.69005L15.3 4.17005C14.35 3.22005 13.04 2.71005 11.7 2.78005L6.70001 3.02005C4.70001 3.11005 3.11001 4.70005 3.01001 6.69005L2.77001 11.69C2.71001 13.04 3.22001 14.35 4.17001 15.3Z" fill="url(#paint1_linear_1251_91973)"/>
<path d="M4.17001 15.3L8.70001 19.83C10.56 21.6901 13.58 21.6901 15.45 19.83L19.84 15.44C21.7 13.58 21.7 10.56 19.84 8.69005L15.3 4.17005C14.35 3.22005 13.04 2.71005 11.7 2.78005L6.70001 3.02005C4.70001 3.11005 3.11001 4.70005 3.01001 6.69005L2.77001 11.69C2.71001 13.04 3.22001 14.35 4.17001 15.3Z" fill="url(#paint2_linear_1251_91973)"/>
<path d="M4.17001 15.3L8.70001 19.83C10.56 21.6901 13.58 21.6901 15.45 19.83L19.84 15.44C21.7 13.58 21.7 10.56 19.84 8.69005L15.3 4.17005C14.35 3.22005 13.04 2.71005 11.7 2.78005L6.70001 3.02005C4.70001 3.11005 3.11001 4.70005 3.01001 6.69005L2.77001 11.69C2.71001 13.04 3.22001 14.35 4.17001 15.3Z" fill="url(#paint3_linear_1251_91973)"/>
</g>
<g id="Vector_2">
<path d="M9.5 12.3801C11.0906 12.3801 12.38 11.0907 12.38 9.50012C12.38 7.90954 11.0906 6.62012 9.5 6.62012C7.90942 6.62012 6.62 7.90954 6.62 9.50012C6.62 11.0907 7.90942 12.3801 9.5 12.3801Z" fill="#344054"/>
<path d="M9.5 12.3801C11.0906 12.3801 12.38 11.0907 12.38 9.50012C12.38 7.90954 11.0906 6.62012 9.5 6.62012C7.90942 6.62012 6.62 7.90954 6.62 9.50012C6.62 11.0907 7.90942 12.3801 9.5 12.3801Z" fill="url(#paint4_linear_1251_91973)"/>
<path d="M9.5 12.3801C11.0906 12.3801 12.38 11.0907 12.38 9.50012C12.38 7.90954 11.0906 6.62012 9.5 6.62012C7.90942 6.62012 6.62 7.90954 6.62 9.50012C6.62 11.0907 7.90942 12.3801 9.5 12.3801Z" fill="url(#paint5_linear_1251_91973)"/>
<path d="M9.5 12.3801C11.0906 12.3801 12.38 11.0907 12.38 9.50012C12.38 7.90954 11.0906 6.62012 9.5 6.62012C7.90942 6.62012 6.62 7.90954 6.62 9.50012C6.62 11.0907 7.90942 12.3801 9.5 12.3801Z" fill="url(#paint6_linear_1251_91973)"/>
<path d="M9.5 12.3801C11.0906 12.3801 12.38 11.0907 12.38 9.50012C12.38 7.90954 11.0906 6.62012 9.5 6.62012C7.90942 6.62012 6.62 7.90954 6.62 9.50012C6.62 11.0907 7.90942 12.3801 9.5 12.3801Z" fill="url(#paint7_linear_1251_91973)"/>
</g>
<g id="Vector_3">
<path d="M13 17.7499C12.81 17.7499 12.62 17.6799 12.47 17.5299C12.18 17.2399 12.18 16.7599 12.47 16.4699L16.47 12.4699C16.76 12.1799 17.24 12.1799 17.53 12.4699C17.82 12.7599 17.82 13.2399 17.53 13.5299L13.53 17.5299C13.38 17.6799 13.19 17.7499 13 17.7499Z" fill="#344054"/>
<path d="M13 17.7499C12.81 17.7499 12.62 17.6799 12.47 17.5299C12.18 17.2399 12.18 16.7599 12.47 16.4699L16.47 12.4699C16.76 12.1799 17.24 12.1799 17.53 12.4699C17.82 12.7599 17.82 13.2399 17.53 13.5299L13.53 17.5299C13.38 17.6799 13.19 17.7499 13 17.7499Z" fill="url(#paint8_linear_1251_91973)"/>
<path d="M13 17.7499C12.81 17.7499 12.62 17.6799 12.47 17.5299C12.18 17.2399 12.18 16.7599 12.47 16.4699L16.47 12.4699C16.76 12.1799 17.24 12.1799 17.53 12.4699C17.82 12.7599 17.82 13.2399 17.53 13.5299L13.53 17.5299C13.38 17.6799 13.19 17.7499 13 17.7499Z" fill="url(#paint9_linear_1251_91973)"/>
<path d="M13 17.7499C12.81 17.7499 12.62 17.6799 12.47 17.5299C12.18 17.2399 12.18 16.7599 12.47 16.4699L16.47 12.4699C16.76 12.1799 17.24 12.1799 17.53 12.4699C17.82 12.7599 17.82 13.2399 17.53 13.5299L13.53 17.5299C13.38 17.6799 13.19 17.7499 13 17.7499Z" fill="url(#paint10_linear_1251_91973)"/>
<path d="M13 17.7499C12.81 17.7499 12.62 17.6799 12.47 17.5299C12.18 17.2399 12.18 16.7599 12.47 16.4699L16.47 12.4699C16.76 12.1799 17.24 12.1799 17.53 12.4699C17.82 12.7599 17.82 13.2399 17.53 13.5299L13.53 17.5299C13.38 17.6799 13.19 17.7499 13 17.7499Z" fill="url(#paint11_linear_1251_91973)"/>
</g>
</g>
</g>
<defs>
<linearGradient id="paint0_linear_1251_91973" x1="21.235" y1="21.225" x2="21.235" y2="2.77368" gradientUnits="userSpaceOnUse">
<stop stop-color="#A7A6CB"/>
<stop offset="1" stop-color="#8989BA"/>
</linearGradient>
<linearGradient id="paint1_linear_1251_91973" x1="2.76497" y1="21.2249" x2="21.2164" y2="2.75508" gradientUnits="userSpaceOnUse">
<stop stop-color="#39A0FF"/>
<stop offset="1" stop-color="#8FFF85"/>
</linearGradient>
<linearGradient id="paint2_linear_1251_91973" x1="30.4699" y1="11.9994" x2="12.0185" y2="-6.47038" gradientUnits="userSpaceOnUse">
<stop stop-color="#764BA2"/>
<stop offset="1" stop-color="#667EEA"/>
</linearGradient>
<linearGradient id="paint3_linear_1251_91973" x1="2.76526" y1="2.77368" x2="21.2166" y2="21.2434" gradientUnits="userSpaceOnUse">
<stop stop-color="#89F7FE"/>
<stop offset="1" stop-color="#66A6FF"/>
</linearGradient>
<linearGradient id="paint4_linear_1251_91973" x1="12.38" y1="12.3801" x2="12.38" y2="6.62012" gradientUnits="userSpaceOnUse">
<stop stop-color="#A7A6CB"/>
<stop offset="1" stop-color="#8989BA"/>
</linearGradient>
<linearGradient id="paint5_linear_1251_91973" x1="6.61991" y1="12.3801" x2="12.3799" y2="6.62005" gradientUnits="userSpaceOnUse">
<stop stop-color="#39A0FF"/>
<stop offset="1" stop-color="#8FFF85"/>
</linearGradient>
<linearGradient id="paint6_linear_1251_91973" x1="15.26" y1="9.50012" x2="9.5" y2="3.74012" gradientUnits="userSpaceOnUse">
<stop stop-color="#764BA2"/>
<stop offset="1" stop-color="#667EEA"/>
</linearGradient>
<linearGradient id="paint7_linear_1251_91973" x1="6.62" y1="6.62012" x2="12.38" y2="12.3801" gradientUnits="userSpaceOnUse">
<stop stop-color="#89F7FE"/>
<stop offset="1" stop-color="#66A6FF"/>
</linearGradient>
<linearGradient id="paint8_linear_1251_91973" x1="17.7475" y1="17.7499" x2="17.7475" y2="12.2524" gradientUnits="userSpaceOnUse">
<stop stop-color="#A7A6CB"/>
<stop offset="1" stop-color="#8989BA"/>
</linearGradient>
<linearGradient id="paint9_linear_1251_91973" x1="12.2524" y1="17.7499" x2="17.7499" y2="12.2549" gradientUnits="userSpaceOnUse">
<stop stop-color="#39A0FF"/>
<stop offset="1" stop-color="#8FFF85"/>
</linearGradient>
<linearGradient id="paint10_linear_1251_91973" x1="20.495" y1="15.0012" x2="14.9975" y2="9.50619" gradientUnits="userSpaceOnUse">
<stop stop-color="#764BA2"/>
<stop offset="1" stop-color="#667EEA"/>
</linearGradient>
<linearGradient id="paint11_linear_1251_91973" x1="12.2525" y1="12.2524" x2="17.75" y2="17.7474" gradientUnits="userSpaceOnUse">
<stop stop-color="#89F7FE"/>
<stop offset="1" stop-color="#66A6FF"/>
</linearGradient>
</defs>
</svg>
