<svg width="25" height="24" viewBox="0 0 25 24" fill="none" xmlns="http://www.w3.org/2000/svg">
<g id="vuesax/bulk/status-up">
<g id="status-up">
<g id="status-up_2">
<g id="Vector" opacity="0.4">
<path d="M16.69 2H8.31C4.67 2 2.5 4.17 2.5 7.81V16.18C2.5 19.83 4.67 22 8.31 22H16.68C20.32 22 22.49 19.83 22.49 16.19V7.81C22.5 4.17 20.33 2 16.69 2Z" fill="#292D32"/>
<path d="M16.69 2H8.31C4.67 2 2.5 4.17 2.5 7.81V16.18C2.5 19.83 4.67 22 8.31 22H16.68C20.32 22 22.49 19.83 22.49 16.19V7.81C22.5 4.17 20.33 2 16.69 2Z" fill="url(#paint0_linear_6142_82622)"/>
</g>
<g id="Vector_2">
<path d="M7.38 18.9001C6.97 18.9001 6.63 18.5601 6.63 18.1501V16.0801C6.63 15.6701 6.97 15.3301 7.38 15.3301C7.79 15.3301 8.13 15.6701 8.13 16.0801V18.1501C8.13 18.5701 7.79 18.9001 7.38 18.9001Z" fill="#292D32"/>
<path d="M7.38 18.9001C6.97 18.9001 6.63 18.5601 6.63 18.1501V16.0801C6.63 15.6701 6.97 15.3301 7.38 15.3301C7.79 15.3301 8.13 15.6701 8.13 16.0801V18.1501C8.13 18.5701 7.79 18.9001 7.38 18.9001Z" fill="url(#paint1_linear_6142_82622)"/>
</g>
<g id="Vector_3">
<path d="M12.5 18.9C12.09 18.9 11.75 18.56 11.75 18.15V14C11.75 13.59 12.09 13.25 12.5 13.25C12.91 13.25 13.25 13.59 13.25 14V18.15C13.25 18.57 12.91 18.9 12.5 18.9Z" fill="#292D32"/>
<path d="M12.5 18.9C12.09 18.9 11.75 18.56 11.75 18.15V14C11.75 13.59 12.09 13.25 12.5 13.25C12.91 13.25 13.25 13.59 13.25 14V18.15C13.25 18.57 12.91 18.9 12.5 18.9Z" fill="url(#paint2_linear_6142_82622)"/>
</g>
<g id="Vector_4">
<path d="M17.62 18.9002C17.21 18.9002 16.87 18.5602 16.87 18.1502V11.9302C16.87 11.5202 17.21 11.1802 17.62 11.1802C18.03 11.1802 18.37 11.5202 18.37 11.9302V18.1502C18.37 18.5702 18.04 18.9002 17.62 18.9002Z" fill="#292D32"/>
<path d="M17.62 18.9002C17.21 18.9002 16.87 18.5602 16.87 18.1502V11.9302C16.87 11.5202 17.21 11.1802 17.62 11.1802C18.03 11.1802 18.37 11.5202 18.37 11.9302V18.1502C18.37 18.5702 18.04 18.9002 17.62 18.9002Z" fill="url(#paint3_linear_6142_82622)"/>
</g>
<g id="Vector_5">
<path d="M18.37 5.8201C18.37 5.7701 18.35 5.7101 18.34 5.6601C18.33 5.6201 18.32 5.5701 18.31 5.5301C18.29 5.4901 18.26 5.4601 18.24 5.4201C18.21 5.3801 18.18 5.3301 18.14 5.3001C18.13 5.2901 18.13 5.2801 18.12 5.2801C18.09 5.2601 18.06 5.2501 18.03 5.2301C17.99 5.2001 17.94 5.1701 17.89 5.1501C17.84 5.1301 17.79 5.1301 17.74 5.1201C17.7 5.1101 17.67 5.1001 17.63 5.1001H14.7C14.29 5.1001 13.95 5.4401 13.95 5.8501C13.95 6.2601 14.29 6.6001 14.7 6.6001H15.95C13.57 9.1001 10.57 10.8601 7.20001 11.7101C6.80001 11.8101 6.55001 12.2201 6.65001 12.6201C6.73001 12.9601 7.04001 13.1901 7.38001 13.1901C7.44001 13.1901 7.50001 13.1801 7.56001 13.1701C11.13 12.2801 14.32 10.4301 16.87 7.8101V8.7801C16.87 9.1901 17.21 9.5301 17.62 9.5301C18.03 9.5301 18.37 9.1901 18.37 8.7801V5.8501C18.37 5.8401 18.37 5.8301 18.37 5.8201Z" fill="#292D32"/>
<path d="M18.37 5.8201C18.37 5.7701 18.35 5.7101 18.34 5.6601C18.33 5.6201 18.32 5.5701 18.31 5.5301C18.29 5.4901 18.26 5.4601 18.24 5.4201C18.21 5.3801 18.18 5.3301 18.14 5.3001C18.13 5.2901 18.13 5.2801 18.12 5.2801C18.09 5.2601 18.06 5.2501 18.03 5.2301C17.99 5.2001 17.94 5.1701 17.89 5.1501C17.84 5.1301 17.79 5.1301 17.74 5.1201C17.7 5.1101 17.67 5.1001 17.63 5.1001H14.7C14.29 5.1001 13.95 5.4401 13.95 5.8501C13.95 6.2601 14.29 6.6001 14.7 6.6001H15.95C13.57 9.1001 10.57 10.8601 7.20001 11.7101C6.80001 11.8101 6.55001 12.2201 6.65001 12.6201C6.73001 12.9601 7.04001 13.1901 7.38001 13.1901C7.44001 13.1901 7.50001 13.1801 7.56001 13.1701C11.13 12.2801 14.32 10.4301 16.87 7.8101V8.7801C16.87 9.1901 17.21 9.5301 17.62 9.5301C18.03 9.5301 18.37 9.1901 18.37 8.7801V5.8501C18.37 5.8401 18.37 5.8301 18.37 5.8201Z" fill="url(#paint4_linear_6142_82622)"/>
</g>
</g>
</g>
</g>
<defs>
<linearGradient id="paint0_linear_6142_82622" x1="22.49" y1="2" x2="2.5" y2="2" gradientUnits="userSpaceOnUse">
<stop stop-color="#74EBD5"/>
<stop offset="1" stop-color="#9FACE6"/>
</linearGradient>
<linearGradient id="paint1_linear_6142_82622" x1="8.13" y1="15.3301" x2="6.63" y2="15.3301" gradientUnits="userSpaceOnUse">
<stop stop-color="#74EBD5"/>
<stop offset="1" stop-color="#9FACE6"/>
</linearGradient>
<linearGradient id="paint2_linear_6142_82622" x1="13.25" y1="13.25" x2="11.75" y2="13.25" gradientUnits="userSpaceOnUse">
<stop stop-color="#74EBD5"/>
<stop offset="1" stop-color="#9FACE6"/>
</linearGradient>
<linearGradient id="paint3_linear_6142_82622" x1="18.37" y1="11.1802" x2="16.87" y2="11.1802" gradientUnits="userSpaceOnUse">
<stop stop-color="#74EBD5"/>
<stop offset="1" stop-color="#9FACE6"/>
</linearGradient>
<linearGradient id="paint4_linear_6142_82622" x1="18.37" y1="5.1001" x2="6.62796" y2="5.1001" gradientUnits="userSpaceOnUse">
<stop stop-color="#74EBD5"/>
<stop offset="1" stop-color="#9FACE6"/>
</linearGradient>
</defs>
</svg>
