<svg width="24" height="24" viewBox="0 0 24 24" fill="none" xmlns="http://www.w3.org/2000/svg">
<g id="vuesax/bulk/box">
<g id="box">
<g id="Vector" opacity="0.4">
<path d="M21.0406 7.19L12.0006 12.42L2.96062 7.19C3.36062 6.45 3.94062 5.8 4.59062 5.44L9.93062 2.48C11.0706 1.84 12.9306 1.84 14.0706 2.48L19.4106 5.44C20.0606 5.8 20.6406 6.45 21.0406 7.19Z" fill="#344054"/>
<path d="M21.0406 7.19L12.0006 12.42L2.96062 7.19C3.36062 6.45 3.94062 5.8 4.59062 5.44L9.93062 2.48C11.0706 1.84 12.9306 1.84 14.0706 2.48L19.4106 5.44C20.0606 5.8 20.6406 6.45 21.0406 7.19Z" fill="url(#paint0_linear_1251_92050)"/>
</g>
<g id="Vector_2" opacity="0.6">
<path d="M12.0006 12.4199V21.9999C11.2506 21.9999 10.5006 21.8399 9.93062 21.5199L4.59063 18.5599C3.38063 17.8899 2.39062 16.2099 2.39062 14.8299V9.16994C2.39062 8.52994 2.61062 7.82994 2.96062 7.18994L12.0006 12.4199Z" fill="#344054"/>
<path d="M12.0006 12.4199V21.9999C11.2506 21.9999 10.5006 21.8399 9.93062 21.5199L4.59063 18.5599C3.38063 17.8899 2.39062 16.2099 2.39062 14.8299V9.16994C2.39062 8.52994 2.61062 7.82994 2.96062 7.18994L12.0006 12.4199Z" fill="url(#paint1_linear_1251_92050)"/>
</g>
<g id="Vector_3">
<path d="M21.6106 9.16994V14.8299C21.6106 16.2099 20.6206 17.8899 19.4106 18.5599L14.0706 21.5199C13.5006 21.8399 12.7506 21.9999 12.0006 21.9999V12.4199L21.0406 7.18994C21.3906 7.82994 21.6106 8.52994 21.6106 9.16994Z" fill="#344054"/>
<path d="M21.6106 9.16994V14.8299C21.6106 16.2099 20.6206 17.8899 19.4106 18.5599L14.0706 21.5199C13.5006 21.8399 12.7506 21.9999 12.0006 21.9999V12.4199L21.0406 7.18994C21.3906 7.82994 21.6106 8.52994 21.6106 9.16994Z" fill="url(#paint2_linear_1251_92050)"/>
</g>
</g>
</g>
<defs>
<linearGradient id="paint0_linear_1251_92050" x1="21.0406" y1="12.42" x2="21.0406" y2="2" gradientUnits="userSpaceOnUse">
<stop stop-color="#9B23EA"/>
<stop offset="1" stop-color="#5F72BD"/>
</linearGradient>
<linearGradient id="paint1_linear_1251_92050" x1="12.0006" y1="21.9999" x2="12.0006" y2="7.18994" gradientUnits="userSpaceOnUse">
<stop stop-color="#9B23EA"/>
<stop offset="1" stop-color="#5F72BD"/>
</linearGradient>
<linearGradient id="paint2_linear_1251_92050" x1="21.6106" y1="21.9999" x2="21.6106" y2="7.18994" gradientUnits="userSpaceOnUse">
<stop stop-color="#9B23EA"/>
<stop offset="1" stop-color="#5F72BD"/>
</linearGradient>
</defs>
</svg>
