<svg width="56" height="56" viewBox="0 0 56 56" fill="none" xmlns="http://www.w3.org/2000/svg">
<rect x="4" y="4" width="48" height="48" rx="24" fill="#BAE8FF"/>
<rect x="4" y="4" width="48" height="48" rx="24" stroke="#EBF8FF" stroke-width="8"/>
<path d="M28 38.5C22.201 38.5 17.5 33.799 17.5 28C17.5 22.201 22.201 17.5 28 17.5C33.799 17.5 38.5 22.201 38.5 28C38.5 33.799 33.799 38.5 28 38.5ZM28 40C34.6274 40 40 34.6274 40 28C40 21.3726 34.6274 16 28 16C21.3726 16 16 21.3726 16 28C16 34.6274 21.3726 40 28 40Z" fill="#106B99"/>
<path d="M29.3961 25.8818L25.9595 26.3125L25.8365 26.8838L26.5132 27.0068C26.9527 27.1123 27.0406 27.2705 26.9439 27.71L25.8365 32.9131C25.5464 34.2578 25.9947 34.8906 27.0494 34.8906C27.8668 34.8906 28.816 34.5127 29.2466 33.9941L29.3785 33.3701C29.0796 33.6338 28.6402 33.7393 28.3502 33.7393C27.9371 33.7393 27.7877 33.4492 27.8931 32.9395L29.3961 25.8818Z" fill="#106B99"/>
<path d="M29.5 22.75C29.5 23.5784 28.8284 24.25 28 24.25C27.1716 24.25 26.5 23.5784 26.5 22.75C26.5 21.9216 27.1716 21.25 28 21.25C28.8284 21.25 29.5 21.9216 29.5 22.75Z" fill="#106B99"/>
</svg>
