<svg width="56" height="56" viewBox="0 0 56 56" fill="none" xmlns="http://www.w3.org/2000/svg">
<rect x="4" y="4" width="48" height="48" rx="24" fill="#BAE8FF"/>
<rect x="4" y="4" width="48" height="48" rx="24" stroke="#EBF8FF" stroke-width="8"/>
<path d="M39.2524 18.909C39.5453 19.2019 39.5453 19.6768 39.2524 19.9697L37.6881 21.534L34.6881 18.534L36.2524 16.9697C36.5453 16.6768 37.0202 16.6768 37.3131 16.9697L39.2524 18.909Z" fill="#106B99"/>
<path d="M36.6274 22.5947L33.6274 19.5947L23.4079 29.8141C23.3256 29.8965 23.2636 29.9968 23.2267 30.1073L22.0199 33.7278C21.9222 34.021 22.2011 34.2999 22.4942 34.2022L26.1148 32.9953C26.2252 32.9585 26.3256 32.8965 26.4079 32.8141L36.6274 22.5947Z" fill="#106B99"/>
<path fill-rule="evenodd" clip-rule="evenodd" d="M17.5 36.25C17.5 37.4926 18.5074 38.5 19.75 38.5H36.25C37.4926 38.5 38.5 37.4926 38.5 36.25V27.25C38.5 26.8358 38.1642 26.5 37.75 26.5C37.3358 26.5 37 26.8358 37 27.25V36.25C37 36.6642 36.6642 37 36.25 37H19.75C19.3358 37 19 36.6642 19 36.25V19.75C19 19.3358 19.3358 19 19.75 19H29.5C29.9142 19 30.25 18.6642 30.25 18.25C30.25 17.8358 29.9142 17.5 29.5 17.5H19.75C18.5074 17.5 17.5 18.5074 17.5 19.75V36.25Z" fill="#106B99"/>
</svg>
