<svg width="17" height="16" viewBox="0 0 17 16" fill="none" xmlns="http://www.w3.org/2000/svg">
<g id="telephone">
<path id="telephone_2" d="M4.15387 1.32849C3.90343 1.00649 3.42745 0.976861 3.139 1.26531L2.10508 2.29923C1.6216 2.78271 1.44387 3.46766 1.6551 4.06847C2.50338 6.48124 3.89215 8.74671 5.82272 10.6773C7.75329 12.6078 10.0188 13.9966 12.4315 14.8449C13.0323 15.0561 13.7173 14.8784 14.2008 14.3949L15.2347 13.361C15.5231 13.0726 15.4935 12.5966 15.1715 12.3461L12.8653 10.5524C12.7008 10.4245 12.4866 10.3793 12.2845 10.4298L10.0954 10.9771C9.50082 11.1257 8.87183 10.9515 8.43845 10.5181L5.98187 8.06155C5.54849 7.62817 5.37427 6.99919 5.52292 6.40459L6.07019 4.21553C6.12073 4.01336 6.07552 3.79918 5.94758 3.63468L4.15387 1.32849ZM2.38477 0.511076C3.12689 -0.231039 4.3515 -0.154797 4.99583 0.673634L6.78954 2.97983C7.1187 3.40304 7.23502 3.95409 7.10498 4.47423L6.55772 6.66329C6.49994 6.8944 6.56766 7.13888 6.7361 7.30732L9.19268 9.7639C9.36113 9.93235 9.6056 10.0001 9.83671 9.94229L12.0258 9.39502C12.5459 9.26499 13.097 9.3813 13.5202 9.71047L15.8264 11.5042C16.6548 12.1485 16.731 13.3731 15.9889 14.1152L14.955 15.1492C14.2153 15.8889 13.1089 16.2137 12.0778 15.8512C9.51754 14.9511 7.11438 13.4774 5.06849 11.4315C3.0226 9.38562 1.54895 6.98246 0.648838 4.42225C0.286318 3.39112 0.61113 2.28472 1.35085 1.545L2.38477 0.511076Z" fill="#667085"/>
</g>
</svg>
