<svg width="41" height="40" viewBox="0 0 41 40" fill="none" xmlns="http://www.w3.org/2000/svg">
<rect x="0.75" width="40" height="40" rx="20" fill="#BAE8FF"/>
<rect x="0.75" width="40" height="40" rx="20" stroke="#EBF8FF"/>
<path d="M23.75 12.5C24.5784 12.5 25.25 13.1716 25.25 14V26C25.25 26.8284 24.5784 27.5 23.75 27.5H17.75C16.9216 27.5 16.25 26.8284 16.25 26V14C16.25 13.1716 16.9216 12.5 17.75 12.5H23.75ZM17.75 11C16.0931 11 14.75 12.3431 14.75 14V26C14.75 27.6569 16.0931 29 17.75 29H23.75C25.4069 29 26.75 27.6569 26.75 26V14C26.75 12.3431 25.4069 11 23.75 11H17.75Z" fill="#158ECC"/>
<path d="M20.75 26C21.5784 26 22.25 25.3284 22.25 24.5C22.25 23.6716 21.5784 23 20.75 23C19.9216 23 19.25 23.6716 19.25 24.5C19.25 25.3284 19.9216 26 20.75 26Z" fill="#158ECC"/>
<path d="M11.1481 14.0869C11.5143 14.2805 11.6542 14.7343 11.4606 15.1005C10.6879 16.5624 10.25 18.229 10.25 20C10.25 21.771 10.6879 23.4376 11.4606 24.8995C11.6542 25.2657 11.5143 25.7195 11.1481 25.9131C10.7819 26.1066 10.3281 25.9667 10.1345 25.6005C9.25032 23.9278 8.75 22.0212 8.75 20C8.75 17.9788 9.25032 16.0722 10.1345 14.3995C10.3281 14.0333 10.7819 13.8934 11.1481 14.0869ZM30.3519 14.0869C30.7181 13.8934 31.1719 14.0333 31.3655 14.3995C32.2497 16.0722 32.75 17.9788 32.75 20C32.75 22.0212 32.2497 23.9278 31.3655 25.6005C31.1719 25.9667 30.7181 26.1066 30.3519 25.9131C29.9857 25.7195 29.8458 25.2657 30.0394 24.8995C30.8121 23.4376 31.25 21.771 31.25 20C31.25 18.229 30.8121 16.5624 30.0394 15.1005C29.8458 14.7343 29.9857 14.2805 30.3519 14.0869ZM13.3352 16.3014C13.7211 16.4521 13.9117 16.887 13.761 17.2728C13.4313 18.1171 13.25 19.0365 13.25 20C13.25 20.9635 13.4313 21.8829 13.761 22.7272C13.9117 23.113 13.7211 23.5479 13.3352 23.6986C12.9494 23.8493 12.5145 23.6587 12.3638 23.2728C11.9673 22.2575 11.75 21.1532 11.75 20C11.75 18.8468 11.9673 17.7425 12.3638 16.7272C12.5145 16.3413 12.9494 16.1507 13.3352 16.3014ZM28.1648 16.3014C28.5506 16.1507 28.9855 16.3413 29.1362 16.7272C29.5327 17.7425 29.75 18.8468 29.75 20C29.75 21.1532 29.5327 22.2575 29.1362 23.2728C28.9855 23.6587 28.5506 23.8493 28.1648 23.6986C27.7789 23.5479 27.5883 23.113 27.739 22.7272C28.0687 21.8829 28.25 20.9635 28.25 20C28.25 19.0365 28.0687 18.1171 27.739 17.2728C27.5883 16.887 27.7789 16.4521 28.1648 16.3014Z" fill="#158ECC"/>
</svg>
