<svg width="24" height="24" viewBox="0 0 24 24" fill="none" xmlns="http://www.w3.org/2000/svg">
<path d="M15 3V12C15 13.1 14.1 14 13 14H2V6C2 3.79 3.79 2 6 2H14C14.55 2 15 2.45 15 3Z" fill="url(#paint0_linear_17728_9920)"/>
<g opacity="0.4">
<path d="M22 14V17C22 18.66 20.66 20 19 20H18C18 18.9 17.1 18 16 18C14.9 18 14 18.9 14 20H10C10 18.9 9.1 18 8 18C6.9 18 6 18.9 6 20H5C3.34 20 2 18.66 2 17V14H13C14.1 14 15 13.1 15 12V5H16.84C17.56 5 18.22 5.39001 18.58 6.01001L20.29 9H19C18.45 9 18 9.45 18 10V13C18 13.55 18.45 14 19 14H22Z" fill="#292D32"/>
<path d="M22 14V17C22 18.66 20.66 20 19 20H18C18 18.9 17.1 18 16 18C14.9 18 14 18.9 14 20H10C10 18.9 9.1 18 8 18C6.9 18 6 18.9 6 20H5C3.34 20 2 18.66 2 17V14H13C14.1 14 15 13.1 15 12V5H16.84C17.56 5 18.22 5.39001 18.58 6.01001L20.29 9H19C18.45 9 18 9.45 18 10V13C18 13.55 18.45 14 19 14H22Z" fill="url(#paint1_linear_17728_9920)"/>
<path d="M22 14V17C22 18.66 20.66 20 19 20H18C18 18.9 17.1 18 16 18C14.9 18 14 18.9 14 20H10C10 18.9 9.1 18 8 18C6.9 18 6 18.9 6 20H5C3.34 20 2 18.66 2 17V14H13C14.1 14 15 13.1 15 12V5H16.84C17.56 5 18.22 5.39001 18.58 6.01001L20.29 9H19C18.45 9 18 9.45 18 10V13C18 13.55 18.45 14 19 14H22Z" fill="url(#paint2_linear_17728_9920)"/>
</g>
<path d="M8 22C9.10457 22 10 21.1046 10 20C10 18.8954 9.10457 18 8 18C6.89543 18 6 18.8954 6 20C6 21.1046 6.89543 22 8 22Z" fill="#292D32"/>
<path d="M8 22C9.10457 22 10 21.1046 10 20C10 18.8954 9.10457 18 8 18C6.89543 18 6 18.8954 6 20C6 21.1046 6.89543 22 8 22Z" fill="url(#paint3_linear_17728_9920)"/>
<path d="M8 22C9.10457 22 10 21.1046 10 20C10 18.8954 9.10457 18 8 18C6.89543 18 6 18.8954 6 20C6 21.1046 6.89543 22 8 22Z" fill="url(#paint4_linear_17728_9920)"/>
<path d="M16 22C17.1046 22 18 21.1046 18 20C18 18.8954 17.1046 18 16 18C14.8954 18 14 18.8954 14 20C14 21.1046 14.8954 22 16 22Z" fill="#292D32"/>
<path d="M16 22C17.1046 22 18 21.1046 18 20C18 18.8954 17.1046 18 16 18C14.8954 18 14 18.8954 14 20C14 21.1046 14.8954 22 16 22Z" fill="url(#paint5_linear_17728_9920)"/>
<path d="M16 22C17.1046 22 18 21.1046 18 20C18 18.8954 17.1046 18 16 18C14.8954 18 14 18.8954 14 20C14 21.1046 14.8954 22 16 22Z" fill="url(#paint6_linear_17728_9920)"/>
<path d="M22 12.53V14H19C18.45 14 18 13.55 18 13V10C18 9.45 18.45 9 19 9H20.29L21.74 11.54C21.91 11.84 22 12.18 22 12.53Z" fill="url(#paint7_linear_17728_9920)"/>
<defs>
<linearGradient id="paint0_linear_17728_9920" x1="15" y1="14" x2="15" y2="2" gradientUnits="userSpaceOnUse">
<stop stop-color="#9890E3"/>
<stop offset="1" stop-color="#B1F4CF"/>
</linearGradient>
<linearGradient id="paint1_linear_17728_9920" x1="1.99969" y1="19.9999" x2="16.3997" y2="0.799806" gradientUnits="userSpaceOnUse">
<stop stop-color="#8B8B8B"/>
<stop offset="1" stop-color="#EAEAEA"/>
</linearGradient>
<linearGradient id="paint2_linear_17728_9920" x1="22" y1="20" x2="22" y2="5" gradientUnits="userSpaceOnUse">
<stop stop-color="#9890E3"/>
<stop offset="1" stop-color="#B1F4CF"/>
</linearGradient>
<linearGradient id="paint3_linear_17728_9920" x1="5.99994" y1="22" x2="9.99995" y2="18" gradientUnits="userSpaceOnUse">
<stop stop-color="#8B8B8B"/>
<stop offset="1" stop-color="#EAEAEA"/>
</linearGradient>
<linearGradient id="paint4_linear_17728_9920" x1="10" y1="22" x2="10" y2="18" gradientUnits="userSpaceOnUse">
<stop stop-color="#9890E3"/>
<stop offset="1" stop-color="#B1F4CF"/>
</linearGradient>
<linearGradient id="paint5_linear_17728_9920" x1="13.9999" y1="22" x2="18" y2="18" gradientUnits="userSpaceOnUse">
<stop stop-color="#8B8B8B"/>
<stop offset="1" stop-color="#EAEAEA"/>
</linearGradient>
<linearGradient id="paint6_linear_17728_9920" x1="18" y1="22" x2="18" y2="18" gradientUnits="userSpaceOnUse">
<stop stop-color="#9890E3"/>
<stop offset="1" stop-color="#B1F4CF"/>
</linearGradient>
<linearGradient id="paint7_linear_17728_9920" x1="22" y1="14" x2="22" y2="9" gradientUnits="userSpaceOnUse">
<stop stop-color="#9890E3"/>
<stop offset="1" stop-color="#B1F4CF"/>
</linearGradient>
</defs>
</svg>
