<svg width="24" height="24" viewBox="0 0 24 24" fill="none" xmlns="http://www.w3.org/2000/svg">
<g clip-path="url(#clip0_6885_122284)">
<rect width="24" height="24" rx="12" fill="url(#paint0_linear_6885_122284)"/>
<g opacity="0.08">
<rect x="0.375" y="0.375" width="23.25" height="23.25" rx="11.625" stroke="#101828" stroke-width="0.75"/>
</g>
<path d="M11.9997 12.0002C13.8933 12.0002 15.4283 10.4652 15.4283 8.57164C15.4283 6.67809 13.8933 5.14307 11.9997 5.14307C10.1062 5.14307 8.57115 6.67809 8.57115 8.57164C8.57115 10.4652 10.1062 12.0002 11.9997 12.0002ZM14.2854 8.57164C14.2854 9.834 13.2621 10.8574 11.9997 10.8574C10.7374 10.8574 9.71401 9.834 9.71401 8.57164C9.71401 7.30927 10.7374 6.28592 11.9997 6.28592C13.2621 6.28592 14.2854 7.30927 14.2854 8.57164Z" fill="#667085"/>
<path d="M18.8569 17.7145C18.8569 18.8574 17.714 18.8574 17.714 18.8574H6.28544C6.28544 18.8574 5.14258 18.8574 5.14258 17.7145C5.14258 16.5716 6.28544 13.1431 11.9997 13.1431C17.714 13.1431 18.8569 16.5716 18.8569 17.7145ZM17.714 17.7105C17.7124 17.4285 17.5383 16.5836 16.763 15.8083C16.0176 15.0629 14.6158 14.2859 11.9997 14.2859C9.38359 14.2859 7.98184 15.0629 7.2364 15.8083C6.46115 16.5836 6.28706 17.4285 6.28544 17.7105H17.714Z" fill="#667085"/>
</g>
<defs>
<linearGradient id="paint0_linear_6885_122284" x1="12" y1="0" x2="12" y2="24" gradientUnits="userSpaceOnUse">
<stop stop-color="#F9FAFB"/>
<stop offset="1" stop-color="#EDF0F3"/>
</linearGradient>
<clipPath id="clip0_6885_122284">
<rect width="24" height="24" rx="12" fill="white"/>
</clipPath>
</defs>
</svg>
