<svg width="52" height="52" viewBox="0 0 52 52" fill="none" xmlns="http://www.w3.org/2000/svg">
<rect x="2" y="2" width="48" height="48" rx="4" fill="white"/>
<rect x="2" y="2" width="48" height="48" rx="4" fill="url(#paint0_radial_7761_26737)"/>
<rect x="1" y="1" width="50" height="50" rx="5" stroke="url(#paint1_radial_7761_26737)" stroke-opacity="0.25" stroke-width="2"/>
<path d="M35.5 24H17.5M30.5 16V20M22.5 16V20M22.3 36H30.7C32.3802 36 33.2202 36 33.862 35.673C34.4265 35.3854 34.8854 34.9265 35.173 34.362C35.5 33.7202 35.5 32.8802 35.5 31.2V22.8C35.5 21.1198 35.5 20.2798 35.173 19.638C34.8854 19.0735 34.4265 18.6146 33.862 18.327C33.2202 18 32.3802 18 30.7 18H22.3C20.6198 18 19.7798 18 19.138 18.327C18.5735 18.6146 18.1146 19.0735 17.827 19.638C17.5 20.2798 17.5 21.1198 17.5 22.8V31.2C17.5 32.8802 17.5 33.7202 17.827 34.362C18.1146 34.9265 18.5735 35.3854 19.138 35.673C19.7798 36 20.6198 36 22.3 36Z" stroke="white" stroke-width="2" stroke-linecap="round" stroke-linejoin="round"/>
<defs>
<radialGradient id="paint0_radial_7761_26737" cx="0" cy="0" r="1" gradientUnits="userSpaceOnUse" gradientTransform="translate(1.40676 3.32231) rotate(42.9555) scale(60.9904 863.324)">
<stop stop-color="#1AB3FF"/>
<stop offset="1" stop-color="#FFB258"/>
</radialGradient>
<radialGradient id="paint1_radial_7761_26737" cx="0" cy="0" r="1" gradientUnits="userSpaceOnUse" gradientTransform="translate(1.40676 3.32231) rotate(42.9555) scale(60.9904 863.324)">
<stop stop-color="#1AB3FF"/>
<stop offset="1" stop-color="#FFB258"/>
</radialGradient>
</defs>
</svg>
