<svg width="41" height="41" viewBox="0 0 41 41" fill="none" xmlns="http://www.w3.org/2000/svg">
<rect x="0.25" y="0.359375" width="40" height="40" rx="20" fill="#BAE8FF"/>
<rect x="0.25" y="0.359375" width="40" height="40" rx="20" stroke="#EBF8FF"/>
<path d="M8.25 14.5C8.25 12.8431 9.59315 11.5 11.25 11.5H29.25C30.9069 11.5 32.25 12.8431 32.25 14.5V26.5C32.25 28.1569 30.9069 29.5 29.25 29.5H11.25C9.59315 29.5 8.25 28.1569 8.25 26.5V14.5ZM11.25 13C10.4216 13 9.75 13.6716 9.75 14.5V14.8254L20.25 21.1254L30.75 14.8254V14.5C30.75 13.6716 30.0784 13 29.25 13H11.25ZM30.75 16.5746L23.6879 20.8119L30.75 25.1578V16.5746ZM30.6994 26.8879L22.2387 21.6814L20.25 22.8746L18.2613 21.6814L9.80065 26.8879C9.97162 27.5283 10.5557 28 11.25 28H29.25C29.9443 28 30.5284 27.5283 30.6994 26.8879ZM9.75 25.1578L16.8121 20.8119L9.75 16.5746V25.1578Z" fill="#1AB2FF"/>
</svg>
