<svg width="638" height="264" viewBox="0 0 638 264" fill="none" xmlns="http://www.w3.org/2000/svg">
                        <circle cx="319" cy="116.727" r="113.455" fill="#EAECF0" />
                        <g filter="url(#filter0_dd_8899_422327)">
                            <path d="M278.89 151.162H358.907C362.925 151.162 366.182 147.906 366.182 143.888V42.5495L344.359 20.7266H278.89C274.873 20.7266 271.616 23.9834 271.616 28.0009V143.888C271.616 147.906 274.873 151.162 278.89 151.162Z" fill="url(#paint0_linear_8899_422327)" />
                            <path d="M344.358 20.7266L366.181 42.5495H344.358V20.7266Z" fill="#D0D5DD" />
                        </g>
                        <circle cx="199" cy="27.2724" r="10.9091" fill="#F2F4F7" />
                        <circle cx="192.454" cy="241.091" r="15.2727" fill="#F2F4F7" />
                        <circle cx="469.545" cy="79.636" r="15.2727" fill="#F2F4F7" />
                        <circle cx="445.545" cy="20.7273" r="8.72727" fill="#F2F4F7" />
                        <g filter="url(#filter1_b_8899_422327)">
                            <rect x="266.636" y="138.545" width="104.727" height="104.727" rx="52.3636" fill="#344054" fill-opacity="0.4" />
                            <path d="M310.818 182.727C311.722 182.727 312.454 183.459 312.454 184.363V203.999C312.454 204.903 311.722 205.636 310.818 205.636C309.914 205.636 309.182 204.903 309.182 203.999V184.363C309.182 183.459 309.914 182.727 310.818 182.727Z" fill="white" />
                            <path d="M319 182.727C319.904 182.727 320.636 183.459 320.636 184.363V203.999C320.636 204.903 319.904 205.636 319 205.636C318.096 205.636 317.363 204.903 317.363 203.999V184.363C317.363 183.459 318.096 182.727 319 182.727Z" fill="white" />
                            <path d="M328.818 184.363C328.818 183.459 328.085 182.727 327.182 182.727C326.278 182.727 325.545 183.459 325.545 184.363V203.999C325.545 204.903 326.278 205.636 327.182 205.636C328.085 205.636 328.818 204.903 328.818 203.999V184.363Z" fill="white" />
                            <path fill-rule="evenodd" clip-rule="evenodd" d="M340.273 174.545C340.273 176.352 338.807 177.817 337 177.817H335.363V207.272C335.363 210.887 332.433 213.817 328.818 213.817H309.182C305.567 213.817 302.636 210.887 302.636 207.272V177.817H301C299.192 177.817 297.727 176.352 297.727 174.545V171.272C297.727 169.465 299.192 167.999 301 167.999H312.454C312.454 166.192 313.92 164.727 315.727 164.727H322.273C324.08 164.727 325.545 166.192 325.545 167.999H337C338.807 167.999 340.273 169.465 340.273 171.272V174.545ZM306.295 177.817L305.909 178.011V207.272C305.909 209.079 307.374 210.545 309.182 210.545H328.818C330.625 210.545 332.091 209.079 332.091 207.272V178.011L331.704 177.817H306.295ZM301 174.545V171.272H337V174.545H301Z" fill="white" />
                        </g>
                        <g clip-path="url(#clip0_8899_422327)">
                            <g clip-path="url(#clip1_8899_422327)">
                                <path d="M311.255 77.0713C312.083 77.0713 312.742 77.3161 313.233 77.8056C313.734 78.2853 313.984 79.0049 313.984 79.9644V85.0605H311.255V80.5666C311.255 80.0672 311.157 79.705 310.963 79.4798C310.769 79.2546 310.483 79.142 310.105 79.142C309.726 79.142 309.409 79.2889 309.154 79.5826C308.909 79.8665 308.786 80.2924 308.786 80.8603V85.0605H306.072V80.5666C306.072 80.0672 305.975 79.705 305.78 79.4798C305.586 79.2546 305.3 79.142 304.922 79.142C304.543 79.142 304.227 79.2889 303.971 79.5826C303.726 79.8665 303.603 80.2924 303.603 80.8603V85.0605H300.874V77.2622H303.496V78.3196H303.557C304.16 77.4874 304.998 77.0713 306.072 77.0713C306.624 77.0713 307.104 77.1839 307.513 77.4091C307.922 77.6245 308.239 77.9524 308.464 78.393C308.822 77.9916 309.215 77.6734 309.645 77.4384C310.074 77.1937 310.611 77.0713 311.255 77.0713ZM322.889 82.7107C322.787 83.1121 322.573 83.5087 322.245 83.9003C321.918 84.2821 321.458 84.6052 320.865 84.8696C320.272 85.1241 319.547 85.2514 318.688 85.2514C317.328 85.2514 316.265 84.8891 315.498 84.1646C314.732 83.4401 314.348 82.4464 314.348 81.1834C314.348 79.9008 314.727 78.8972 315.483 78.1727C316.25 77.4384 317.313 77.0713 318.673 77.0713C320.012 77.0713 321.065 77.4287 321.831 78.1434C322.608 78.8581 322.997 79.8861 322.997 81.2274L322.982 81.6827H317.155C317.155 82.2603 317.293 82.7205 317.569 83.0632C317.855 83.3961 318.228 83.5625 318.688 83.5625C319.107 83.5625 319.429 83.4646 319.654 83.2688C319.879 83.073 320.027 82.8331 320.099 82.5492L322.889 82.7107ZM318.673 78.7161C318.223 78.7161 317.865 78.8532 317.599 79.1273C317.333 79.3917 317.19 79.7441 317.17 80.1847H320.191C320.17 79.7441 320.022 79.3917 319.746 79.1273C319.48 78.8532 319.122 78.7161 318.673 78.7161ZM311.255 86.5361C312.083 86.5361 312.742 86.7809 313.233 87.2704C313.734 87.7501 313.984 88.4697 313.984 89.4293V94.5253H311.255V90.0314C311.255 89.532 311.157 89.1698 310.963 88.9446C310.769 88.7194 310.483 88.6068 310.105 88.6068C309.726 88.6068 309.409 88.7536 309.154 89.0475C308.909 89.3313 308.786 89.7572 308.786 90.3251V94.5253H306.072V90.0314C306.072 89.532 305.975 89.1698 305.78 88.9446C305.586 88.7194 305.3 88.6068 304.922 88.6068C304.543 88.6068 304.227 88.7536 303.971 89.0475C303.726 89.3313 303.603 89.7572 303.603 90.3251V94.5253H300.874V86.727H303.496V87.7844H303.557C304.16 86.9522 304.998 86.5361 306.072 86.5361C306.624 86.5361 307.104 86.6487 307.513 86.8739C307.922 87.0893 308.239 87.4172 308.464 87.8578C308.822 87.4564 309.215 87.1382 309.645 86.9032C310.074 86.6585 310.611 86.5361 311.255 86.5361ZM319.915 94.5253C319.761 94.3491 319.685 93.9721 319.685 93.3945C319.49 93.8057 319.153 94.1287 318.673 94.3637C318.202 94.5987 317.661 94.7162 317.047 94.7162C316.577 94.7162 316.132 94.6232 315.713 94.4371C315.294 94.2512 314.957 93.9867 314.701 93.6441C314.446 93.3015 314.318 92.8952 314.318 92.4252C314.318 91.6322 314.589 91.0398 315.131 90.6482C315.672 90.2565 316.495 89.9922 317.599 89.8551C318.161 89.7768 318.591 89.7034 318.887 89.6348C319.184 89.5565 319.388 89.4732 319.501 89.3852C319.623 89.2873 319.685 89.1599 319.685 89.0034C319.685 88.7585 319.582 88.5726 319.378 88.4452C319.184 88.3083 318.908 88.2397 318.55 88.2397C318.223 88.2397 317.937 88.3277 317.691 88.504C317.446 88.6802 317.272 88.93 317.17 89.253L314.64 89.0034C314.814 88.2298 315.253 87.6277 315.959 87.197C316.664 86.7564 317.543 86.5361 318.596 86.5361C319.853 86.5361 320.804 86.7711 321.448 87.241C322.092 87.7012 322.414 88.3572 322.414 89.2089V93.0713C322.414 93.4924 322.424 93.8105 322.445 94.0259C322.475 94.2316 322.537 94.398 322.629 94.5253H319.915ZM319.685 90.8537C319.572 90.9223 319.388 90.986 319.133 91.0447C318.877 91.0936 318.596 91.1426 318.289 91.1915C317.492 91.3383 317.093 91.6811 317.093 92.2195C317.093 92.4838 317.18 92.6944 317.354 92.8511C317.538 92.9979 317.778 93.0713 318.075 93.0713C318.32 93.0713 318.565 93.0175 318.811 92.9098C319.056 92.8021 319.26 92.6357 319.424 92.4104C319.598 92.1756 319.685 91.8818 319.685 91.5293V90.8537ZM328.179 92.6013V94.5253C328.015 94.5449 327.463 94.5546 326.523 94.5546C325.858 94.5546 325.337 94.5008 324.959 94.393C324.591 94.2757 324.315 94.07 324.131 93.7763C323.957 93.4825 323.87 93.0517 323.87 92.4838V88.3572H322.628V86.727H323.87V84.5828H326.584V86.727H328.209V88.3572H326.584V91.8671C326.584 92.1804 326.651 92.3811 326.783 92.4692C326.927 92.5574 327.192 92.6013 327.581 92.6013H328.179ZM336.745 92.1756C336.643 92.5769 336.428 92.9734 336.101 93.365C335.774 93.7469 335.314 94.07 334.721 94.3343C334.128 94.589 333.402 94.7162 332.544 94.7162C331.184 94.7162 330.121 94.354 329.354 93.6294C328.588 92.9049 328.204 91.9111 328.204 90.6482C328.204 89.3656 328.582 88.3621 329.339 87.6375C330.106 86.9032 331.169 86.5361 332.528 86.5361C333.867 86.5361 334.921 86.8934 335.687 87.6082C336.464 88.3229 336.853 89.3509 336.853 90.6922L336.837 91.1474H331.01C331.01 91.7252 331.148 92.1853 331.424 92.5279C331.711 92.8608 332.084 93.0273 332.544 93.0273C332.963 93.0273 333.285 92.9294 333.51 92.7336C333.735 92.5378 333.883 92.2979 333.954 92.014L336.745 92.1756ZM332.528 88.1809C332.079 88.1809 331.721 88.318 331.455 88.5921C331.189 88.8565 331.046 89.2089 331.026 89.6495H334.047C334.026 89.2089 333.878 88.8565 333.602 88.5921C333.336 88.318 332.978 88.1809 332.528 88.1809Z" fill="url(#paint1_radial_8899_422327)" />
                            </g>
                        </g>
                        <defs>
                            <filter id="filter0_dd_8899_422327" x="227.979" y="20.7266" width="181.839" height="217.708" filterUnits="userSpaceOnUse" color-interpolation-filters="sRGB">
                                <feFlood flood-opacity="0" result="BackgroundImageFix" />
                                <feColorMatrix in="SourceAlpha" type="matrix" values="0 0 0 0 0 0 0 0 0 0 0 0 0 0 0 0 0 0 127 0" result="hardAlpha" />
                                <feMorphology radius="8.72727" operator="erode" in="SourceAlpha" result="effect1_dropShadow_8899_422327" />
                                <feOffset dy="17.4545" />
                                <feGaussianBlur stdDeviation="8.72727" />
                                <feColorMatrix type="matrix" values="0 0 0 0 0.0627451 0 0 0 0 0.0941176 0 0 0 0 0.156863 0 0 0 0.03 0" />
                                <feBlend mode="normal" in2="BackgroundImageFix" result="effect1_dropShadow_8899_422327" />
                                <feColorMatrix in="SourceAlpha" type="matrix" values="0 0 0 0 0 0 0 0 0 0 0 0 0 0 0 0 0 0 127 0" result="hardAlpha" />
                                <feMorphology radius="8.72727" operator="erode" in="SourceAlpha" result="effect2_dropShadow_8899_422327" />
                                <feOffset dy="43.6364" />
                                <feGaussianBlur stdDeviation="26.1818" />
                                <feColorMatrix type="matrix" values="0 0 0 0 0.0627451 0 0 0 0 0.0941176 0 0 0 0 0.156863 0 0 0 0.08 0" />
                                <feBlend mode="normal" in2="effect1_dropShadow_8899_422327" result="effect2_dropShadow_8899_422327" />
                                <feBlend mode="normal" in="SourceGraphic" in2="effect2_dropShadow_8899_422327" result="shape" />
                            </filter>
                            <filter id="filter1_b_8899_422327" x="249.182" y="121.09" width="139.636" height="139.637" filterUnits="userSpaceOnUse" color-interpolation-filters="sRGB">
                                <feFlood flood-opacity="0" result="BackgroundImageFix" />
                                <feGaussianBlur in="BackgroundImageFix" stdDeviation="8.72727" />
                                <feComposite in2="SourceAlpha" operator="in" result="effect1_backgroundBlur_8899_422327" />
                                <feBlend mode="normal" in="SourceGraphic" in2="effect1_backgroundBlur_8899_422327" result="shape" />
                            </filter>
                            <linearGradient id="paint0_linear_8899_422327" x1="274.909" y1="149.618" x2="266.594" y2="30.6996" gradientUnits="userSpaceOnUse">
                                <stop stop-color="#E4E7EC" />
                                <stop offset="1" stop-color="#F9FAFB" />
                            </linearGradient>
                            <radialGradient id="paint1_radial_8899_422327" cx="0" cy="0" r="1" gradientUnits="userSpaceOnUse" gradientTransform="translate(300.429 77.5574) rotate(24.5421) scale(36.7818 394.445)">
                                <stop stop-color="#1AB3FF" />
                                <stop offset="1" stop-color="#FFB258" />
                            </radialGradient>
                            <clipPath id="clip0_8899_422327">
                                <rect width="36" height="18" fill="white" transform="translate(300.898 76.9443)" />
                            </clipPath>
                            <clipPath id="clip1_8899_422327">
                                <rect width="36" height="17.7465" fill="white" transform="translate(300.898 77.0713)" />
                            </clipPath>
                        </defs>
                    </svg>