<svg width="20" height="21" viewBox="0 0 20 21" fill="none" xmlns="http://www.w3.org/2000/svg">
<g id="file-text">
<g id="Union">
<path d="M6.25 5.5C5.90482 5.5 5.625 5.77982 5.625 6.125C5.625 6.47018 5.90482 6.75 6.25 6.75H13.75C14.0952 6.75 14.375 6.47018 14.375 6.125C14.375 5.77982 14.0952 5.5 13.75 5.5H6.25Z" fill="#1D2939"/>
<path d="M5.625 8.625C5.625 8.27982 5.90482 8 6.25 8H13.75C14.0952 8 14.375 8.27982 14.375 8.625C14.375 8.97018 14.0952 9.25 13.75 9.25H6.25C5.90482 9.25 5.625 8.97018 5.625 8.625Z" fill="#1D2939"/>
<path d="M6.25 10.5C5.90482 10.5 5.625 10.7798 5.625 11.125C5.625 11.4702 5.90482 11.75 6.25 11.75H13.75C14.0952 11.75 14.375 11.4702 14.375 11.125C14.375 10.7798 14.0952 10.5 13.75 10.5H6.25Z" fill="#1D2939"/>
<path d="M6.25 13C5.90482 13 5.625 13.2798 5.625 13.625C5.625 13.9702 5.90482 14.25 6.25 14.25H10C10.3452 14.25 10.625 13.9702 10.625 13.625C10.625 13.2798 10.3452 13 10 13H6.25Z" fill="#1D2939"/>
<path d="M2.5 3C2.5 1.61929 3.61929 0.5 5 0.5H15C16.3807 0.5 17.5 1.61929 17.5 3V18C17.5 19.3807 16.3807 20.5 15 20.5H5C3.61929 20.5 2.5 19.3807 2.5 18V3ZM15 1.75H5C4.30964 1.75 3.75 2.30964 3.75 3V18C3.75 18.6904 4.30964 19.25 5 19.25H15C15.6904 19.25 16.25 18.6904 16.25 18V3C16.25 2.30964 15.6904 1.75 15 1.75Z" fill="#1D2939"/>
</g>
</g>
</svg>
