<svg width="20" height="21" viewBox="0 0 20 21" fill="none" xmlns="http://www.w3.org/2000/svg">
<g id="envelope">
<path id="Rectangle 394 (Stroke)" d="M0 5.5C0 4.11929 1.11929 3 2.5 3H17.5C18.8807 3 20 4.11929 20 5.5V15.5C20 16.8807 18.8807 18 17.5 18H2.5C1.11929 18 0 16.8807 0 15.5V5.5ZM2.5 4.25C1.80964 4.25 1.25 4.80964 1.25 5.5V5.77113L10 11.0211L18.75 5.77113V5.5C18.75 4.80964 18.1904 4.25 17.5 4.25H2.5ZM18.75 7.22887L12.8649 10.7599L18.75 14.3815V7.22887ZM18.7078 15.8233L11.6573 11.4845L10 12.4789L8.34272 11.4845L1.29221 15.8233C1.43468 16.3569 1.92144 16.75 2.5 16.75H17.5C18.0786 16.75 18.5653 16.3569 18.7078 15.8233ZM1.25 14.3815L7.1351 10.7599L1.25 7.22887V14.3815Z" fill="#667085"/>
</g>
</svg>
