<svg width="17" height="17" viewBox="0 0 17 17" fill="none" xmlns="http://www.w3.org/2000/svg">
<g id="exclamation-circle">
<g id="Vector">
<path d="M8.5 15.5C4.63401 15.5 1.5 12.366 1.5 8.5C1.5 4.63401 4.63401 1.5 8.5 1.5C12.366 1.5 15.5 4.63401 15.5 8.5C15.5 12.366 12.366 15.5 8.5 15.5ZM8.5 16.5C12.9183 16.5 16.5 12.9183 16.5 8.5C16.5 4.08172 12.9183 0.5 8.5 0.5C4.08172 0.5 0.5 4.08172 0.5 8.5C0.5 12.9183 4.08172 16.5 8.5 16.5Z" fill="#F04438"/>
<path d="M7.50154 11.5C7.50154 10.9477 7.94926 10.5 8.50154 10.5C9.05383 10.5 9.50154 10.9477 9.50154 11.5C9.50154 12.0523 9.05383 12.5 8.50154 12.5C7.94926 12.5 7.50154 12.0523 7.50154 11.5Z" fill="#F04438"/>
<path d="M7.5995 5.49504C7.54623 4.96228 7.96459 4.5 8.5 4.5C9.03541 4.5 9.45377 4.96228 9.4005 5.49504L9.04975 9.00248C9.02151 9.28492 8.78384 9.5 8.5 9.5C8.21616 9.5 7.97849 9.28492 7.95025 9.00248L7.5995 5.49504Z" fill="#F04438"/>
</g>
</g>
</svg>
