<svg width="56" height="56" viewBox="0 0 56 56" fill="none" xmlns="http://www.w3.org/2000/svg">
<rect x="4" y="4" width="48" height="48" rx="24" fill="#FEE4E2"/>
<rect x="4" y="4" width="48" height="48" rx="24" stroke="#FEF3F2" stroke-width="8"/>
<path d="M28 38.5C22.201 38.5 17.5 33.799 17.5 28C17.5 22.201 22.201 17.5 28 17.5C33.799 17.5 38.5 22.201 38.5 28C38.5 33.799 33.799 38.5 28 38.5ZM28 40C34.6274 40 40 34.6274 40 28C40 21.3726 34.6274 16 28 16C21.3726 16 16 21.3726 16 28C16 34.6274 21.3726 40 28 40Z" fill="#B54708"/>
<path d="M23.8827 24.6792C23.8713 24.8835 24.0399 25.0491 24.2445 25.0491H25.4812C25.6883 25.0491 25.853 24.8802 25.8808 24.675C26.0143 23.6908 26.6898 22.9734 27.8938 22.9734C28.9221 22.9734 29.8648 23.4875 29.8648 24.7253C29.8648 25.6775 29.303 26.1155 28.4175 26.782C27.4082 27.5151 26.6084 28.3721 26.6656 29.7622L26.67 30.0874C26.6728 30.2925 26.8399 30.4573 27.045 30.4573H28.2615C28.4686 30.4573 28.6365 30.2894 28.6365 30.0823V29.9241C28.6365 28.8481 29.0459 28.5339 30.1504 27.696C31.0645 27.001 32.0166 26.2297 32.0166 24.6111C32.0166 22.345 30.1028 21.25 28.0081 21.25C26.1075 21.25 24.0245 22.1359 23.8827 24.6792ZM26.218 33.3232C26.218 34.123 26.856 34.7134 27.732 34.7134C28.646 34.7134 29.2744 34.123 29.2744 33.3232C29.2744 32.4949 28.646 31.9141 27.732 31.9141C26.856 31.9141 26.218 32.4949 26.218 33.3232Z" fill="#B54708"/>
</svg>
