<svg width="78" height="40" viewBox="0 0 78 40" fill="none" xmlns="http://www.w3.org/2000/svg">
<g clip-path="url(#clip0_5592_10317)">
<path d="M20.4955 3.00601C22.0402 3.00601 23.2703 3.4828 24.1857 4.43635C25.1202 5.37083 25.5875 6.77253 25.5875 8.64149V18.5679H20.4955V9.81435C20.4955 8.84173 20.3143 8.1361 19.952 7.69748C19.5896 7.25885 19.0556 7.03954 18.35 7.03954C17.6444 7.03954 17.0532 7.32559 16.5764 7.89772C16.1187 8.45078 15.8898 9.28038 15.8898 10.3865V18.5679H10.8265V9.81435C10.8265 8.84173 10.6453 8.1361 10.283 7.69748C9.92062 7.25885 9.38663 7.03954 8.68103 7.03954C7.97539 7.03954 7.3842 7.32559 6.90741 7.89772C6.44972 8.45078 6.22087 9.28038 6.22087 10.3865V18.5679H1.12891V3.3779H6.0206V5.43756H6.13504C7.26023 3.81652 8.82404 3.00601 10.8265 3.00601C11.8563 3.00601 12.7527 3.22532 13.5155 3.66397C14.2783 4.08353 14.8696 4.7224 15.2891 5.5806C15.9566 4.7987 16.6908 4.17887 17.4918 3.72118C18.2928 3.24439 19.294 3.00601 20.4955 3.00601ZM42.2011 13.9909C42.0105 14.7728 41.6099 15.5452 40.9996 16.308C40.3894 17.0518 39.5311 17.6811 38.4251 18.1961C37.319 18.6919 35.965 18.9398 34.3629 18.9398C31.8266 18.9398 29.8431 18.2342 28.4127 16.823C26.9826 15.4117 26.2673 13.476 26.2673 11.0158C26.2673 8.51754 26.9728 6.56275 28.3843 5.15151C29.8144 3.72118 31.7979 3.00601 34.3344 3.00601C36.8325 3.00601 38.797 3.70211 40.2272 5.09428C41.6768 6.48648 42.4013 8.48892 42.4013 11.1016L42.3729 11.9885H31.5023C31.5023 13.1136 31.7597 14.01 32.2746 14.6775C32.8087 15.3259 33.5048 15.6501 34.3629 15.6501C35.1448 15.6501 35.7456 15.4594 36.1651 15.0779C36.5847 14.6965 36.8612 14.2293 36.9948 13.6762L42.2011 13.9909ZM34.3344 6.20994C33.4953 6.20994 32.8276 6.47695 32.332 7.01091C31.836 7.52583 31.569 8.2124 31.5308 9.07058H37.1665C37.1283 8.2124 36.8517 7.52583 36.3368 7.01091C35.8409 6.47695 35.1735 6.20994 34.3344 6.20994ZM20.4955 21.4422C22.0402 21.4422 23.2703 21.919 24.1857 22.8726C25.1202 23.807 25.5875 25.2087 25.5875 27.0778V37.0042H20.4955V28.2506C20.4955 27.278 20.3143 26.5724 19.952 26.1336C19.5896 25.6951 19.0556 25.4757 18.35 25.4757C17.6444 25.4757 17.0532 25.7618 16.5764 26.3341C16.1187 26.8869 15.8898 27.7165 15.8898 28.8227V37.0042H10.8265V28.2506C10.8265 27.278 10.6453 26.5724 10.283 26.1336C9.92062 25.6951 9.38663 25.4757 8.68103 25.4757C7.97539 25.4757 7.3842 25.7618 6.90741 26.3341C6.44972 26.8869 6.22087 27.7165 6.22087 28.8227V37.0042H1.12891V21.8141H6.0206V23.8738H6.13504C7.26023 22.2527 8.82404 21.4422 10.8265 21.4422C11.8563 21.4422 12.7527 21.6615 13.5155 22.1002C14.2783 22.5197 14.8696 23.1586 15.2891 24.0168C15.9566 23.2349 16.6908 22.6151 17.4918 22.1574C18.2928 21.6806 19.294 21.4422 20.4955 21.4422ZM36.6516 37.0042C36.3653 36.661 36.2223 35.9267 36.2223 34.8016C35.8601 35.6025 35.2307 36.2317 34.3344 36.6894C33.4571 37.1472 32.4463 37.376 31.3019 37.376C30.4249 37.376 29.5953 37.1948 28.8133 36.8324C28.0313 36.4703 27.4021 35.9551 26.9252 35.2877C26.4485 34.6204 26.2101 33.8289 26.2101 32.9134C26.2101 31.3687 26.7155 30.2149 27.7263 29.4522C28.7369 28.6892 30.2721 28.1743 32.332 27.9072C33.3807 27.7547 34.1817 27.6117 34.7347 27.4782C35.2878 27.3257 35.6692 27.1634 35.8791 26.992C36.108 26.8013 36.2223 26.5532 36.2223 26.2482C36.2223 25.7712 36.0316 25.4091 35.6502 25.161C35.2878 24.8942 34.7729 24.7607 34.1055 24.7607C33.4953 24.7607 32.9612 24.9321 32.5034 25.2756C32.0457 25.6187 31.7217 26.1052 31.5308 26.7344L26.8109 26.2482C27.1351 24.7414 27.9552 23.5687 29.271 22.7295C30.5869 21.8713 32.2269 21.4422 34.1914 21.4422C36.537 21.4422 38.3106 21.8999 39.5121 22.8153C40.7136 23.7117 41.3144 24.9895 41.3144 26.6485V34.1721C41.3144 34.9922 41.3333 35.612 41.3715 36.0315C41.4287 36.4321 41.5432 36.7563 41.7147 37.0042H36.6516ZM36.2223 29.8525C36.0126 29.986 35.6692 30.1101 35.1925 30.2244C34.7158 30.3197 34.1914 30.4151 33.6191 30.5104C32.1315 30.7964 31.3878 31.4641 31.3878 32.5128C31.3878 33.0277 31.55 33.4378 31.8742 33.743C32.2174 34.0291 32.6657 34.1721 33.2188 34.1721C33.6765 34.1721 34.134 34.0673 34.5917 33.8574C35.0495 33.6477 35.4308 33.3235 35.7361 32.8847C36.0603 32.4272 36.2223 31.8549 36.2223 31.1683V29.8525ZM52.0687 33.2566V37.0042C51.7637 37.0423 50.734 37.0613 48.9794 37.0613C47.7396 37.0613 46.767 36.9565 46.0614 36.7466C45.3748 36.518 44.8599 36.1174 44.5167 35.5453C44.1925 34.973 44.0303 34.1339 44.0303 33.0277V24.9895H41.7134V21.8141H44.0303V17.6376H49.0937V21.8141H52.1259V24.9895H49.0937V31.8265C49.0937 32.4367 49.2177 32.8276 49.4655 32.9993C49.7326 33.171 50.2285 33.2566 50.9531 33.2566H52.0687ZM68.05 32.4272C67.8594 33.2089 67.4588 33.9814 66.8485 34.7441C66.2383 35.4879 65.3799 36.1174 64.274 36.6323C63.1679 37.1282 61.8139 37.376 60.2117 37.376C57.6754 37.376 55.692 36.6705 54.2616 35.259C52.8315 33.8479 52.1161 31.9121 52.1161 29.4522C52.1161 26.9538 52.8217 24.999 54.2331 23.5877C55.6633 22.1574 57.6467 21.4422 60.1833 21.4422C62.6814 21.4422 64.6459 22.1383 66.076 23.5305C67.5257 24.9226 68.2502 26.9251 68.2502 29.5378L68.2218 30.4245H57.3512C57.3512 31.5499 57.6086 32.4462 58.1234 33.1136C58.6576 33.762 59.3537 34.0862 60.2117 34.0862C60.9937 34.0862 61.5945 33.8955 62.014 33.5142C62.4336 33.1328 62.7101 32.6656 62.8436 32.1125L68.05 32.4272ZM60.1833 24.6461C59.3442 24.6461 58.6765 24.9132 58.1809 25.447C57.6849 25.9622 57.4179 26.6485 57.3797 27.5069H63.0154C62.9772 26.6485 62.7006 25.9622 62.1857 25.447C61.6898 24.9132 61.0224 24.6461 60.1833 24.6461Z" fill="url(#paint0_radial_5592_10317)"/>
<path d="M75.0436 24.364L73.9817 21.7054H74.5706L75.2314 23.4609L75.8888 21.7054H76.4777L75.4194 24.364H75.0436ZM73.7757 24.364V21.7054H74.4441V24.364H73.7757ZM76.0152 24.364V21.7054H76.687V24.364H76.0152ZM71.8325 24.364V21.9366H72.5044V24.364H71.8325ZM71.0234 22.258V21.7054H73.3135V22.258H71.0234Z" fill="black"/>
</g>
<defs>
<radialGradient id="paint0_radial_5592_10317" cx="0" cy="0" r="1" gradientUnits="userSpaceOnUse" gradientTransform="translate(0.299344 3.95284) rotate(25.4899) scale(69.1508 762.422)">
<stop stop-color="#1AB3FF"/>
<stop offset="1" stop-color="#FFB258"/>
</radialGradient>
<clipPath id="clip0_5592_10317">
<rect width="77.037" height="40" fill="white" transform="translate(0.480469)"/>
</clipPath>
</defs>
</svg>
