<svg width="100" height="73" viewBox="0 0 100 73" fill="none" xmlns="http://www.w3.org/2000/svg">
<g id="Group">
<g id="Group_2">
<path id="Vector" d="M9.53421 8.94562C10.0466 9.88206 10.6297 11.0305 11.3011 12.3999C11.9637 13.7692 12.6616 15.2533 13.386 16.8524C14.1104 18.4514 14.826 20.0857 15.5327 21.7466C16.2395 23.4163 16.9109 24.98 17.5293 26.4553C18.1565 24.9888 18.8191 23.4163 19.5259 21.7466C20.2326 20.0769 20.9482 18.4426 21.6726 16.8524C22.397 15.2533 23.0861 13.7692 23.7575 12.3999C24.4201 11.0305 25.012 9.87323 25.5244 8.94562H31.5494C31.8321 10.898 32.0972 13.0801 32.3357 15.5007C32.5742 17.9213 32.7862 20.4303 32.9718 23.0452C33.1573 25.6602 33.3251 28.284 33.4841 30.9078C33.6432 33.5405 33.7757 36.0141 33.8905 38.3287H27.4414C27.3531 35.4752 27.2471 32.3655 27.1057 28.9996C26.9644 25.6337 26.7524 22.2413 26.4697 18.8224C25.9573 20.0062 25.3919 21.3226 24.7646 22.7626C24.1374 24.2026 23.5278 25.6426 22.9183 27.0914C22.3087 28.5314 21.7168 29.9095 21.1514 31.2259C20.586 32.5422 20.1001 33.6641 19.7026 34.6006H15.0822C14.6846 33.6641 14.1987 32.5422 13.6334 31.2259C13.068 29.9095 12.4761 28.5314 11.8665 27.0914C11.2569 25.6514 10.6385 24.2114 10.0201 22.7626C9.39286 21.3226 8.82746 20.0062 8.31507 18.8224C8.03237 22.2413 7.82034 25.6337 7.679 28.9996C7.52881 32.3743 7.41396 35.484 7.33446 38.3375H0.885376C1.00022 36.0229 1.13274 33.5493 1.29176 30.9167C1.45077 28.284 1.61863 25.6691 1.80415 23.0541C1.98967 20.4391 2.20169 17.9213 2.44022 15.5095C2.67875 13.0889 2.94378 10.9068 3.22648 8.95445H9.53421V8.94562Z" fill="#303242"/>
<path id="Vector_2" d="M37.2299 27.3564C37.2299 25.3775 37.5302 23.646 38.1398 22.1618C38.7494 20.6776 39.5445 19.4408 40.5339 18.4514C41.5234 17.4619 42.663 16.711 43.944 16.2074C45.2338 15.6951 46.5501 15.4477 47.9106 15.4477C51.0733 15.4477 53.5822 16.4195 55.4198 18.3542C57.2573 20.2889 58.1761 23.1424 58.1761 26.897C58.1761 27.2681 58.1584 27.6656 58.1319 28.1073C58.1054 28.549 58.0789 28.9378 58.0436 29.2735H43.7143C43.8556 30.5721 44.4652 31.6057 45.5342 32.3655C46.6119 33.1252 48.0519 33.514 49.863 33.514C51.0203 33.514 52.1599 33.4079 53.273 33.1959C54.3862 32.9839 55.305 32.7189 56.0117 32.4097L56.8598 37.5424C56.5241 37.7103 56.0647 37.8781 55.4993 38.0548C54.9339 38.2227 54.3067 38.3728 53.6088 38.4965C52.9108 38.6202 52.1776 38.7262 51.3825 38.8146C50.5874 38.9029 49.8011 38.9382 49.0061 38.9382C47.0007 38.9382 45.2515 38.6379 43.7673 38.046C42.2831 37.4541 41.0551 36.6413 40.0745 35.6077C39.1027 34.5741 38.3783 33.3549 37.9101 31.9414C37.4596 30.5191 37.2299 28.9908 37.2299 27.3564ZM52.0716 24.9358C52.0451 24.3969 51.9479 23.8757 51.7977 23.3633C51.6387 22.8509 51.4002 22.4003 51.0733 22.0028C50.7464 21.6052 50.34 21.2784 49.8453 21.031C49.3506 20.7748 48.7322 20.6511 47.9989 20.6511C47.2922 20.6511 46.6826 20.7748 46.1791 21.0133C45.6667 21.2519 45.2426 21.5699 44.9069 21.9674C44.5712 22.365 44.3062 22.8244 44.1207 23.3456C43.9351 23.8668 43.8026 24.3969 43.7143 24.9358H52.0716Z" fill="#303242"/>
<path id="Vector_3" d="M9.53421 42.5162C10.0466 43.4526 10.6297 44.6011 11.3011 45.9704C11.9637 47.3397 12.6616 48.8239 13.386 50.4229C14.1104 52.0219 14.826 53.6563 15.5327 55.3172C16.2395 56.9868 16.9109 58.5505 17.5293 60.0259C18.1565 58.5594 18.8191 56.9868 19.5259 55.3172C20.2326 53.6475 20.9482 52.0131 21.6726 50.4229C22.397 48.8239 23.0861 47.3397 23.7575 45.9704C24.4201 44.6011 25.012 43.4438 25.5244 42.5162H31.5494C31.8321 44.4686 32.0972 46.6507 32.3357 49.0713C32.5742 51.4919 32.7862 54.0008 32.9718 56.6158C33.1573 59.2308 33.3251 61.8546 33.4841 64.4784C33.6432 67.111 33.7757 69.5846 33.8905 71.8992H27.4414C27.3531 69.0457 27.2471 65.9361 27.1057 62.5702C26.9644 59.2043 26.7524 55.8119 26.4697 52.393C25.9573 53.5768 25.3919 54.8931 24.7646 56.3331C24.1374 57.7731 23.5278 59.2131 22.9183 60.6619C22.3087 62.1019 21.7168 63.4801 21.1514 64.7964C20.586 66.1127 20.1001 67.2347 19.7026 68.1711H15.0822C14.6846 67.2347 14.1987 66.1127 13.6334 64.7964C13.068 63.4801 12.4761 62.1019 11.8665 60.6619C11.2569 59.2219 10.6385 57.7819 10.0201 56.3331C9.39286 54.8931 8.82746 53.5768 8.31507 52.393C8.03237 55.8119 7.82034 59.2043 7.679 62.5702C7.52881 65.9449 7.41396 69.0546 7.33446 71.9081H0.885376C1.00022 69.5935 1.13274 67.1199 1.29176 64.4872C1.45077 61.8546 1.61863 59.2396 1.80415 56.6246C1.98967 54.0097 2.20169 51.4919 2.44022 49.0801C2.67875 46.6595 2.94378 44.4774 3.22648 42.525H9.53421V42.5162Z" fill="#303242"/>
<path id="Vector_4" d="M46.3028 49.0094C48.1669 49.0094 49.7217 49.2214 50.9674 49.6455C52.213 50.0695 53.2113 50.6791 53.9534 51.4653C54.7043 52.2604 55.2344 53.2146 55.5436 54.3454C55.8528 55.4761 56.0118 56.7306 56.0118 58.1176V71.2631C55.1107 71.4575 53.8474 71.696 52.2395 71.9611C50.6317 72.2261 48.6793 72.3674 46.3912 72.3674C44.9512 72.3674 43.6437 72.2438 42.4687 71.9876C41.2938 71.7314 40.2866 71.3162 39.4385 70.7331C38.5904 70.15 37.9367 69.3991 37.4862 68.4627C37.0356 67.5262 36.8059 66.3866 36.8059 65.0261C36.8059 63.7274 37.0709 62.6231 37.5922 61.722C38.1134 60.8209 38.8113 60.0965 39.6947 59.5576C40.5693 59.0187 41.5765 58.63 42.7073 58.3915C43.8381 58.153 45.013 58.0293 46.2233 58.0293C47.0449 58.0293 47.7693 58.0646 48.4054 58.1353C49.0415 58.206 49.5539 58.2943 49.9514 58.4092V57.8173C49.9514 56.7395 49.6246 55.8825 48.9796 55.2288C48.3259 54.575 47.1951 54.257 45.5873 54.257C44.5095 54.257 43.4493 54.3365 42.4069 54.4867C41.3644 54.6457 40.4545 54.8577 39.6947 55.1404L38.8908 50.0519C39.2619 49.937 39.7212 49.8222 40.269 49.6896C40.8167 49.5571 41.4174 49.4511 42.0712 49.3539C42.7249 49.2568 43.4052 49.1684 44.1296 49.0977C44.8363 49.0447 45.5696 49.0094 46.3028 49.0094ZM46.8064 67.4997C47.4248 67.4997 48.0255 67.482 48.5909 67.4555C49.1563 67.429 49.6069 67.3849 49.9514 67.3319V62.5436C49.6952 62.4906 49.3154 62.4288 48.803 62.3758C48.2906 62.3228 47.8312 62.2874 47.4071 62.2874C46.8152 62.2874 46.2587 62.3228 45.7286 62.3934C45.2074 62.4641 44.748 62.5966 44.3504 62.7998C43.9529 62.9942 43.6437 63.2681 43.414 63.6038C43.1843 63.9395 43.0783 64.3635 43.0783 64.8759C43.0783 65.8654 43.414 66.5544 44.0766 66.9343C44.7392 67.3054 45.6491 67.4997 46.8064 67.4997Z" fill="#303242"/>
<path id="Vector_5" d="M60.4643 44.0445L66.7808 43.0286V49.6013H74.3696V54.8578H66.7808V62.7027C66.7808 64.0278 67.0105 65.088 67.4788 65.883C67.947 66.6781 68.8834 67.0669 70.2969 67.0669C70.9772 67.0669 71.6751 67.005 72.3995 66.8725C73.1239 66.7488 73.7777 66.5721 74.3696 66.3424L75.2618 71.2632C74.5021 71.5724 73.654 71.8462 72.7175 72.0671C71.7811 72.2968 70.6415 72.4028 69.281 72.4028C67.5583 72.4028 66.1271 72.1731 64.9963 71.7049C63.8655 71.2367 62.9644 70.5918 62.2842 69.7525C61.6039 68.9221 61.1357 67.9061 60.8618 66.7223C60.5968 65.5385 60.4554 64.2222 60.4554 62.7822V44.0445H60.4643Z" fill="#303242"/>
<path id="Vector_6" d="M76.5339 60.927C76.5339 58.9481 76.8343 57.2165 77.4439 55.7324C78.0535 54.2482 78.8485 53.0114 79.838 52.0219C80.8274 51.0325 81.9671 50.2816 83.2481 49.778C84.5379 49.2656 85.8542 49.0182 87.2147 49.0182C90.3774 49.0182 92.8863 49.99 94.7239 51.9248C96.5614 53.8595 97.4802 56.713 97.4802 60.4676C97.4802 60.8386 97.4625 61.2362 97.436 61.6779C97.4095 62.1196 97.383 62.5083 97.3477 62.844H83.0184C83.1597 64.1427 83.7693 65.1763 84.8382 65.936C85.916 66.6958 87.356 67.0845 89.1671 67.0845C90.3244 67.0845 91.464 66.9785 92.5771 66.7665C93.6903 66.5544 94.609 66.2894 95.3158 65.9802L96.1639 71.113C95.8282 71.2808 95.3688 71.4487 94.8034 71.6254C94.238 71.7932 93.6107 71.9434 92.9128 72.0671C92.2149 72.1908 91.4817 72.2968 90.6866 72.3851C89.8915 72.4735 89.1052 72.5088 88.3101 72.5088C86.3047 72.5088 84.5555 72.2084 83.0714 71.6165C81.5872 71.0246 80.3592 70.2119 79.3786 69.1782C78.4068 68.1446 77.6824 66.9255 77.2142 65.512C76.7636 64.0897 76.5339 62.5613 76.5339 60.927ZM91.3757 58.5064C91.3492 57.9675 91.252 57.4462 91.1018 56.9338C90.9428 56.4214 90.7042 55.9709 90.3774 55.5733C90.0505 55.1758 89.6441 54.8489 89.1494 54.6016C88.6547 54.3454 88.0363 54.2217 87.303 54.2217C86.5963 54.2217 85.9867 54.3454 85.4831 54.5839C84.9708 54.8224 84.5467 55.1405 84.211 55.538C83.8753 55.9356 83.6103 56.3949 83.4247 56.9162C83.2392 57.4374 83.1067 57.9675 83.0184 58.5064H91.3757Z" fill="#303242"/>
</g>
<g id="Group_3">
<path id="Vector_7" d="M99.1145 14.6262V43.2495H75.5621V36.0936H79.9793V38.8323H94.6974V19.0433H92.8598V14.6262H99.1145Z" fill="url(#paint0_linear_1254_114261)"/>
</g>
<path id="Vector_8" d="M99.1145 43.2495H75.5621V36.0936H79.9793V38.8323H94.6974L99.1145 43.2495Z" fill="url(#paint1_linear_1254_114261)"/>
<path id="Vector_9" d="M73.9632 0.5L63.0704 11.3928V32.5599H89.3261V0.5H73.9632ZM84.9001 28.1339H79.5288V26.2787C81.7728 25.8899 83.0096 24.4058 83.0096 22.6654C83.0096 20.9074 82.0731 19.8296 79.7409 19.008C78.08 18.3807 77.3998 17.9744 77.3998 17.3294C77.3998 16.7817 77.8061 16.234 79.0783 16.234C80.483 16.234 81.3841 16.6845 81.8964 16.8966L82.4618 14.688C81.8169 14.3788 80.9335 14.1049 79.626 14.0431V12.3204H77.709V14.1844C75.6152 14.5996 74.4049 15.9425 74.4049 17.6652C74.4049 19.5557 75.8361 20.5363 77.921 21.2431C79.3698 21.729 79.9971 22.206 79.9971 22.9481C79.9971 23.7255 79.2373 24.1584 78.1242 24.1584C76.852 24.1584 75.7036 23.752 74.882 23.3015L74.2989 25.5896C75.041 26.0225 76.3131 26.367 77.6206 26.4288V28.1515H67.4876V11.3928H73.9632V4.91718H84.9001V28.1339Z" fill="url(#paint2_linear_1254_114261)"/>
<path id="Vector_10" d="M67.4876 15.8099V11.3928H63.0704L67.4876 15.8099Z" fill="url(#paint3_linear_1254_114261)"/>
</g>
<defs>
<linearGradient id="paint0_linear_1254_114261" x1="87.3352" y1="14.6241" x2="87.3352" y2="43.2474" gradientUnits="userSpaceOnUse">
<stop stop-color="#EC7F00"/>
<stop offset="1" stop-color="#CF4800"/>
</linearGradient>
<linearGradient id="paint1_linear_1254_114261" x1="87.3352" y1="36.0916" x2="87.3352" y2="43.2474" gradientUnits="userSpaceOnUse">
<stop stop-color="#803400"/>
<stop offset="1" stop-color="#7C2B00"/>
</linearGradient>
<linearGradient id="paint2_linear_1254_114261" x1="76.1953" y1="0.5" x2="76.1953" y2="32.5552" gradientUnits="userSpaceOnUse">
<stop stop-color="#D12A6E"/>
<stop offset="1" stop-color="#8729AA"/>
</linearGradient>
<linearGradient id="paint3_linear_1254_114261" x1="65.2778" y1="11.3918" x2="65.2778" y2="15.809" gradientUnits="userSpaceOnUse">
<stop stop-color="#6E194E"/>
<stop offset="1" stop-color="#681953"/>
</linearGradient>
</defs>
</svg>
