<svg width="55" height="40" viewBox="0 0 55 40" fill="none" xmlns="http://www.w3.org/2000/svg">
<g id="Group">
<g id="Group_2">
<path id="Vector" d="M5.01877 4.69141C5.30344 5.21165 5.62736 5.84969 6.00037 6.61042C6.36847 7.37116 6.7562 8.1957 7.15865 9.08404C7.56111 9.97239 7.95865 10.8804 8.35129 11.8031C8.74393 12.7307 9.11693 13.5994 9.46049 14.419C9.80896 13.6043 10.1771 12.7307 10.5697 11.8031C10.9623 10.8755 11.3599 9.96748 11.7623 9.08404C12.1648 8.1957 12.5476 7.37116 12.9206 6.61042C13.2887 5.84969 13.6175 5.20674 13.9022 4.69141H17.2494C17.4065 5.77607 17.5537 6.98834 17.6863 8.33312C17.8188 9.67791 17.9366 11.0718 18.0396 12.5245C18.1427 13.9773 18.236 15.435 18.3243 16.8926C18.4126 18.3552 18.4863 19.7294 18.5501 21.0153H14.9672C14.9182 19.4301 14.8593 17.7024 14.7807 15.8325C14.7022 13.9626 14.5844 12.0779 14.4274 10.1785C14.1427 10.8362 13.8286 11.5675 13.4801 12.3675C13.1317 13.1675 12.793 13.9675 12.4544 14.7724C12.1157 15.5724 11.7869 16.338 11.4728 17.0693C11.1587 17.8006 10.8887 18.4239 10.6679 18.9442H8.10098C7.88012 18.4239 7.61019 17.8006 7.29608 17.0693C6.98197 16.338 6.65313 15.5724 6.31448 14.7724C5.97583 13.9724 5.63227 13.1724 5.28871 12.3675C4.94025 11.5675 4.62614 10.8362 4.34147 10.1785C4.18442 12.0779 4.06663 13.9626 3.9881 15.8325C3.90466 17.7074 3.84086 19.435 3.79669 21.0202H0.213867C0.277671 19.7344 0.351291 18.3601 0.439634 16.8975C0.527978 15.435 0.621229 13.9822 0.724297 12.5294C0.827364 11.0767 0.945156 9.67791 1.07767 8.33803C1.21019 6.99325 1.35743 5.78098 1.51448 4.69631H5.01877V4.69141Z" fill="#303242"/>
<path id="Vector_2" d="M20.4053 14.9187C20.4053 13.8193 20.5721 12.8573 20.9108 12.0328C21.2494 11.2083 21.6912 10.5211 22.2409 9.97145C22.7906 9.42175 23.4237 9.00458 24.1353 8.72482C24.8519 8.44016 25.5832 8.30273 26.339 8.30273C28.0961 8.30273 29.4899 8.84261 30.5108 9.91746C31.5317 10.9923 32.0421 12.5776 32.0421 14.6635C32.0421 14.8696 32.0323 15.0905 32.0175 15.3359C32.0028 15.5813 31.9881 15.7972 31.9685 15.9837H24.0077C24.0863 16.7052 24.4249 17.2794 25.0188 17.7015C25.6175 18.1236 26.4175 18.3395 27.4237 18.3395C28.0666 18.3395 28.6998 18.2806 29.3182 18.1629C29.9366 18.0451 30.447 17.8978 30.8396 17.726L31.3108 20.5776C31.1243 20.6708 30.8691 20.7641 30.555 20.8622C30.2409 20.9555 29.8924 21.0389 29.5047 21.1076C29.1169 21.1764 28.7096 21.2352 28.2678 21.2843C27.8261 21.3334 27.3893 21.353 26.9476 21.353C25.8335 21.353 24.8617 21.1862 24.0372 20.8573C23.2126 20.5285 22.5304 20.077 21.9856 19.5027C21.4458 18.9285 21.0433 18.2512 20.7832 17.4659C20.5329 16.6757 20.4053 15.8267 20.4053 14.9187ZM28.6507 13.5739C28.6359 13.2745 28.582 12.9849 28.4985 12.7003C28.4102 12.4156 28.2777 12.1653 28.0961 11.9445C27.9145 11.7236 27.6887 11.542 27.4139 11.4046C27.139 11.2622 26.7955 11.1935 26.3881 11.1935C25.9955 11.1935 25.6568 11.2622 25.3771 11.3948C25.0924 11.5273 24.8568 11.704 24.6703 11.9248C24.4838 12.1457 24.3366 12.4009 24.2335 12.6905C24.1304 12.98 24.0568 13.2745 24.0077 13.5739H28.6507Z" fill="#303242"/>
<path id="Vector_3" d="M5.01877 23.3418C5.30344 23.862 5.62736 24.5001 6.00037 25.2608C6.36847 26.0216 6.7562 26.8461 7.15865 27.7344C7.56111 28.6228 7.95865 29.5308 8.35129 30.4535C8.74393 31.3811 9.11693 32.2498 9.46049 33.0694C9.80896 32.2547 10.1771 31.3811 10.5697 30.4535C10.9623 29.5258 11.3599 28.6179 11.7623 27.7344C12.1648 26.8461 12.5476 26.0216 12.9206 25.2608C13.2887 24.5001 13.6175 23.8571 13.9022 23.3418H17.2494C17.4065 24.4265 17.5537 25.6387 17.6863 26.9835C17.8188 28.3283 17.9366 29.7222 18.0396 31.1749C18.1427 32.6277 18.236 34.0854 18.3243 35.543C18.4126 37.0056 18.4863 38.3798 18.5501 39.6657H14.9672C14.9182 38.0804 14.8593 36.3528 14.7807 34.4829C14.7022 32.613 14.5844 30.7283 14.4274 28.8289C14.1427 29.4866 13.8286 30.2179 13.4801 31.0179C13.1317 31.8179 12.793 32.6179 12.4544 33.4228C12.1157 34.2228 11.7869 34.9884 11.4728 35.7197C11.1587 36.451 10.8887 37.0743 10.6679 37.5946H8.10098C7.88012 37.0743 7.61019 36.451 7.29608 35.7197C6.98197 34.9884 6.65313 34.2228 6.31448 33.4228C5.97583 32.6228 5.63227 31.8228 5.28871 31.0179C4.94025 30.2179 4.62614 29.4866 4.34147 28.8289C4.18442 30.7283 4.06663 32.613 3.9881 34.4829C3.90466 36.3577 3.84086 38.0854 3.79669 39.6706H0.213867C0.277671 38.3847 0.351291 37.0105 0.439634 35.5479C0.527978 34.0854 0.621229 32.6326 0.724297 31.1798C0.827364 29.7271 0.945156 28.3283 1.07767 26.9884C1.21019 25.6436 1.35743 24.4314 1.51448 23.3467H5.01877V23.3418Z" fill="#303242"/>
<path id="Vector_4" d="M25.446 26.9492C26.4816 26.9492 27.3454 27.067 28.0374 27.3026C28.7294 27.5382 29.284 27.8768 29.6963 28.3136C30.1135 28.7554 30.408 29.2854 30.5797 29.9136C30.7515 30.5419 30.8399 31.2388 30.8399 32.0093V39.3124C30.3392 39.4204 29.6374 39.5529 28.7442 39.7001C27.8509 39.8474 26.7662 39.9259 25.4951 39.9259C24.6951 39.9259 23.9687 39.8572 23.3159 39.7149C22.6632 39.5725 22.1037 39.3419 21.6325 39.0179C21.1613 38.694 20.7981 38.2768 20.5478 37.7566C20.2975 37.2363 20.1699 36.6032 20.1699 35.8474C20.1699 35.1259 20.3172 34.5124 20.6067 34.0118C20.8963 33.5112 21.284 33.1087 21.7748 32.8093C22.2607 32.51 22.8202 32.294 23.4485 32.1615C24.0767 32.029 24.7294 31.9603 25.4018 31.9603C25.8583 31.9603 26.2607 31.9799 26.6141 32.0192C26.9675 32.0584 27.2521 32.1075 27.473 32.1713V31.8425C27.473 31.2437 27.2914 30.7676 26.9331 30.4044C26.5699 30.0412 25.9417 29.8646 25.0484 29.8646C24.4497 29.8646 23.8607 29.9087 23.2816 29.9922C22.7024 30.0805 22.1969 30.1983 21.7748 30.3554L21.3282 27.5284C21.5343 27.4646 21.7896 27.4008 22.0938 27.3271C22.3981 27.2535 22.7319 27.1946 23.0951 27.1406C23.4583 27.0866 23.8362 27.0376 24.2386 26.9983C24.6313 26.9688 25.0386 26.9492 25.446 26.9492ZM25.7258 37.2216C26.0693 37.2216 26.4031 37.2118 26.7172 37.1971C27.0313 37.1823 27.2816 37.1578 27.473 37.1284V34.4682C27.3307 34.4388 27.1196 34.4044 26.835 34.375C26.5503 34.3455 26.2951 34.3259 26.0595 34.3259C25.7307 34.3259 25.4215 34.3455 25.127 34.3848C24.8374 34.4241 24.5822 34.4977 24.3613 34.6106C24.1405 34.7185 23.9687 34.8707 23.8411 35.0572C23.7135 35.2437 23.6546 35.4793 23.6546 35.7639C23.6546 36.3136 23.8411 36.6965 24.2092 36.9075C24.5773 37.1136 25.0828 37.2216 25.7258 37.2216Z" fill="#303242"/>
<path id="Vector_5" d="M33.3135 24.1914L36.8227 23.627V27.2785H41.0387V30.1987H36.8227V34.557C36.8227 35.2932 36.9503 35.8822 37.2104 36.3239C37.4706 36.7656 37.9908 36.9816 38.7761 36.9816C39.154 36.9816 39.5417 36.9472 39.9442 36.8736C40.3466 36.8049 40.7098 36.7067 41.0387 36.5791L41.5344 39.3128C41.1123 39.4846 40.6411 39.6368 40.1209 39.7595C39.6006 39.8871 38.9675 39.946 38.2117 39.946C37.2546 39.946 36.4595 39.8184 35.8313 39.5582C35.2031 39.2981 34.7025 38.9398 34.3245 38.4736C33.9466 38.0122 33.6865 37.4478 33.5344 36.7901C33.3871 36.1325 33.3086 35.4012 33.3086 34.6012V24.1914H33.3135Z" fill="#303242"/>
<path id="Vector_6" d="M42.2412 33.5691C42.2412 32.4697 42.4081 31.5077 42.7467 30.6832C43.0854 29.8586 43.5271 29.1715 44.0768 28.6218C44.6265 28.0721 45.2596 27.655 45.9713 27.3752C46.6878 27.0905 47.4191 26.9531 48.175 26.9531C49.932 26.9531 51.3259 27.493 52.3467 28.5678C53.3676 29.6427 53.878 31.228 53.878 33.3139C53.878 33.52 53.8682 33.7409 53.8535 33.9863C53.8388 34.2317 53.824 34.4476 53.8044 34.6341H45.8437C45.9222 35.3556 46.2608 35.9298 46.8547 36.3519C47.4535 36.774 48.2535 36.9899 49.2596 36.9899C49.9026 36.9899 50.5357 36.931 51.1541 36.8133C51.7725 36.6955 52.2829 36.5482 52.6756 36.3764L53.1467 39.228C52.9602 39.3212 52.705 39.4145 52.3909 39.5126C52.0768 39.6059 51.7283 39.6893 51.3406 39.758C50.9529 39.8267 50.5455 39.8856 50.1038 39.9347C49.6621 39.9838 49.2253 40.0034 48.7835 40.0034C47.6694 40.0034 46.6977 39.8366 45.8731 39.5077C45.0486 39.1789 44.3664 38.7274 43.8216 38.1531C43.2817 37.5789 42.8792 36.9016 42.6191 36.1163C42.3688 35.3261 42.2412 34.4771 42.2412 33.5691ZM50.4866 32.2243C50.4719 31.9249 50.4179 31.6353 50.3345 31.3507C50.2461 31.066 50.1136 30.8157 49.932 30.5948C49.7504 30.374 49.5247 30.1924 49.2498 30.055C48.975 29.9126 48.6314 29.8439 48.224 29.8439C47.8314 29.8439 47.4927 29.9126 47.213 30.0452C46.9283 30.1777 46.6927 30.3544 46.5062 30.5752C46.3197 30.7961 46.1725 31.0513 46.0694 31.3409C45.9664 31.6304 45.8927 31.9249 45.8437 32.2243H50.4866Z" fill="#303242"/>
</g>
<g id="Group_3">
<path id="Vector_7" d="M54.7858 7.84766V23.7495H41.7012V19.774H44.1552V21.2955H52.3318V10.3016H51.311V7.84766H54.7858Z" fill="url(#paint0_linear_1226_19414)"/>
</g>
<path id="Vector_8" d="M54.7858 23.7489H41.7012V19.7734H44.1552V21.2949H52.3318L54.7858 23.7489Z" fill="url(#paint1_linear_1226_19414)"/>
<path id="Vector_9" d="M40.8123 0L34.7607 6.05153V17.811H49.3472V0H40.8123ZM46.8883 15.3521H43.9043V14.3215C45.1509 14.1055 45.838 13.281 45.838 12.3141C45.838 11.3374 45.3178 10.7387 44.0221 10.2822C43.0994 9.93374 42.7215 9.70797 42.7215 9.34969C42.7215 9.0454 42.9472 8.7411 43.654 8.7411C44.4344 8.7411 44.935 8.99141 45.2196 9.1092L45.5337 7.88221C45.1755 7.71043 44.6847 7.55828 43.9583 7.52393V6.56687H42.8933V7.60245C41.7301 7.83313 41.0577 8.57914 41.0577 9.5362C41.0577 10.5865 41.8528 11.1313 43.011 11.5239C43.816 11.7939 44.1644 12.0589 44.1644 12.4712C44.1644 12.9031 43.7423 13.1436 43.1239 13.1436C42.4172 13.1436 41.7791 12.9178 41.3227 12.6675L40.9988 13.9386C41.411 14.1791 42.1178 14.3706 42.8442 14.4049V15.362H37.2147V6.05153H40.8123V2.45399H46.8883V15.3521Z" fill="url(#paint2_linear_1226_19414)"/>
<path id="Vector_10" d="M37.2147 8.50477V6.05078H34.7607L37.2147 8.50477Z" fill="url(#paint3_linear_1226_19414)"/>
</g>
<defs>
<linearGradient id="paint0_linear_1226_19414" x1="48.2418" y1="7.84653" x2="48.2418" y2="23.7484" gradientUnits="userSpaceOnUse">
<stop stop-color="#EC7F00"/>
<stop offset="1" stop-color="#CF4800"/>
</linearGradient>
<linearGradient id="paint1_linear_1226_19414" x1="48.2418" y1="19.7723" x2="48.2418" y2="23.7478" gradientUnits="userSpaceOnUse">
<stop stop-color="#803400"/>
<stop offset="1" stop-color="#7C2B00"/>
</linearGradient>
<linearGradient id="paint2_linear_1226_19414" x1="42.0523" y1="0" x2="42.0523" y2="17.8084" gradientUnits="userSpaceOnUse">
<stop stop-color="#D12A6E"/>
<stop offset="1" stop-color="#8729AA"/>
</linearGradient>
<linearGradient id="paint3_linear_1226_19414" x1="35.987" y1="6.05024" x2="35.987" y2="8.50423" gradientUnits="userSpaceOnUse">
<stop stop-color="#6E194E"/>
<stop offset="1" stop-color="#681953"/>
</linearGradient>
</defs>
</svg>
