<svg width="67" height="67" viewBox="0 0 67 67" fill="none" xmlns="http://www.w3.org/2000/svg">
<rect x="5.5" y="5.35938" width="56" height="56" rx="28" fill="#BAE8FF"/>
<rect x="5.5" y="5.35938" width="56" height="56" rx="28" stroke="#EBF8FF" stroke-width="10"/>
<path d="M33.9118 22.0873C33.6544 21.9501 33.3456 21.9501 33.0882 22.0873L19.9632 29.0873C19.6781 29.2394 19.5 29.5362 19.5 29.8594C19.5 30.1825 19.6781 30.4794 19.9632 30.6314L25.0781 33.3594L19.9632 36.0873C19.6781 36.2394 19.5 36.5362 19.5 36.8594C19.5 37.1825 19.6781 37.4794 19.9632 37.6314L33.0882 44.6314C33.3456 44.7687 33.6544 44.7687 33.9118 44.6314L47.0368 37.6314C47.3219 37.4794 47.5 37.1825 47.5 36.8594C47.5 36.5362 47.3219 36.2394 47.0368 36.0873L41.9219 33.3594L47.0368 30.6314C47.3219 30.4794 47.5 30.1825 47.5 29.8594C47.5 29.5362 47.3219 29.2394 47.0368 29.0873L33.9118 22.0873ZM40.0625 34.351L44.7656 36.8594L33.5 42.8677L22.2344 36.8594L26.9375 34.351L33.0882 37.6314C33.3456 37.7687 33.6544 37.7687 33.9118 37.6314L40.0625 34.351ZM33.5 35.8677L22.2344 29.8594L33.5 23.851L44.7656 29.8594L33.5 35.8677Z" fill="#1AB2FF"/>
</svg>
