<svg width="20" height="21" viewBox="0 0 20 21" fill="none" xmlns="http://www.w3.org/2000/svg">
<g opacity="0.4">
<path d="M1.6665 10.9669V5.98356C1.6665 3.68356 3.53317 1.82523 5.83317 1.82523H14.1665C16.4665 1.82523 18.3332 3.68356 18.3332 5.98356V11.8002C18.3332 14.0919 16.4665 15.9502 14.1665 15.9502H12.9165C12.6582 15.9502 12.4082 16.0752 12.2498 16.2836L10.9998 17.9419C10.4498 18.6752 9.54984 18.6752 8.99984 17.9419L7.74984 16.2836C7.6165 16.1002 7.3165 15.9502 7.08317 15.9502H5.83317C3.53317 15.9502 1.6665 14.0919 1.6665 11.8002V10.9669Z" fill="#1D2939"/>
<path d="M1.6665 10.9669V5.98356C1.6665 3.68356 3.53317 1.82523 5.83317 1.82523H14.1665C16.4665 1.82523 18.3332 3.68356 18.3332 5.98356V11.8002C18.3332 14.0919 16.4665 15.9502 14.1665 15.9502H12.9165C12.6582 15.9502 12.4082 16.0752 12.2498 16.2836L10.9998 17.9419C10.4498 18.6752 9.54984 18.6752 8.99984 17.9419L7.74984 16.2836C7.6165 16.1002 7.3165 15.9502 7.08317 15.9502H5.83317C3.53317 15.9502 1.6665 14.0919 1.6665 11.8002V10.9669Z" fill="url(#paint0_linear_15732_98676)"/>
<path d="M1.6665 10.9669V5.98356C1.6665 3.68356 3.53317 1.82523 5.83317 1.82523H14.1665C16.4665 1.82523 18.3332 3.68356 18.3332 5.98356V11.8002C18.3332 14.0919 16.4665 15.9502 14.1665 15.9502H12.9165C12.6582 15.9502 12.4082 16.0752 12.2498 16.2836L10.9998 17.9419C10.4498 18.6752 9.54984 18.6752 8.99984 17.9419L7.74984 16.2836C7.6165 16.1002 7.3165 15.9502 7.08317 15.9502H5.83317C3.53317 15.9502 1.6665 14.0919 1.6665 11.8002V10.9669Z" fill="url(#paint1_linear_15732_98676)"/>
<path d="M1.6665 10.9669V5.98356C1.6665 3.68356 3.53317 1.82523 5.83317 1.82523H14.1665C16.4665 1.82523 18.3332 3.68356 18.3332 5.98356V11.8002C18.3332 14.0919 16.4665 15.9502 14.1665 15.9502H12.9165C12.6582 15.9502 12.4082 16.0752 12.2498 16.2836L10.9998 17.9419C10.4498 18.6752 9.54984 18.6752 8.99984 17.9419L7.74984 16.2836C7.6165 16.1002 7.3165 15.9502 7.08317 15.9502H5.83317C3.53317 15.9502 1.6665 14.0919 1.6665 11.8002V10.9669Z" fill="url(#paint2_linear_15732_98676)"/>
</g>
<path d="M14.1668 7.45023H5.8335C5.49183 7.45023 5.2085 7.16689 5.2085 6.82523C5.2085 6.48356 5.49183 6.20023 5.8335 6.20023H14.1668C14.5085 6.20023 14.7918 6.48356 14.7918 6.82523C14.7918 7.16689 14.5085 7.45023 14.1668 7.45023Z" fill="#292D32"/>
<path d="M14.1668 7.45023H5.8335C5.49183 7.45023 5.2085 7.16689 5.2085 6.82523C5.2085 6.48356 5.49183 6.20023 5.8335 6.20023H14.1668C14.5085 6.20023 14.7918 6.48356 14.7918 6.82523C14.7918 7.16689 14.5085 7.45023 14.1668 7.45023Z" fill="url(#paint3_linear_15732_98676)"/>
<path d="M14.1668 7.45023H5.8335C5.49183 7.45023 5.2085 7.16689 5.2085 6.82523C5.2085 6.48356 5.49183 6.20023 5.8335 6.20023H14.1668C14.5085 6.20023 14.7918 6.48356 14.7918 6.82523C14.7918 7.16689 14.5085 7.45023 14.1668 7.45023Z" fill="url(#paint4_linear_15732_98676)"/>
<path d="M14.1668 7.45023H5.8335C5.49183 7.45023 5.2085 7.16689 5.2085 6.82523C5.2085 6.48356 5.49183 6.20023 5.8335 6.20023H14.1668C14.5085 6.20023 14.7918 6.48356 14.7918 6.82523C14.7918 7.16689 14.5085 7.45023 14.1668 7.45023Z" fill="url(#paint5_linear_15732_98676)"/>
<path d="M10.8335 11.6169H5.8335C5.49183 11.6169 5.2085 11.3336 5.2085 10.9919C5.2085 10.6502 5.49183 10.3669 5.8335 10.3669H10.8335C11.1752 10.3669 11.4585 10.6502 11.4585 10.9919C11.4585 11.3336 11.1752 11.6169 10.8335 11.6169Z" fill="#292D32"/>
<path d="M10.8335 11.6169H5.8335C5.49183 11.6169 5.2085 11.3336 5.2085 10.9919C5.2085 10.6502 5.49183 10.3669 5.8335 10.3669H10.8335C11.1752 10.3669 11.4585 10.6502 11.4585 10.9919C11.4585 11.3336 11.1752 11.6169 10.8335 11.6169Z" fill="url(#paint6_linear_15732_98676)"/>
<path d="M10.8335 11.6169H5.8335C5.49183 11.6169 5.2085 11.3336 5.2085 10.9919C5.2085 10.6502 5.49183 10.3669 5.8335 10.3669H10.8335C11.1752 10.3669 11.4585 10.6502 11.4585 10.9919C11.4585 11.3336 11.1752 11.6169 10.8335 11.6169Z" fill="url(#paint7_linear_15732_98676)"/>
<path d="M10.8335 11.6169H5.8335C5.49183 11.6169 5.2085 11.3336 5.2085 10.9919C5.2085 10.6502 5.49183 10.3669 5.8335 10.3669H10.8335C11.1752 10.3669 11.4585 10.6502 11.4585 10.9919C11.4585 11.3336 11.1752 11.6169 10.8335 11.6169Z" fill="url(#paint8_linear_15732_98676)"/>
<defs>
<linearGradient id="paint0_linear_15732_98676" x1="1.6665" y1="1.82523" x2="18.3332" y2="18.4919" gradientUnits="userSpaceOnUse">
<stop stop-color="#89F7FE"/>
<stop offset="1" stop-color="#66A6FF"/>
</linearGradient>
<linearGradient id="paint1_linear_15732_98676" x1="18.3332" y1="18.4919" x2="18.3332" y2="1.82523" gradientUnits="userSpaceOnUse">
<stop stop-color="#96FBC4"/>
<stop offset="1" stop-color="#F9F586"/>
</linearGradient>
<linearGradient id="paint2_linear_15732_98676" x1="1.66624" y1="18.4918" x2="18.333" y2="1.82502" gradientUnits="userSpaceOnUse">
<stop stop-color="#4DEF8E"/>
<stop offset="1" stop-color="#FFEB3A"/>
</linearGradient>
<linearGradient id="paint3_linear_15732_98676" x1="5.2085" y1="6.20023" x2="5.52913" y2="8.6584" gradientUnits="userSpaceOnUse">
<stop stop-color="#89F7FE"/>
<stop offset="1" stop-color="#66A6FF"/>
</linearGradient>
<linearGradient id="paint4_linear_15732_98676" x1="14.7918" y1="7.45023" x2="14.7918" y2="6.20023" gradientUnits="userSpaceOnUse">
<stop stop-color="#96FBC4"/>
<stop offset="1" stop-color="#F9F586"/>
</linearGradient>
<linearGradient id="paint5_linear_15732_98676" x1="5.20835" y1="7.45022" x2="5.52898" y2="4.99203" gradientUnits="userSpaceOnUse">
<stop stop-color="#4DEF8E"/>
<stop offset="1" stop-color="#FFEB3A"/>
</linearGradient>
<linearGradient id="paint6_linear_15732_98676" x1="5.2085" y1="10.3669" x2="5.68927" y2="12.7708" gradientUnits="userSpaceOnUse">
<stop stop-color="#89F7FE"/>
<stop offset="1" stop-color="#66A6FF"/>
</linearGradient>
<linearGradient id="paint7_linear_15732_98676" x1="11.4585" y1="11.6169" x2="11.4585" y2="10.3669" gradientUnits="userSpaceOnUse">
<stop stop-color="#96FBC4"/>
<stop offset="1" stop-color="#F9F586"/>
</linearGradient>
<linearGradient id="paint8_linear_15732_98676" x1="5.2084" y1="11.6169" x2="5.68917" y2="9.21305" gradientUnits="userSpaceOnUse">
<stop stop-color="#4DEF8E"/>
<stop offset="1" stop-color="#FFEB3A"/>
</linearGradient>
</defs>
</svg>
