<svg width="24" height="24" viewBox="0 0 24 24" fill="none" xmlns="http://www.w3.org/2000/svg">
<g opacity="0.4">
<path d="M21.37 11.3901V17.3801C21.37 20.1401 19.13 22.3801 16.37 22.3801H7.63C4.87 22.3801 2.63 20.1401 2.63 17.3801V11.4601C3.39 12.2801 4.47 12.7501 5.64 12.7501C6.9 12.7501 8.11 12.1201 8.87 11.1101C9.55 12.1201 10.71 12.7501 12 12.7501C13.28 12.7501 14.42 12.1501 15.11 11.1501C15.88 12.1401 17.07 12.7501 18.31 12.7501C19.52 12.7501 20.62 12.2601 21.37 11.3901Z" fill="#344054"/>
<path d="M21.37 11.3901V17.3801C21.37 20.1401 19.13 22.3801 16.37 22.3801H7.63C4.87 22.3801 2.63 20.1401 2.63 17.3801V11.4601C3.39 12.2801 4.47 12.7501 5.64 12.7501C6.9 12.7501 8.11 12.1201 8.87 11.1101C9.55 12.1201 10.71 12.7501 12 12.7501C13.28 12.7501 14.42 12.1501 15.11 11.1501C15.88 12.1401 17.07 12.7501 18.31 12.7501C19.52 12.7501 20.62 12.2601 21.37 11.3901Z" fill="url(#paint0_linear_1254_88290)"/>
<path d="M21.37 11.3901V17.3801C21.37 20.1401 19.13 22.3801 16.37 22.3801H7.63C4.87 22.3801 2.63 20.1401 2.63 17.3801V11.4601C3.39 12.2801 4.47 12.7501 5.64 12.7501C6.9 12.7501 8.11 12.1201 8.87 11.1101C9.55 12.1201 10.71 12.7501 12 12.7501C13.28 12.7501 14.42 12.1501 15.11 11.1501C15.88 12.1401 17.07 12.7501 18.31 12.7501C19.52 12.7501 20.62 12.2601 21.37 11.3901Z" fill="url(#paint1_linear_1254_88290)"/>
</g>
<path d="M14.99 1.25H8.98997L8.24997 8.61C8.18997 9.29 8.28997 9.93 8.53997 10.51C9.11997 11.87 10.48 12.75 12 12.75C13.54 12.75 14.87 11.89 15.47 10.52C15.65 10.09 15.76 9.59 15.77 9.08V8.89L14.99 1.25Z" fill="#344054"/>
<path d="M14.99 1.25H8.98997L8.24997 8.61C8.18997 9.29 8.28997 9.93 8.53997 10.51C9.11997 11.87 10.48 12.75 12 12.75C13.54 12.75 14.87 11.89 15.47 10.52C15.65 10.09 15.76 9.59 15.77 9.08V8.89L14.99 1.25Z" fill="url(#paint2_linear_1254_88290)"/>
<path d="M14.99 1.25H8.98997L8.24997 8.61C8.18997 9.29 8.28997 9.93 8.53997 10.51C9.11997 11.87 10.48 12.75 12 12.75C13.54 12.75 14.87 11.89 15.47 10.52C15.65 10.09 15.76 9.59 15.77 9.08V8.89L14.99 1.25Z" fill="url(#paint3_linear_1254_88290)"/>
<g opacity="0.6">
<path d="M22.36 8.27L22.07 5.5C21.65 2.48 20.28 1.25 17.35 1.25H13.51L14.25 8.75C14.26 8.85 14.27 8.96 14.27 9.15C14.33 9.67 14.49 10.15 14.73 10.58C15.45 11.9 16.85 12.75 18.31 12.75C19.64 12.75 20.84 12.16 21.59 11.12C22.19 10.32 22.46 9.31 22.36 8.27Z" fill="#344054"/>
<path d="M22.36 8.27L22.07 5.5C21.65 2.48 20.28 1.25 17.35 1.25H13.51L14.25 8.75C14.26 8.85 14.27 8.96 14.27 9.15C14.33 9.67 14.49 10.15 14.73 10.58C15.45 11.9 16.85 12.75 18.31 12.75C19.64 12.75 20.84 12.16 21.59 11.12C22.19 10.32 22.46 9.31 22.36 8.27Z" fill="url(#paint4_linear_1254_88290)"/>
<path d="M22.36 8.27L22.07 5.5C21.65 2.48 20.28 1.25 17.35 1.25H13.51L14.25 8.75C14.26 8.85 14.27 8.96 14.27 9.15C14.33 9.67 14.49 10.15 14.73 10.58C15.45 11.9 16.85 12.75 18.31 12.75C19.64 12.75 20.84 12.16 21.59 11.12C22.19 10.32 22.46 9.31 22.36 8.27Z" fill="url(#paint5_linear_1254_88290)"/>
</g>
<g opacity="0.6">
<path d="M6.59002 1.25C3.65002 1.25 2.29002 2.48 1.86002 5.53L1.59002 8.28C1.49002 9.35 1.78002 10.39 2.41002 11.2C3.17002 12.19 4.34002 12.75 5.64002 12.75C7.10002 12.75 8.50002 11.9 9.21002 10.6C9.47002 10.15 9.64002 9.63 9.69002 9.09L10.47 1.26H6.59002V1.25Z" fill="#344054"/>
<path d="M6.59002 1.25C3.65002 1.25 2.29002 2.48 1.86002 5.53L1.59002 8.28C1.49002 9.35 1.78002 10.39 2.41002 11.2C3.17002 12.19 4.34002 12.75 5.64002 12.75C7.10002 12.75 8.50002 11.9 9.21002 10.6C9.47002 10.15 9.64002 9.63 9.69002 9.09L10.47 1.26H6.59002V1.25Z" fill="url(#paint6_linear_1254_88290)"/>
<path d="M6.59002 1.25C3.65002 1.25 2.29002 2.48 1.86002 5.53L1.59002 8.28C1.49002 9.35 1.78002 10.39 2.41002 11.2C3.17002 12.19 4.34002 12.75 5.64002 12.75C7.10002 12.75 8.50002 11.9 9.21002 10.6C9.47002 10.15 9.64002 9.63 9.69002 9.09L10.47 1.26H6.59002V1.25Z" fill="url(#paint7_linear_1254_88290)"/>
</g>
<path d="M11.35 16.66C10.08 16.79 9.12 17.87 9.12 19.15V22.38H14.87V19.5C14.88 17.41 13.65 16.42 11.35 16.66Z" fill="#344054"/>
<path d="M11.35 16.66C10.08 16.79 9.12 17.87 9.12 19.15V22.38H14.87V19.5C14.88 17.41 13.65 16.42 11.35 16.66Z" fill="url(#paint8_linear_1254_88290)"/>
<path d="M11.35 16.66C10.08 16.79 9.12 17.87 9.12 19.15V22.38H14.87V19.5C14.88 17.41 13.65 16.42 11.35 16.66Z" fill="url(#paint9_linear_1254_88290)"/>
<defs>
<linearGradient id="paint0_linear_1254_88290" x1="2.63" y1="11.1101" x2="12.5849" y2="27.6633" gradientUnits="userSpaceOnUse">
<stop stop-color="#C99FFF"/>
<stop offset="1" stop-color="#981ED2"/>
</linearGradient>
<linearGradient id="paint1_linear_1254_88290" x1="2.62971" y1="22.38" x2="12.5846" y2="5.82672" gradientUnits="userSpaceOnUse">
<stop stop-color="#4A879A"/>
<stop offset="1" stop-color="#C5EDF5"/>
</linearGradient>
<linearGradient id="paint2_linear_1254_88290" x1="8.23303" y1="1.25" x2="18.7777" y2="8.16081" gradientUnits="userSpaceOnUse">
<stop stop-color="#C99FFF"/>
<stop offset="1" stop-color="#981ED2"/>
</linearGradient>
<linearGradient id="paint3_linear_1254_88290" x1="8.23291" y1="12.7499" x2="18.7776" y2="5.83907" gradientUnits="userSpaceOnUse">
<stop stop-color="#4A879A"/>
<stop offset="1" stop-color="#C5EDF5"/>
</linearGradient>
<linearGradient id="paint4_linear_1254_88290" x1="13.51" y1="1.25" x2="24.633" y2="9.82958" gradientUnits="userSpaceOnUse">
<stop stop-color="#C99FFF"/>
<stop offset="1" stop-color="#981ED2"/>
</linearGradient>
<linearGradient id="paint5_linear_1254_88290" x1="13.5099" y1="12.7499" x2="24.6329" y2="4.17029" gradientUnits="userSpaceOnUse">
<stop stop-color="#4A879A"/>
<stop offset="1" stop-color="#C5EDF5"/>
</linearGradient>
<linearGradient id="paint6_linear_1254_88290" x1="1.57068" y1="1.25" x2="12.7028" y2="9.86468" gradientUnits="userSpaceOnUse">
<stop stop-color="#C99FFF"/>
<stop offset="1" stop-color="#981ED2"/>
</linearGradient>
<linearGradient id="paint7_linear_1254_88290" x1="1.57054" y1="12.7499" x2="12.7027" y2="4.13519" gradientUnits="userSpaceOnUse">
<stop stop-color="#4A879A"/>
<stop offset="1" stop-color="#C5EDF5"/>
</linearGradient>
<linearGradient id="paint8_linear_1254_88290" x1="9.12" y1="16.6248" x2="14.8752" y2="22.3748" gradientUnits="userSpaceOnUse">
<stop stop-color="#C99FFF"/>
<stop offset="1" stop-color="#981ED2"/>
</linearGradient>
<linearGradient id="paint9_linear_1254_88290" x1="9.11991" y1="22.38" x2="14.8752" y2="16.6299" gradientUnits="userSpaceOnUse">
<stop stop-color="#4A879A"/>
<stop offset="1" stop-color="#C5EDF5"/>
</linearGradient>
</defs>
</svg>
