<svg xmlns="http://www.w3.org/2000/svg" width="24" height="24" viewBox="0 0 24 24" fill="none">
  <g opacity="0.4">
    <path d="M9 2C6.38 2 4.25 4.13 4.25 6.75C4.25 9.32 6.26 11.4 8.88 11.49C8.96 11.48 9.04 11.48 9.1 11.49C9.12 11.49 9.13 11.49 9.15 11.49C9.16 11.49 9.16 11.49 9.17 11.49C11.73 11.4 13.74 9.32 13.75 6.75C13.75 4.13 11.62 2 9 2Z" fill="#344054"/>
    <path d="M9 2C6.38 2 4.25 4.13 4.25 6.75C4.25 9.32 6.26 11.4 8.88 11.49C8.96 11.48 9.04 11.48 9.1 11.49C9.12 11.49 9.13 11.49 9.15 11.49C9.16 11.49 9.16 11.49 9.17 11.49C11.73 11.4 13.74 9.32 13.75 6.75C13.75 4.13 11.62 2 9 2Z" fill="url(#paint0_linear_1251_92036)"/>
    <path d="M9 2C6.38 2 4.25 4.13 4.25 6.75C4.25 9.32 6.26 11.4 8.88 11.49C8.96 11.48 9.04 11.48 9.1 11.49C9.12 11.49 9.13 11.49 9.15 11.49C9.16 11.49 9.16 11.49 9.17 11.49C11.73 11.4 13.74 9.32 13.75 6.75C13.75 4.13 11.62 2 9 2Z" fill="url(#paint1_linear_1251_92036)"/>
    <path d="M9 2C6.38 2 4.25 4.13 4.25 6.75C4.25 9.32 6.26 11.4 8.88 11.49C8.96 11.48 9.04 11.48 9.1 11.49C9.12 11.49 9.13 11.49 9.15 11.49C9.16 11.49 9.16 11.49 9.17 11.49C11.73 11.4 13.74 9.32 13.75 6.75C13.75 4.13 11.62 2 9 2Z" fill="url(#paint2_linear_1251_92036)"/>
  </g>
  <path d="M14.08 14.1499C11.29 12.2899 6.74 12.2899 3.93 14.1499C2.66 14.9999 1.96 16.1499 1.96 17.3799C1.96 18.6099 2.66 19.7499 3.92 20.5899C5.32 21.5299 7.16 21.9999 9 21.9999C10.84 21.9999 12.68 21.5299 14.08 20.5899C15.34 19.7399 16.04 18.5999 16.04 17.3599C16.03 16.1299 15.34 14.9899 14.08 14.1499Z" fill="#344054"/>
  <path d="M14.08 14.1499C11.29 12.2899 6.74 12.2899 3.93 14.1499C2.66 14.9999 1.96 16.1499 1.96 17.3799C1.96 18.6099 2.66 19.7499 3.92 20.5899C5.32 21.5299 7.16 21.9999 9 21.9999C10.84 21.9999 12.68 21.5299 14.08 20.5899C15.34 19.7399 16.04 18.5999 16.04 17.3599C16.03 16.1299 15.34 14.9899 14.08 14.1499Z" fill="url(#paint3_linear_1251_92036)"/>
  <path d="M14.08 14.1499C11.29 12.2899 6.74 12.2899 3.93 14.1499C2.66 14.9999 1.96 16.1499 1.96 17.3799C1.96 18.6099 2.66 19.7499 3.92 20.5899C5.32 21.5299 7.16 21.9999 9 21.9999C10.84 21.9999 12.68 21.5299 14.08 20.5899C15.34 19.7399 16.04 18.5999 16.04 17.3599C16.03 16.1299 15.34 14.9899 14.08 14.1499Z" fill="url(#paint4_linear_1251_92036)"/>
  <path d="M14.08 14.1499C11.29 12.2899 6.74 12.2899 3.93 14.1499C2.66 14.9999 1.96 16.1499 1.96 17.3799C1.96 18.6099 2.66 19.7499 3.92 20.5899C5.32 21.5299 7.16 21.9999 9 21.9999C10.84 21.9999 12.68 21.5299 14.08 20.5899C15.34 19.7399 16.04 18.5999 16.04 17.3599C16.03 16.1299 15.34 14.9899 14.08 14.1499Z" fill="url(#paint5_linear_1251_92036)"/>
  <g opacity="0.4">
    <path d="M19.99 7.3401C20.15 9.2801 18.77 10.9801 16.86 11.2101C16.85 11.2101 16.85 11.2101 16.84 11.2101H16.81C16.75 11.2101 16.69 11.2101 16.64 11.2301C15.67 11.2801 14.78 10.9701 14.11 10.4001C15.14 9.4801 15.73 8.1001 15.61 6.6001C15.54 5.7901 15.26 5.0501 14.84 4.4201C15.22 4.2301 15.66 4.1101 16.11 4.0701C18.07 3.9001 19.82 5.3601 19.99 7.3401Z" fill="#344054"/>
    <path d="M19.99 7.3401C20.15 9.2801 18.77 10.9801 16.86 11.2101C16.85 11.2101 16.85 11.2101 16.84 11.2101H16.81C16.75 11.2101 16.69 11.2101 16.64 11.2301C15.67 11.2801 14.78 10.9701 14.11 10.4001C15.14 9.4801 15.73 8.1001 15.61 6.6001C15.54 5.7901 15.26 5.0501 14.84 4.4201C15.22 4.2301 15.66 4.1101 16.11 4.0701C18.07 3.9001 19.82 5.3601 19.99 7.3401Z" fill="url(#paint6_linear_1251_92036)"/>
    <path d="M19.99 7.3401C20.15 9.2801 18.77 10.9801 16.86 11.2101C16.85 11.2101 16.85 11.2101 16.84 11.2101H16.81C16.75 11.2101 16.69 11.2101 16.64 11.2301C15.67 11.2801 14.78 10.9701 14.11 10.4001C15.14 9.4801 15.73 8.1001 15.61 6.6001C15.54 5.7901 15.26 5.0501 14.84 4.4201C15.22 4.2301 15.66 4.1101 16.11 4.0701C18.07 3.9001 19.82 5.3601 19.99 7.3401Z" fill="url(#paint7_linear_1251_92036)"/>
    <path d="M19.99 7.3401C20.15 9.2801 18.77 10.9801 16.86 11.2101C16.85 11.2101 16.85 11.2101 16.84 11.2101H16.81C16.75 11.2101 16.69 11.2101 16.64 11.2301C15.67 11.2801 14.78 10.9701 14.11 10.4001C15.14 9.4801 15.73 8.1001 15.61 6.6001C15.54 5.7901 15.26 5.0501 14.84 4.4201C15.22 4.2301 15.66 4.1101 16.11 4.0701C18.07 3.9001 19.82 5.3601 19.99 7.3401Z" fill="url(#paint8_linear_1251_92036)"/>
  </g>
  <path d="M21.99 16.5899C21.91 17.5599 21.29 18.3999 20.25 18.9699C19.25 19.5199 17.99 19.7799 16.74 19.7499C17.46 19.0999 17.88 18.2899 17.96 17.4299C18.06 16.1899 17.47 14.9999 16.29 14.0499C15.62 13.5199 14.84 13.0999 13.99 12.7899C16.2 12.1499 18.98 12.5799 20.69 13.9599C21.61 14.6999 22.08 15.6299 21.99 16.5899Z" fill="#344054"/>
  <path d="M21.99 16.5899C21.91 17.5599 21.29 18.3999 20.25 18.9699C19.25 19.5199 17.99 19.7799 16.74 19.7499C17.46 19.0999 17.88 18.2899 17.96 17.4299C18.06 16.1899 17.47 14.9999 16.29 14.0499C15.62 13.5199 14.84 13.0999 13.99 12.7899C16.2 12.1499 18.98 12.5799 20.69 13.9599C21.61 14.6999 22.08 15.6299 21.99 16.5899Z" fill="url(#paint9_linear_1251_92036)"/>
  <path d="M21.99 16.5899C21.91 17.5599 21.29 18.3999 20.25 18.9699C19.25 19.5199 17.99 19.7799 16.74 19.7499C17.46 19.0999 17.88 18.2899 17.96 17.4299C18.06 16.1899 17.47 14.9999 16.29 14.0499C15.62 13.5199 14.84 13.0999 13.99 12.7899C16.2 12.1499 18.98 12.5799 20.69 13.9599C21.61 14.6999 22.08 15.6299 21.99 16.5899Z" fill="url(#paint10_linear_1251_92036)"/>
  <path d="M21.99 16.5899C21.91 17.5599 21.29 18.3999 20.25 18.9699C19.25 19.5199 17.99 19.7799 16.74 19.7499C17.46 19.0999 17.88 18.2899 17.96 17.4299C18.06 16.1899 17.47 14.9999 16.29 14.0499C15.62 13.5199 14.84 13.0999 13.99 12.7899C16.2 12.1499 18.98 12.5799 20.69 13.9599C21.61 14.6999 22.08 15.6299 21.99 16.5899Z" fill="url(#paint11_linear_1251_92036)"/>
  <defs>
    <linearGradient id="paint0_linear_1251_92036" x1="4.25" y1="2" x2="4.25" y2="11.49" gradientUnits="userSpaceOnUse">
      <stop stop-color="#FECFEF"/>
      <stop offset="1" stop-color="#FF989C"/>
    </linearGradient>
    <linearGradient id="paint1_linear_1251_92036" x1="4.25" y1="2" x2="13.74" y2="11.5" gradientUnits="userSpaceOnUse">
      <stop stop-color="#F74FAC"/>
      <stop offset="1" stop-color="#FCB24F"/>
    </linearGradient>
    <linearGradient id="paint2_linear_1251_92036" x1="4.25" y1="2" x2="13.74" y2="11.5" gradientUnits="userSpaceOnUse">
      <stop stop-color="#72EDF2"/>
      <stop offset="1" stop-color="#5151E5"/>
    </linearGradient>
    <linearGradient id="paint3_linear_1251_92036" x1="1.96" y1="12.7549" x2="1.96" y2="21.9999" gradientUnits="userSpaceOnUse">
      <stop stop-color="#FECFEF"/>
      <stop offset="1" stop-color="#FF989C"/>
    </linearGradient>
    <linearGradient id="paint4_linear_1251_92036" x1="1.96" y1="12.7549" x2="10.4432" y2="25.6747" gradientUnits="userSpaceOnUse">
      <stop stop-color="#F74FAC"/>
      <stop offset="1" stop-color="#FCB24F"/>
    </linearGradient>
    <linearGradient id="paint5_linear_1251_92036" x1="1.96" y1="12.7549" x2="10.4432" y2="25.6747" gradientUnits="userSpaceOnUse">
      <stop stop-color="#72EDF2"/>
      <stop offset="1" stop-color="#5151E5"/>
    </linearGradient>
    <linearGradient id="paint6_linear_1251_92036" x1="14.11" y1="4.05664" x2="14.11" y2="11.2353" gradientUnits="userSpaceOnUse">
      <stop stop-color="#FECFEF"/>
      <stop offset="1" stop-color="#FF989C"/>
    </linearGradient>
    <linearGradient id="paint7_linear_1251_92036" x1="14.11" y1="4.05664" x2="21.151" y2="9.83626" gradientUnits="userSpaceOnUse">
      <stop stop-color="#F74FAC"/>
      <stop offset="1" stop-color="#FCB24F"/>
    </linearGradient>
    <linearGradient id="paint8_linear_1251_92036" x1="14.11" y1="4.05664" x2="21.151" y2="9.83626" gradientUnits="userSpaceOnUse">
      <stop stop-color="#72EDF2"/>
      <stop offset="1" stop-color="#5151E5"/>
    </linearGradient>
    <linearGradient id="paint9_linear_1251_92036" x1="13.99" y1="12.4995" x2="13.99" y2="19.7522" gradientUnits="userSpaceOnUse">
      <stop stop-color="#FECFEF"/>
      <stop offset="1" stop-color="#FF989C"/>
    </linearGradient>
    <linearGradient id="paint10_linear_1251_92036" x1="13.99" y1="12.4995" x2="21.207" y2="20.471" gradientUnits="userSpaceOnUse">
      <stop stop-color="#F74FAC"/>
      <stop offset="1" stop-color="#FCB24F"/>
    </linearGradient>
    <linearGradient id="paint11_linear_1251_92036" x1="13.99" y1="12.4995" x2="21.207" y2="20.471" gradientUnits="userSpaceOnUse">
      <stop stop-color="#72EDF2"/>
      <stop offset="1" stop-color="#5151E5"/>
    </linearGradient>
  </defs>
</svg>